<?xml version="1.0" encoding="UTF-8" standalone="no"?>
<!-- Created with Inkscape (http://www.inkscape.org/) -->

<svg
   width="46.474648mm"
   height="68.664368mm"
   viewBox="0 0 46.474649 68.664368"
   version="1.1"
   id="svg1"
   xml:space="preserve"
   xmlns="http://www.w3.org/2000/svg"
   xmlns:svg="http://www.w3.org/2000/svg"><defs
     id="defs1" /><g
     id="g989"
     transform="translate(153.39744,73.811151)"><path
       style="fill:#ffffff"
       d="m -134.23615,-7.4620371 c -0.002,-1.2733072 -0.0915,-2.4411928 -0.19843,-2.5953009 -0.10692,-0.154109 -2.95102,-2.502684 -6.32024,-5.219056 l -6.12584,-4.938859 -0.15828,-1.263236 c -0.0871,-0.694779 -0.52007,-5.192298 -0.96228,-9.994485 -0.4422,-4.802187 -1.02873,-9.68375 -1.3034,-10.847916 -0.27466,-1.164167 -1.22073,-4.192035 -2.10237,-6.728597 -0.88164,-2.536561 -1.57491,-4.630398 -1.54061,-4.65297 0.0343,-0.02257 1.01488,0.983413 2.17905,2.235524 1.16416,1.25211 5.3979,5.786728 9.4083,10.076928 10.4996,11.232155 10.74828,11.515339 12.02011,13.688007 1.35246,2.310412 2.64958,6.217445 3.03664,9.146606 0.15042,1.138316 0.27349,4.620894 0.27349,7.739063 v 5.669396 h -4.10104 -4.10105 z m 4.76655,-5.8530529 c 0,-4.138822 -0.0804,-5.045432 -0.64446,-7.269117 -1.14803,-4.525668 -2.15264,-6.051641 -8.35526,-12.691406 -3.01609,-3.228652 -5.86635,-6.227465 -6.3339,-6.664027 l -0.8501,-0.79375 0.14361,0.926041 c 0.079,0.509323 0.2154,1.710488 0.30314,2.669255 l 0.15953,1.743213 5.04273,5.400537 c 5.44686,5.833339 6.22604,6.821102 7.3517,9.319691 1.12518,2.497494 1.59551,5.029892 1.59551,8.590541 0,1.72965 0.0794,3.224193 0.17639,3.3212069 0.097,0.097014 0.45421,0.1763889 0.79375,0.1763889 h 0.61736 z m -5.15541,-2.613262 c -0.25236,-1.682893 -0.96531,-3.499327 -2.01633,-5.137209 -0.73492,-1.145268 -0.89599,-1.274434 -1.06202,-0.851635 -0.29218,0.74407 -0.27113,2.21818 0.0317,2.21818 0.42001,0 0.31024,0.380384 -0.29828,1.033546 l -0.56286,0.604159 0.53107,0.531063 c 0.56447,0.564471 3.30685,2.809827 3.46897,2.840259 0.0529,0.0099 0.0114,-0.547333 -0.0922,-1.238363 z m -4.26105,-3.83681 c -0.0959,-0.763984 -0.24878,-1.467558 -0.33984,-1.563497 -0.0911,-0.09594 -0.75863,-0.215002 -1.48347,-0.264584 -1.89826,-0.129845 -1.88418,0.455867 0.0479,1.992607 0.84403,0.671332 1.628,1.221489 1.74215,1.22257 0.11416,0.0011 0.12913,-0.623111 0.0333,-1.387096 z m 0.60761,-0.454067 c -0.16245,-0.430379 -0.34184,-0.736034 -0.39864,-0.679233 -0.19859,0.198587 0.25674,1.731982 0.47436,1.597486 0.1208,-0.07466 0.0867,-0.487873 -0.0757,-0.918253 z m -4.02661,-1.58646 c 0.0906,-0.285544 0.0391,-0.753967 -0.11446,-1.040939 -0.15358,-0.286971 -0.27924,-0.886781 -0.27924,-1.33291 0,-0.699307 -0.0958,-0.811144 -0.69512,-0.811144 -0.6749,0 -0.69142,0.03858 -0.56775,1.325597 0.17415,1.812395 1.27818,3.051602 1.65657,1.859396 z m 3.05298,-2.383055 c -1.8393,-2.123131 -2.02705,-2.25868 -2.20197,-1.589773 -0.16352,0.625302 0.17401,1.985461 0.62865,2.533269 0.23457,0.282634 0.23417,0.371232 -0.002,0.371232 -0.17037,0 -0.47794,-0.386953 -0.6835,-0.859896 -0.20556,-0.472942 -0.37841,-0.70324 -0.38411,-0.511772 -0.0168,0.564679 0.48986,1.337555 1.08597,1.656585 0.43697,0.233855 0.51087,0.22558 0.34741,-0.0389 -0.14906,-0.241194 -0.0773,-0.285951 0.2543,-0.158689 0.25405,0.09749 0.51171,0.177254 0.57257,0.177254 0.0609,0 0.11065,0.168672 0.11065,0.374827 0,0.614166 0.62797,0.668882 1.12486,0.09801 0.44887,-0.515701 0.42211,-0.580059 -0.85318,-2.052148 z m -2.23033,1.607741 c -0.24924,-0.275406 -0.55511,-0.840952 -0.67972,-1.256771 -0.17838,-0.59524 -0.2314,-0.637011 -0.24931,-0.196402 -0.0211,0.519764 0.88029,1.95391 1.2281,1.95391 0.0847,0 -0.0498,-0.225332 -0.29907,-0.500737 z m -0.57058,-3.348918 c 0.43642,-0.666054 0.42467,-0.694726 -0.92179,-2.248958 -0.75011,-0.865867 -1.39788,-1.574303 -1.43948,-1.574303 -0.0416,0 -0.0182,0.803672 0.0521,1.785937 0.0968,1.353831 0.25658,1.897965 0.66031,2.248958 0.72841,0.633281 1.12897,0.58187 1.64889,-0.211634 z m 17.87291,12.117884 -0.002,-2.050521 1.23848,-1.078769 1.23849,-1.078768 -0.57487,-0.574877 c -0.59319,-0.593181 -0.75104,-1.104044 -0.34114,-1.104044 0.39179,0 0.48169,-1.154359 0.1526,-1.959482 l -0.3105,-0.759635 -0.85717,1.245861 c -0.47145,0.685223 -0.89499,1.207727 -0.9412,1.161121 -0.0462,-0.04661 -0.31394,-0.98296 -0.59497,-2.080786 l -0.51095,-1.996045 1.00975,-1.172409 1.00975,-1.172409 -0.72001,-0.768969 c -0.48324,-0.516111 -0.61125,-0.808271 -0.38927,-0.88849 0.36802,-0.132997 0.45641,-1.554021 0.10997,-1.768127 -0.12141,-0.07504 -0.73632,0.388894 -1.36646,1.030962 l -1.14572,1.167395 -0.90351,-1.444466 -0.90352,-1.444466 1.27779,-1.438669 c 1.89407,-2.132519 20.31997,-21.799878 20.37528,-21.748067 0.0261,0.02446 -0.77584,2.483736 -1.7821,5.465057 -2.16252,6.407068 -2.37318,7.583691 -3.42646,19.138166 -0.43571,4.779775 -0.84805,8.780861 -0.91631,8.891304 -0.17804,0.288088 -10.39148,8.479654 -10.57263,8.479654 -0.0831,0 -0.15199,-0.922735 -0.15317,-2.050521 z m 4.41765,-5.660869 c 1.68628,-1.300956 1.75465,-1.394409 1.53245,-2.094491 -0.12006,-0.378295 -0.26529,-0.462987 -0.48345,-0.281931 -0.17151,0.142339 -0.78519,0.297436 -1.36374,0.34466 -0.99063,0.08086 -1.06124,0.143821 -1.21224,1.08097 -0.0882,0.54731 -0.24901,1.083091 -0.3574,1.190625 -0.10838,0.107533 -0.118,-0.280735 -0.0214,-0.862818 0.12965,-0.780969 0.10222,-0.954322 -0.10464,-0.661458 -0.15418,0.218281 -0.28215,0.60685 -0.28438,0.863486 -0.004,0.447779 0.53384,1.517764 0.76276,1.517764 0.0607,0 0.7501,-0.493563 1.53202,-1.096807 z m 2.8277,-2.30649 c 0.24533,-0.271084 0.51975,-1.11514 0.60983,-1.875681 0.15933,-1.345293 0.14655,-1.380367 -0.47119,-1.293057 -0.51079,0.07219 -0.65213,0.270631 -0.72273,1.014723 -0.0483,0.508738 -0.20693,1.068572 -0.35259,1.244074 -0.28026,0.337703 -0.064,1.402821 0.28489,1.402821 0.11316,0 0.40647,-0.221796 0.65179,-0.49288 z m -3.80362,-0.461469 c 0,-0.202712 0.12448,-0.368568 0.27661,-0.368568 0.15214,0 0.56886,-0.292244 0.92605,-0.649431 0.47547,-0.475476 0.64943,-0.936138 0.64943,-1.719792 0,-0.588698 -0.0943,-1.07036 -0.2095,-1.07036 -0.20024,0 -1.77018,1.585067 -2.81713,2.844271 -0.47184,0.567499 -0.47335,0.619202 -0.0322,1.106636 0.49566,0.547695 1.20677,0.463573 1.20677,-0.142756 z m 2.06358,-0.111307 c 0.59648,-0.555711 1.03347,-1.74633 0.74633,-2.033471 -0.0902,-0.09024 -0.16407,0.105664 -0.16407,0.435335 0,0.329671 -0.36978,0.944827 -0.82173,1.367014 -0.45195,0.422186 -0.71253,0.767611 -0.57906,0.767611 0.13347,0 0.50181,-0.24142 0.81853,-0.536489 z m 0.0638,-1.07094 c 0.15806,-0.295333 0.23413,-0.739089 0.16905,-0.986124 -0.0828,-0.314391 -0.12754,-0.266748 -0.14903,0.158791 -0.0169,0.334371 -0.35811,0.9165 -0.75829,1.293622 -0.60246,0.567737 -0.62625,0.632785 -0.13836,0.378178 0.32409,-0.169124 0.71857,-0.549134 0.87663,-0.844467 z m 1.97204,-2.19509 c 0.36069,-0.263742 0.54831,-0.860328 0.68648,-2.182813 0.10457,-1.000931 0.15762,-1.853962 0.11788,-1.895622 -0.0397,-0.04166 -0.67998,0.625775 -1.42277,1.48319 -1.26018,1.454636 -1.32887,1.605607 -1.02669,2.256495 0.35979,0.77497 0.89719,0.88563 1.6451,0.33875 z m -3.79742,-4.216395 c 0.2379,-0.434011 0.1687,-0.463217 -0.7475,-0.315485 -2.19499,0.353932 -2.12053,0.299888 -2.27267,1.649669 -0.0781,0.693093 -0.0797,1.36102 -0.004,1.484282 0.15002,0.242752 2.59487,-2.036146 3.0237,-2.818466 z m -3.43267,0.813615 c -0.23544,-0.235434 -0.30461,-0.09185 -0.29096,0.603946 0.0168,0.857246 0.0356,0.876048 0.30887,0.308867 0.21513,-0.446554 0.21046,-0.684437 -0.0179,-0.912813 z m 0.93739,-1.52595 c 0.0761,-0.291042 0.24896,-0.529167 0.38413,-0.529167 0.59553,0 1.54461,-1.332207 1.54461,-2.16814 v -0.869276 l -1.634,1.634003 c -1.40116,1.401154 -1.58506,1.69298 -1.29052,2.047874 0.46651,0.562116 0.82962,0.520074 0.99578,-0.115294 z m 2.18659,-0.257854 c 0.55629,-0.556286 0.97281,-1.774681 0.69997,-2.047523 -0.0902,-0.09024 -0.16407,0.10306 -0.16407,0.429549 0,0.326489 -0.34803,0.941645 -0.7734,1.367014 -0.42536,0.425368 -0.66349,0.773397 -0.52916,0.773397 0.13432,0 0.47932,-0.235096 0.76666,-0.522437 z m 2.31352,-1.12217 c 0.76856,-0.759014 1.39738,-1.456878 1.39738,-1.55081 0,-0.159435 -0.68068,-0.103376 -2.0213,0.166471 -0.40459,0.08144 -0.60068,0.359942 -0.68729,0.976134 -0.0667,0.474203 -0.2116,1.070546 -0.32211,1.325208 -0.35161,0.810315 0.19505,0.503395 1.63332,-0.917003 z m -2.59057,0.418301 c 0.3016,-0.383427 0.54763,-0.889443 0.54674,-1.124479 -9e-4,-0.236248 -0.18348,-0.0724 -0.4083,0.36641 -0.22367,0.436563 -0.60288,0.942578 -0.84269,1.124479 -0.23981,0.181901 -0.30284,0.330729 -0.14007,0.330729 0.16277,0 0.54271,-0.313712 0.84432,-0.697139 z m 1.67478,-2.438992 c -0.0353,-0.160523 0.29722,-0.478765 0.73897,-0.707204 0.44175,-0.228438 0.91713,-0.715047 1.0564,-1.081353 0.31952,-0.8404 0.32818,-1.954478 0.0152,-1.954478 -0.34371,0 -2.93696,2.892338 -2.93696,3.275697 0,0.441428 0.58021,0.987186 0.91612,0.861725 0.15098,-0.05639 0.24561,-0.233864 0.21029,-0.394387 z m 1.90444,0.06136 c 0.46028,-0.176626 1.21062,-1.441294 1.18977,-2.005319 -0.007,-0.189128 -0.21535,0.06955 -0.46302,0.574832 -0.24767,0.505285 -0.74797,1.069077 -1.11177,1.25287 -0.67615,0.341593 -0.38832,0.474375 0.38502,0.177617 z m 2.26081,-2.254713 c 0,-0.548476 -0.10244,-0.700012 -0.39687,-0.58703 -0.21828,0.08376 -0.39688,0.44504 -0.39688,0.80284 0,0.3578 -0.13522,0.910608 -0.30049,1.228464 -0.2846,0.547368 -0.26362,0.54401 0.39688,-0.06351 0.43402,-0.39921 0.69736,-0.920623 0.69736,-1.380759 z m -1.89752,0.56296 c -0.0588,-0.176318 -0.25965,0.02035 -0.44639,0.437035 -0.31785,0.709211 -0.31102,0.729692 0.10685,0.320579 0.24552,-0.24037 0.39832,-0.581296 0.33954,-0.757614 z m 2.16526,-3.532304 c 0.0745,-0.819916 0.0745,-1.479541 0,-1.465833 -0.0745,0.01371 -0.59636,0.548361 -1.1597,1.18812 -1.0072,1.143829 -1.0168,1.174582 -0.57633,1.846827 0.41157,0.628141 0.49471,0.652705 1.02426,0.302635 0.44322,-0.292997 0.60761,-0.725306 0.71177,-1.871749 z m -18.06096,3.837977 c -1.12779,-1.181363 -2.05053,-2.327832 -2.05053,-2.547708 0,-0.321018 0.38994,-0.399775 1.97934,-0.399775 2.32627,0 2.32813,0.0027 2.20072,3.146137 l -0.079,1.949279 z m 3.51791,0.05072 c -0.0172,-3.043908 -0.0517,-2.998202 2.26508,-2.998202 1.47217,0 1.95607,0.08895 1.95607,0.359581 0,0.197769 -0.94702,1.358628 -2.10448,2.579687 l -2.10448,2.220107 z m -10.52082,-7.468569 -2.43884,-2.614778 0.26299,-2.344406 c 1.65172,-14.724473 5.6256,-24.428507 10.59531,-25.873239 1.32353,-0.384762 1.56911,-0.384732 2.86584,3.53e-4 4.84868,1.439904 8.54452,10.27039 10.4464,24.959603 0.45136,3.48607 0.70181,2.86273 -2.56155,6.375421 -1.75506,1.889149 -2.0918,2.14289 -2.44966,1.845887 -0.3064,-0.254285 -0.39448,-0.731146 -0.33682,-1.823385 l 0.0781,-1.479047 1.65365,-0.07877 c 1.63726,-0.07799 1.65364,-0.08651 1.65364,-0.859896 0,-0.777807 -0.007,-0.781124 -1.57819,-0.781124 -1.84818,0 -2.20622,-0.378462 -2.07455,-2.192921 l 0.0809,-1.114371 1.5376,-0.07983 c 1.4978,-0.07777 1.53548,-0.09832 1.45521,-0.79375 -0.0756,-0.65549 -0.19011,-0.720714 -1.3986,-0.796986 -1.74403,-0.110072 -2.03431,-0.391428 -1.93768,-1.878131 l 0.0789,-1.213799 1.27289,-0.0813 c 1.20948,-0.07725 1.26878,-0.116788 1.19062,-0.79375 -0.0745,-0.645415 -0.20575,-0.724897 -1.39471,-0.844741 -1.28405,-0.129429 -1.31713,-0.154952 -1.52862,-1.179326 -0.29448,-1.426426 -0.11879,-1.731091 0.99826,-1.731091 0.88237,0 0.9458,-0.05316 0.8682,-0.727604 -0.0714,-0.620273 -0.22032,-0.739546 -1.00976,-0.808558 -1.07414,-0.0939 -1.5875,-0.640219 -1.5875,-1.689407 0,-0.649367 0.1002,-0.743181 0.79375,-0.743181 0.50882,0 0.79375,-0.134696 0.79375,-0.375235 0,-0.822956 -0.34395,-1.212265 -1.07103,-1.212265 -0.82832,0 -0.89285,-0.06423 -1.15191,-1.146486 -0.14715,-0.614714 -0.0823,-0.775012 0.36029,-0.890755 0.73435,-0.192037 0.67898,-0.510333 -0.23504,-1.351111 -0.42613,-0.391979 -0.85007,-1.017443 -0.94209,-1.389919 -0.092,-0.372476 -0.45916,-1.02732 -0.81587,-1.455208 l -0.64856,-0.777979 0.16961,1.653646 0.16962,1.653646 h -0.82793 -0.82793 v -1.565861 c 0,-1.779351 -0.17164,-2.402889 -0.66145,-2.402889 -0.48982,0 -0.66146,0.623538 -0.66146,2.402889 0,1.563456 -0.001,1.565861 -0.79375,1.565861 -0.88566,0 -0.9752,-0.354904 -0.55072,-2.182813 0.12672,-0.545703 0.14464,-0.992187 0.0398,-0.992187 -0.40791,0 -1.30937,1.234916 -1.52922,2.094878 -0.1768,0.691556 -0.86835,1.476997 -1.30044,1.476997 -0.0183,0 -0.11094,0.253131 -0.20586,0.562513 -0.1312,0.42766 -0.0414,0.596816 0.37457,0.705597 0.45043,0.117788 0.51543,0.275603 0.36772,0.892695 -0.25864,1.080481 -0.32414,1.146486 -1.13776,1.146486 -0.5198,0 -0.82057,0.186347 -1.02502,0.635061 -0.35066,0.769629 -0.2014,0.952439 0.77768,0.952439 0.65189,0 0.74965,0.100692 0.74965,0.772111 0,1.332207 -0.23367,1.609139 -1.35777,1.609139 -0.86924,0 -1.07823,0.109558 -1.29461,0.678683 -0.35618,0.936825 -0.3811,0.908817 0.80861,0.908817 1.24027,0 1.41443,0.270884 1.11297,1.731091 -0.21148,1.024374 -0.24457,1.049897 -1.52862,1.179326 -1.18896,0.119844 -1.32019,0.199326 -1.39471,0.844741 -0.0782,0.676962 -0.0188,0.716499 1.19063,0.79375 1.26033,0.0805 1.27368,0.09097 1.35433,1.062286 0.13573,1.63473 -0.26664,2.061722 -1.94284,2.061722 -1.42473,0 -1.4459,0.01143 -1.4459,0.780547 0,0.764641 0.031,0.782163 1.52135,0.859896 l 1.52136,0.07935 0.0809,1.114371 c 0.13167,1.814459 -0.22636,2.192921 -2.07455,2.192921 -1.57715,0 -1.57819,5.2e-4 -1.57819,0.79375 0,0.774351 0.0318,0.79375 1.30128,0.79375 1.98844,0 2.1383,0.118811 2.1383,1.695182 0,1.201736 -0.31539,2.012834 -0.78052,2.007231 -0.08,-9.64e-4 -1.24299,-1.178403 -2.58436,-2.616531 z m 5.12877,2.441895 c -0.30472,-0.304722 -0.19163,-2.877535 0.14111,-3.210277 0.17463,-0.174625 0.98425,-0.3175 1.79917,-0.3175 0.81492,0 1.62454,0.142875 1.79917,0.3175 0.17462,0.174625 0.3175,0.865187 0.3175,1.534583 0,0.669396 -0.14288,1.359958 -0.3175,1.534583 -0.33253,0.332533 -3.4311,0.44946 -3.73945,0.141111 z m 5.54466,-0.23119 c -0.28,-0.72968 -0.18185,-2.644532 0.1527,-2.979087 0.45494,-0.454936 3.24471,-0.410483 3.63343,0.0579 0.17947,0.21625 0.27733,0.973384 0.23083,1.785937 l -0.0807,1.41054 -1.88573,0.07708 c -1.5426,0.06305 -1.91571,-0.0011 -2.05052,-0.352369 z m -5.3483,-5.248434 c -0.0769,-0.200391 -0.10293,-0.944532 -0.0578,-1.653646 l 0.082,-1.289299 1.6957,-0.07986 c 1.17756,-0.05546 1.76246,0.02539 1.91418,0.264584 0.33124,0.522224 0.26891,2.44524 -0.0909,2.805071 -0.45601,0.456012 -3.36488,0.417551 -3.54309,-0.04685 z m 5.47472,-4.36e-4 c -0.18482,-0.222698 -0.28719,-0.931766 -0.24041,-1.665182 l 0.0815,-1.277327 h 1.85208 1.85208 v 1.5875 1.5875 l -1.61167,0.07768 c -1.16774,0.05628 -1.70034,-0.02915 -1.93357,-0.310173 z m -15.55776,-1.85716 c -0.11637,-0.203423 -2.20951,-2.525141 -4.65142,-5.159375 -2.87611,-3.102631 -4.27392,-4.78928 -3.96875,-4.788848 1.3351,0.0019 9.20809,2.60785 10.10277,3.344016 0.18661,0.153544 -0.85952,6.974066 -1.06968,6.974066 -0.11073,0 -0.29654,-0.166436 -0.41292,-0.369859 z m 28.11621,-2.999348 c -0.54208,-3.898016 -0.72445,-3.53017 2.3937,-4.828257 2.11829,-0.881847 6.83708,-2.213568 7.2985,-2.05976 0.23843,0.07948 -8.32347,9.677078 -9.01294,10.103191 -0.11757,0.07267 -0.42324,-1.374162 -0.67926,-3.215174 z m -17.76945,-0.172398 c -0.0774,-0.201633 -0.10341,-0.886243 -0.0578,-1.521354 l 0.0828,-1.154749 h 1.71979 1.7198 l 0.0823,1.144033 c 0.0453,0.629219 -0.0586,1.313828 -0.23083,1.521355 -0.42497,0.512054 -3.12034,0.520763 -3.31606,0.01071 z m 5.21051,0.0012 c -0.17905,-0.215733 -0.28637,-0.899261 -0.24075,-1.533296 l 0.0823,-1.144033 h 1.71979 1.71979 v 1.455209 1.455208 l -1.47905,0.07809 c -1.05465,0.05568 -1.57174,-0.03361 -1.8021,-0.311175 z m -4.87684,-4.573509 c -0.24909,-0.249091 -0.21199,-2.003661 0.0512,-2.418551 0.14805,-0.23345 0.68459,-0.319507 1.64959,-0.264584 l 1.43017,0.0814 0.0833,1.164402 c 0.0538,0.752458 -0.0398,1.24245 -0.26459,1.385011 -0.41519,0.263288 -2.69816,0.303785 -2.94963,0.05232 z m 4.69247,-0.192662 c -0.0779,-0.202978 -0.10392,-0.828057 -0.0578,-1.389063 l 0.0838,-1.020011 h 1.4552 1.45521 l 0.08,1.389062 0.08,1.389063 h -1.47734 c -1.01961,0 -1.52122,-0.114344 -1.61896,-0.369051 z m -4.1511,-4.293057 c -0.23067,-0.230672 -0.24622,-1.229838 -0.028,-1.798544 0.11652,-0.303644 0.52011,-0.418515 1.47042,-0.418515 h 1.30982 l -0.0813,1.124479 -0.0814,1.12448 -1.20048,0.07834 c -0.66026,0.04309 -1.28534,-0.0065 -1.38906,-0.110243 z m 4.22113,-0.0122 c -0.097,-0.09701 -0.17639,-0.639017 -0.17639,-1.204452 v -1.028063 l 1.38659,0.07997 c 1.49277,0.0861 1.73829,0.380111 1.40993,1.6884 -0.139,0.553832 -0.31527,0.640531 -1.30225,0.640531 -0.62782,0 -1.22086,-0.07937 -1.31788,-0.176389 z m -3.77892,-4.173729 c -0.0873,-0.227461 -0.0841,-0.710955 0.007,-1.074432 0.14265,-0.568386 0.31549,-0.660866 1.23513,-0.660866 h 1.06926 l -0.0821,0.992187 c -0.0777,0.938729 -0.13569,0.996619 -1.07643,1.074432 -0.71214,0.0589 -1.03935,-0.03512 -1.15301,-0.331321 z m 3.77892,0.204979 c -0.097,-0.09701 -0.17639,-0.573263 -0.17639,-1.058333 0,-0.851843 0.0359,-0.881944 1.0533,-0.881944 0.9026,0 1.07702,0.09455 1.21916,0.660866 0.25987,1.035429 -0.0374,1.4558 -1.02943,1.4558 -0.48964,0 -0.96962,-0.07937 -1.06664,-0.176389 z"
       id="path969" /><path
       style="fill:#e0a525;fill-opacity:1;stroke-width:0.20369"
       d="m -506.33268,-171.82534 c -1.33207,-0.23521 -2.19518,-0.66676 -2.50999,-1.25498 -0.17514,-0.32725 -0.20874,-1.8189 -0.12423,-5.51513 0.0637,-2.78661 0.15579,-5.1065 0.2046,-5.15532 0.19173,-0.19172 8.30192,-0.5247 10.06979,-0.41344 3.7401,0.23539 4.02735,0.63673 4.0293,5.62966 0.002,6.29734 -0.43731,6.72538 -7.02599,6.83851 -1.96052,0.0337 -4.05009,-0.0245 -4.64348,-0.1293 z"
       id="path971"
       transform="scale(0.26458333)" /><path
       style="fill:#e0a525;fill-opacity:1;stroke-width:0.20369"
       d="m -522.56746,-154.75549 c -2.43759,-2.48475 -7.99865,-8.39423 -15.00894,-15.94928 l -0.57842,-0.62338 0.61546,-5.48733 c 2.11183,-18.82881 4.52131,-33.04702 7.84637,-46.30106 7.11435,-28.35856 16.93855,-46.56459 28.62674,-53.05053 1.66071,-0.92155 5.17309,-2.0863 7.50479,-2.48868 1.56331,-0.26979 1.95983,-0.2699 3.48887,-9.8e-4 3.62113,0.63687 6.74944,1.87958 9.78112,3.88552 2.01596,1.33388 6.48763,5.79791 8.39748,8.38313 10.12482,13.70522 18.03471,38.01149 23.2538,71.45646 1.55326,9.95364 2.42412,16.96855 2.44017,19.65612 0.0159,2.66787 -0.002,2.78927 -0.61304,4.0738 -0.84341,1.77401 -2.26529,3.50701 -7.43638,9.06351 -8.83313,9.49147 -9.95434,10.44251 -11.39931,9.66919 -0.57553,-0.30802 -1.18336,-1.63503 -1.33332,-2.91089 -0.14922,-1.26971 0.0976,-8.93161 0.29822,-9.25618 0.0785,-0.12694 2.03123,-0.31061 4.81647,-0.45299 7.45494,-0.38112 7.63802,-0.45924 7.63802,-3.25907 0,-1.93486 -0.21827,-2.58633 -0.96388,-2.8769 -0.31009,-0.12084 -2.48867,-0.29265 -4.8413,-0.38178 -4.74232,-0.17968 -5.63554,-0.37528 -6.78019,-1.48472 -1.13169,-1.09687 -1.34789,-2.27917 -1.18958,-6.50547 0.0743,-1.98472 0.18638,-3.74202 0.24896,-3.90513 0.1235,-0.32183 0.62477,-0.3785 6.39683,-0.72318 3.75858,-0.22445 4.62224,-0.43237 4.907,-1.18137 0.20577,-0.54121 0.0779,-2.16773 -0.25678,-3.265 -0.34557,-1.13312 -0.84973,-1.27613 -6.58528,-1.86801 -3.26047,-0.33647 -4.45878,-0.84751 -5.28494,-2.25387 -0.37466,-0.63778 -0.41636,-1.03156 -0.39894,-3.76758 0.0107,-1.68044 0.0839,-3.56518 0.16264,-4.18831 l 0.1432,-1.13295 3.70747,-0.23914 c 5.69743,-0.3675 5.89472,-0.48321 5.49963,-3.22565 -0.35459,-2.46133 -0.66648,-2.64334 -5.54977,-3.23875 -3.53222,-0.43067 -4.21892,-0.70122 -4.73371,-1.865 -0.47255,-1.06826 -1.18397,-4.6026 -1.18397,-5.88192 0,-0.50376 0.12816,-1.22265 0.2848,-1.59753 0.38584,-0.92347 1.46061,-1.28234 4.28243,-1.42995 2.95479,-0.15456 3.05408,-0.24011 2.91416,-2.51081 -0.16143,-2.6198 -0.64309,-3.0711 -3.71312,-3.47906 -2.99964,-0.39861 -4.31788,-1.12766 -5.30653,-2.93481 -0.50212,-0.9178 -0.59693,-1.34612 -0.66564,-3.00686 -0.1111,-2.68575 0.0386,-2.8601 2.62813,-3.06129 2.99607,-0.23278 3.42156,-0.58672 3.17795,-2.64359 -0.29229,-2.46798 -1.39954,-3.34967 -4.48689,-3.57285 -1.56751,-0.11331 -1.87748,-0.20034 -2.3881,-0.6705 -0.94642,-0.8714 -1.9389,-4.85896 -1.49638,-6.01214 0.0657,-0.1711 0.75445,-0.55376 1.53065,-0.85037 2.50635,-0.95773 2.42316,-1.7061 -0.53024,-4.76998 -2.27856,-2.3638 -3.39611,-3.93813 -3.96099,-5.57998 -0.79906,-2.32251 -1.90226,-4.13579 -4.16709,-6.84924 -1.01303,-1.2137 -1.46116,-1.6225 -1.50859,-1.37621 -0.0633,0.32869 0.86406,10.0636 1.09598,11.50501 l 0.10651,0.66199 h -3.04205 -3.04205 l -0.1008,-5.85609 c -0.10164,-5.90475 -0.25187,-7.18829 -0.97734,-8.34994 -0.62352,-0.99843 -2.3486,-1.08361 -2.96276,-0.14629 -0.74477,1.13666 -0.9247,2.38923 -1.09616,7.63054 -0.0935,2.85676 -0.26759,5.44782 -0.38697,5.75791 -0.29229,0.7592 -1.07378,1.02104 -2.71311,0.90901 -1.53139,-0.10465 -2.30705,-0.49676 -2.63234,-1.3307 -0.27886,-0.7149 -0.0919,-2.73802 0.51837,-5.60844 0.88042,-4.14129 0.8967,-5.02372 0.0927,-5.02372 -0.64061,0 -2.61427,2.04417 -3.79984,3.9356 -0.59338,0.94667 -1.3856,2.59069 -1.76047,3.65339 -1.04142,2.95221 -2.31582,4.69182 -4.06351,5.54688 -1.05533,0.51633 -1.08505,0.55556 -1.55428,2.05176 -0.59491,1.89693 -0.45724,2.47249 0.71795,3.00168 2.26764,1.02111 2.30543,1.07694 1.9852,2.93306 -0.35425,2.05325 -0.98131,3.77266 -1.55681,4.26879 -0.40559,0.34964 -0.87472,0.46429 -2.30262,0.56271 -2.51712,0.1735 -3.41148,0.66278 -4.28845,2.34612 -0.45334,0.87018 -0.662,1.55251 -0.662,2.16481 0,1.28091 0.44953,1.51549 3.25947,1.70092 2.89852,0.19127 2.93016,0.22008 3.02294,2.7525 0.11758,3.20943 -0.53983,5.08137 -1.98685,5.65744 -0.29001,0.11546 -1.68726,0.28404 -3.105,0.37462 -3.60892,0.23058 -4.05644,0.50741 -5.06831,3.13519 -0.66763,1.73382 -0.74445,2.39269 -0.32002,2.74493 0.16578,0.13759 1.59638,0.30301 3.447,0.39859 3.52272,0.18192 3.98042,0.33931 4.56758,1.57058 0.29731,0.62347 0.30923,0.93469 0.0991,2.58708 -0.32699,2.57145 -0.93647,4.77144 -1.48304,5.35323 -0.61787,0.6577 -1.27468,0.84059 -4.36793,1.21628 -3.35511,0.4075 -4.23802,0.6318 -4.78698,1.21614 -0.49967,0.53188 -0.8025,1.62241 -0.80965,2.9157 -0.01,1.77034 0.3693,1.95513 4.68002,2.28143 4.69491,0.35538 4.90972,0.58014 4.96098,5.1908 0.0427,3.83866 -0.48438,4.98341 -2.67792,5.81642 -0.97471,0.37016 -1.78868,0.4649 -5.03288,0.58583 -3.86047,0.14391 -4.61451,0.28986 -4.8646,0.9416 -0.20236,0.52733 -0.14455,3.95273 0.0736,4.36031 0.3265,0.61007 1.35044,0.82751 4.89287,1.03905 1.84849,0.11038 4.0148,0.2512 4.81403,0.31292 l 1.45315,0.11223 0.11907,0.74867 c 0.0655,0.41177 0.18085,2.1239 0.25636,3.80473 0.16811,3.74267 -0.11346,5.06192 -1.32675,6.21621 -1.13234,1.07729 -1.87617,1.23276 -6.75905,1.4128 -4.46001,0.16444 -5.08253,0.28018 -5.47762,1.0184 -0.27046,0.50537 -0.27046,3.78958 0,4.29494 0.40048,0.74829 1.0093,0.85938 5.48291,1.00037 6.33131,0.19955 6.82887,0.48989 7.17201,4.18501 0.19473,2.09699 -0.0593,5.37058 -0.54158,6.97927 -0.37322,1.2449 -1.37456,2.49091 -2.00551,2.49554 -0.29706,0.002 -1.41658,-0.99512 -3.49256,-3.11127 z"
       id="path972"
       transform="scale(0.26458333)" /><path
       style="fill:#e0a525;fill-opacity:1;stroke-width:0.20369"
       d="m -505.55932,-190.8335 c -1.35914,-0.29975 -1.9541,-0.60929 -2.25625,-1.17386 -0.28804,-0.5382 -0.34244,-3.96966 -0.1166,-7.35452 l 0.17328,-2.59705 h 6.3726 6.37261 l 0.11705,0.86568 c 0.28778,2.12843 0.35754,5.4331 0.14243,6.74736 -0.41105,2.5115 -0.89575,2.98201 -3.6061,3.50059 -1.82934,0.35001 -5.63724,0.35625 -7.19902,0.0118 z"
       id="path973"
       transform="scale(0.26458333)" /><path
       style="fill:#e0a525;fill-opacity:1;stroke-width:0.20369"
       d="m -486.38742,-190.96008 c -2.19805,-0.51896 -2.8154,-2.28547 -2.58424,-7.39471 0.075,-1.65868 0.18725,-3.14817 0.24933,-3.30996 0.095,-0.24766 1.10796,-0.29418 6.4055,-0.29418 h 6.2926 v 5.4682 5.46821 l -2.59705,0.13245 c -3.32897,0.16978 -6.88633,0.13772 -7.76614,-0.07 z"
       id="path974"
       transform="scale(0.26458333)" /><path
       style="fill:#e0a525;fill-opacity:1;stroke-width:0.20369"
       d="m -485.69952,-208.68369 c -1.87106,-0.19861 -2.89481,-0.63694 -3.18127,-1.36208 -0.23418,-0.59279 -0.12258,-8.21368 0.12617,-8.61617 0.0785,-0.12696 2.14786,-0.20329 5.51141,-0.20329 h 5.38577 l 0.0129,1.06938 c 0.007,0.58815 0.12286,2.9255 0.25725,5.1941 l 0.24433,4.12473 -3.46537,-0.0277 c -1.90596,-0.0152 -4.107,-0.0958 -4.89121,-0.17901 z"
       id="path975"
       transform="scale(0.26458333)" /><path
       style="fill:#e0a525;fill-opacity:1;stroke-width:0.20369"
       d="m -486.31059,-225.67924 c -0.11203,-0.0437 -0.64657,-0.13919 -1.18787,-0.21226 -1.41399,-0.19086 -1.58364,-0.69451 -1.71691,-5.097 l -0.10494,-3.46644 0.89379,0.0498 c 7.02316,0.39127 8.56383,0.67442 9.45912,1.73841 0.52668,0.62592 0.54566,0.72785 0.44498,2.39001 -0.12484,2.06103 -0.64599,3.56905 -1.43739,4.15927 -0.51021,0.38052 -0.88727,0.43359 -3.36089,0.47311 -1.53241,0.0245 -2.87786,0.009 -2.98989,-0.0349 z"
       id="path976"
       transform="scale(0.26458333)" /><path
       style="fill:#e0a525;fill-opacity:1;stroke-width:0.20369"
       d="m -504.03871,-225.96915 c -0.89714,-0.39689 -1.01138,-0.77721 -1.01138,-3.36684 0,-2.97005 0.31726,-3.84581 1.62952,-4.49807 0.71396,-0.35488 1.32505,-0.41417 4.93949,-0.47922 l 4.12473,-0.0742 -0.004,0.47921 c -0.0102,1.11334 -0.58752,7.75894 -0.68234,7.85375 -0.19132,0.19132 -8.57629,0.27092 -8.99565,0.0854 z"
       id="path977"
       transform="scale(0.26458333)" /><path
       style="fill:#e0a525;fill-opacity:1;stroke-width:0.20369"
       d="m -486.25778,-240.67943 c -0.88829,-0.0761 -1.79418,-0.27751 -2.07477,-0.46136 -0.61695,-0.40425 -0.8297,-1.49386 -0.8297,-4.24944 0,-2.66305 0.15157,-2.82416 2.78293,-2.95815 2.4768,-0.12612 4.19921,0.18388 4.79505,0.863 0.53735,0.61247 0.84266,1.60444 1.00846,3.2766 0.28408,2.86492 -1.37889,3.89787 -5.68197,3.52935 z"
       id="path978"
       transform="scale(0.26458333)" /><path
       style="fill:#e0a525;fill-opacity:1;stroke-width:0.20369"
       d="m -501.63722,-240.87368 c -0.88327,-0.27381 -1.28944,-0.9551 -1.4186,-2.37949 -0.13283,-1.46492 0.38484,-3.6403 1.01783,-4.27714 0.61276,-0.61648 2.12271,-0.87001 5.1816,-0.87001 h 2.53661 l -0.13839,1.78229 c -0.34518,4.44577 -0.59496,5.18102 -1.88224,5.54052 -1.11429,0.31118 -4.52686,0.44251 -5.29681,0.20383 z"
       id="path979"
       transform="scale(0.26458333)" /><path
       style="fill:#e0a525;fill-opacity:1;stroke-width:0.20369"
       d="m -505.67894,-208.86097 c -0.97083,-0.25027 -1.05813,-0.35655 -1.31885,-1.60558 -0.29256,-1.40155 -0.13822,-5.43145 0.25849,-6.74964 0.56204,-1.86751 1.99565,-2.21372 7.74698,-1.87087 2.14486,0.12786 3.94132,0.27405 3.99213,0.32486 0.0508,0.0508 0.18342,1.4055 0.29468,3.01042 0.32879,4.74252 -0.0408,6.17441 -1.71731,6.65264 -1.03213,0.29442 -8.31135,0.48173 -9.25612,0.23817 z"
       id="path980"
       transform="scale(0.26458333)" /><path
       style="fill:#e0a525;fill-opacity:1;stroke-width:0.20369"
       d="m -485.22195,-171.8139 c -1.69413,-0.2064 -2.7486,-0.69578 -3.14312,-1.4587 -0.57601,-1.11388 -0.77081,-3.51997 -0.57442,-7.09516 l 0.18462,-3.36089 6.87455,-0.0536 6.87455,-0.0536 v 5.88886 5.88886 l -2.80075,0.12648 c -1.5404,0.0696 -3.53402,0.16169 -4.43026,0.20473 -0.89624,0.043 -2.23957,0.004 -2.98517,-0.0869 z"
       id="path981"
       transform="scale(0.26458333)" /><path
       style="fill:#e0a525;fill-opacity:1;stroke-width:0.20369"
       d="m -486.80126,-151.85431 c -1.18768,-0.25168 -1.76412,-0.83301 -2.08812,-2.10583 -0.34825,-1.36807 -0.34609,-6.15031 0.004,-7.89958 0.59809,-2.99222 1.34431,-3.33453 7.26011,-3.33043 5.74498,0.004 7.12263,0.47353 7.67408,2.61557 0.2842,1.10393 0.342,7.83468 0.0822,9.5674 l -0.13463,0.89779 -1.87575,0.12524 c -3.62384,0.24196 -10.03278,0.31816 -10.92141,0.12984 z"
       id="path982"
       transform="scale(0.26458333)" /><path
       style="fill:#e0a525;fill-opacity:1;stroke-width:0.20369"
       d="m -506.91714,-151.65678 c -3.12914,-0.20964 -3.23521,-0.39452 -3.2084,-5.59213 0.018,-3.48894 0.41661,-6.03895 1.0648,-6.81172 1.1225,-1.33825 9.73678,-1.67 12.68919,-0.48868 1.09161,0.43678 1.53893,1.59897 1.90828,4.95796 0.15129,1.37588 -0.17507,4.40591 -0.61827,5.74027 -0.50127,1.5092 -1.75569,1.94518 -6.09844,2.11958 -1.34435,0.054 -2.76509,0.12102 -3.1572,0.14898 -0.3921,0.028 -1.55308,-0.005 -2.57996,-0.0743 z"
       id="path983"
       transform="scale(0.26458333)" /><path
       style="fill:#e0a525;fill-opacity:1;stroke-width:0.20369"
       d="m -499.44861,-130.20159 c -6.31341,-6.62163 -9.91504,-10.81473 -10.62206,-12.36648 -0.37296,-0.81855 0.22592,-1.30146 1.94614,-1.56927 1.87995,-0.29268 10.61054,-0.13582 11.42574,0.20528 0.98908,0.41386 1.51911,1.05327 1.8701,2.25603 0.28846,0.98848 0.31147,1.97013 0.18403,7.8515 -0.0801,3.69698 -0.20843,7.058 -0.28514,7.46893 l -0.13947,0.74714 z"
       id="path984"
       transform="scale(0.26458333)" /><path
       style="fill:#e0a525;fill-opacity:1;stroke-width:0.20369"
       d="m -489.16808,-128.76494 c -0.084,-1.88654 -0.0995,-5.35494 -0.0344,-7.70756 0.21613,-7.81915 0.36793,-7.94809 9.18454,-7.80132 3.91995,0.0653 5.0594,0.14737 5.64932,0.40709 0.40644,0.17894 0.7998,0.42377 0.87415,0.54407 0.38699,0.62617 -3.32583,5.08608 -10.87455,13.06271 -2.38544,2.52067 -4.40674,4.65999 -4.49177,4.75405 -0.085,0.0941 -0.2233,-1.37251 -0.30726,-3.25904 z"
       id="path985"
       transform="scale(0.26458333)" /><path
       style="fill:#13304e;fill-opacity:1;stroke-width:0.20369"
       d="m -468.96731,-45.473859 c -0.0643,-0.420111 -0.172,-3.83447 -0.23945,-7.587464 l -0.12263,-6.823625 4.61275,-3.97196 c 2.537,-2.184579 4.65966,-4.045548 4.71701,-4.135486 0.0574,-0.08994 -0.68253,-0.979707 -1.64417,-1.977264 -1.77458,-1.840839 -2.72998,-3.351651 -2.49944,-3.952435 0.0699,-0.182205 0.39874,-0.385604 0.73071,-0.451999 0.98103,-0.196207 1.34218,-1.191189 1.32095,-3.639292 -0.0163,-1.87543 -0.085,-2.21392 -0.86701,-4.26988 -0.46715,-1.228137 -0.92103,-2.304656 -1.00864,-2.392263 -0.0876,-0.08761 -1.11763,1.234479 -2.28895,2.937967 -2.36822,3.44421 -4.20633,5.862924 -4.45553,5.862924 -0.24254,0 -4.09037,-14.102773 -4.09037,-14.991683 0,-0.13822 1.7041,-2.22861 3.78691,-4.645314 l 3.7869,-4.394005 -1.86501,-1.988212 c -1.02575,-1.09351 -2.0973,-2.37835 -2.3812,-2.85521 l -0.5162,-0.867 0.61081,-0.57058 c 0.76776,-0.71719 1.05639,-1.7436 1.05784,-3.76174 10e-4,-1.80774 -0.38262,-2.99789 -0.96705,-2.99789 -0.78192,0 -2.49912,1.3795 -5.88229,4.7255 l -3.48959,3.45125 -3.1741,-5.07148 c -1.74575,-2.78931 -3.22935,-5.21547 -3.29689,-5.39145 -0.19525,-0.50882 4.8276,-6.04124 28.71508,-31.62825 15.90108,-17.0324 34.36176,-36.71323 42.68497,-45.50623 3.86503,-4.08318 7.61932,-8.06064 8.34287,-8.83881 0.72356,-0.77817 1.34556,-1.32484 1.38223,-1.21483 0.0367,0.11002 -2.22067,7.11052 -5.01632,15.55668 -7.3053,22.07065 -8.2659,25.55441 -9.99122,36.23491 -1.21101,7.4967 -2.0023,14.60267 -3.9807,35.74765 -2.91585,31.164308 -3.64166,37.909681 -4.13947,38.470162 -1.77237,1.995529 -38.84032,31.701148 -39.55805,31.701148 -0.0869,0 -0.2105,-0.343728 -0.27475,-0.763839 z m 11.64589,-24.529496 c 1.4669,-0.995271 6.68476,-4.97294 8.34458,-6.361213 0.81635,-0.68279 1.72274,-1.585501 2.01421,-2.006024 0.46658,-0.673178 0.51706,-0.906666 0.42219,-1.952954 -0.11533,-1.271809 -0.59475,-2.424607 -1.08688,-2.613454 -0.16616,-0.06376 -0.82591,0.118926 -1.4661,0.405979 -1.42412,0.638557 -2.47707,0.881912 -5.06393,1.170364 -3.46809,0.386716 -3.66119,0.57927 -4.42391,4.411481 -0.26281,1.320429 -0.6746,2.812745 -0.9151,3.31626 l -0.43727,0.91548 0.11137,-1.731368 c 0.0613,-0.952252 0.16594,-2.407819 0.23264,-3.234592 0.14734,-1.826289 -0.13519,-1.89282 -1.03038,-0.242631 -0.87927,1.620828 -0.94846,3.186973 -0.22142,5.011243 0.80853,2.028705 1.82442,3.558238 2.36333,3.558238 0.11185,0 0.63235,-0.291064 1.15667,-0.646809 z m 14.00985,-10.935932 c 1.19405,-0.876995 1.63538,-1.433086 2.28839,-2.883424 1.1107,-2.466897 2.16444,-8.760165 1.6801,-10.034089 -0.19418,-0.510733 -0.29824,-0.553653 -1.34238,-0.553653 -1.35192,0 -2.39313,0.394181 -2.83911,1.074837 -0.17939,0.273786 -0.42221,1.037643 -0.5396,1.697459 -0.62746,3.52683 -0.88731,4.55047 -1.426,5.617608 -0.67023,1.327724 -0.75343,2.414235 -0.30019,3.920247 0.32905,1.09333 0.8289,1.744479 1.33914,1.744479 0.18988,0 0.70273,-0.262558 1.13965,-0.583464 z m -13.413,-1.763455 c 0.25207,-0.290104 0.4583,-0.747189 0.4583,-1.015745 0,-0.833079 0.42537,-1.497484 1.04599,-1.633795 0.75375,-0.165552 2.68437,-1.598321 3.80991,-2.827438 1.72656,-1.885457 2.35402,-4.27939 2.04972,-7.820293 -0.17345,-2.018376 -0.3197,-2.484246 -0.77986,-2.484246 -0.78478,0 -4.73433,3.859713 -9.50828,9.292017 -2.85607,3.24994 -3.01698,3.714845 -1.80034,5.201646 1.54056,1.882652 3.697,2.47047 4.72456,1.287854 z m 6.6902,-0.477992 c 0.66154,-0.433404 1.49477,-1.097944 1.85163,-1.476755 2.0311,-2.156041 3.4819,-6.26005 2.62393,-7.422517 -0.43184,-0.58509 -0.68475,-0.193628 -0.9121,1.411786 -0.25715,1.815801 -1.01741,3.067187 -3.43004,5.645836 -2.4903,2.66167 -2.54537,3.421828 -0.13342,1.84165 z m -1.71689,-1.978947 c 1.38236,-0.700495 2.82079,-2.075425 3.52511,-3.36949 0.66733,-1.226105 0.93961,-3.458129 0.51797,-4.245981 -0.32323,-0.603962 -0.6066,-0.217881 -0.61105,0.832537 -0.005,1.263823 -1.26923,3.444462 -3.06991,5.296687 -2.07856,2.138046 -2.13915,2.386733 -0.36212,1.486247 z m 9.1865,-10.590056 c 2.17654,-0.74162 3.24866,-2.326848 3.9016,-5.768853 0.68348,-3.60301 1.1851,-10.81661 0.75217,-10.81661 -0.45798,0 -7.353,7.7493 -8.82713,9.92079 -0.41701,0.61428 -0.81921,1.44206 -0.89377,1.8395 -0.28341,1.510677 1.01686,4.121437 2.3894,4.797593 0.86602,0.42663 1.48779,0.433034 2.67773,0.02758 z m -22.54467,-6.891153 c 1.3939,-0.93871 4.88949,-4.11842 7.03605,-6.40022 2.76702,-2.94136 3.95785,-4.94008 3.13208,-5.25696 -0.38898,-0.14926 -4.29797,0.36541 -7.19053,0.94674 -3.49736,0.70287 -4.00401,1.22098 -4.44332,4.54381 -0.28666,2.16818 -0.38129,6.49067 -0.14722,6.72473 0.2517,0.2517 0.57822,0.13872 1.61294,-0.5581 z m -2.95078,-3.45537 c 0.71877,-1.51933 0.7729,-2.69367 0.16009,-3.47274 -0.27599,-0.35087 -0.58718,-0.52549 -0.86568,-0.48577 -0.41242,0.0588 -0.43777,0.18724 -0.49253,2.49443 -0.0821,3.46149 0.13034,3.72114 1.19812,1.46408 z m 2.77183,-7.73755 c 0.13518,-0.12802 0.50205,-0.87099 0.81525,-1.65105 0.5824,-1.45056 0.74783,-1.60795 2.28272,-2.1718 0.87623,-0.32188 2.56286,-2.03166 3.43131,-3.4784 1.16808,-1.94588 1.47491,-3.13733 1.46996,-5.70798 l -0.004,-2.29661 -5.16492,5.19892 c -2.84071,2.8594 -5.45104,5.65008 -5.80075,6.20151 -0.83914,1.32318 -0.83343,2.10943 0.0224,3.08415 1.04716,1.19265 2.21327,1.51745 2.94848,0.82126 z m 7.73915,-1.4262 c 1.39775,-1.02896 2.47653,-2.41362 3.30643,-4.24391 0.93037,-2.05188 1.20832,-4.38634 0.56928,-4.78129 -0.35217,-0.21766 -0.75953,0.57156 -0.75953,1.47152 0,1.24491 -1.16031,3.40046 -2.79679,5.19575 -1.53282,1.68156 -2.29547,2.68582 -2.29547,3.02267 0,0.465 0.81289,0.19155 1.97608,-0.66474 z m 4.75674,-0.70681 c 1.96674,-1.25156 8.55241,-7.68435 10.11424,-9.87945 0.46366,-0.65165 0.5036,-0.805 0.25382,-0.97444 -0.57936,-0.39299 -7.04992,0.4959 -8.45159,1.16103 -0.92506,0.43897 -1.43061,1.51666 -1.91319,4.07843 -0.23441,1.24434 -0.65434,2.93321 -0.93318,3.75302 -0.56358,1.657 -0.64086,2.43768 -0.24132,2.43768 0.14611,0 0.67316,-0.25932 1.17122,-0.57627 z m -6.95158,-0.73993 c 0.90666,-0.46885 2.93722,-2.81894 3.65128,-4.22585 0.77964,-1.53613 1.0505,-2.80926 0.59766,-2.80926 -0.41096,0 -0.74664,0.42798 -1.91085,2.43625 -0.54947,0.94784 -1.57191,2.30153 -2.2721,3.00821 -1.63939,1.65459 -1.67118,2.42073 -0.066,1.59065 z m 8.23706,-10.30893 c 0.35555,-0.27969 0.53669,-0.61814 0.53669,-1.00283 0,-0.81607 0.81589,-1.69553 2.50265,-2.69761 1.70867,-1.0151 3.39192,-2.59913 3.97365,-3.73941 0.93953,-1.84162 1.49098,-5.42336 1.07265,-6.96695 -0.39342,-1.4517 -0.98062,-1.39217 -2.84845,0.28878 -2.39016,2.15104 -8.10036,8.76246 -8.8947,10.29855 -0.45353,0.87704 -0.2178,1.85083 0.69205,2.85881 0.68956,0.76393 1.63607,1.355 2.20162,1.37485 0.12493,0.004 0.46865,-0.182 0.76384,-0.41419 z m 7.00914,-0.74264 c 0.88593,-0.27927 1.32859,-0.59109 2.18925,-1.54214 1.36608,-1.50957 2.76624,-4.22507 2.90085,-5.62595 0.16065,-1.6719 -0.35201,-1.33642 -1.68385,1.10188 -0.42835,0.78421 -1.17568,1.93476 -1.66074,2.55679 -0.83526,1.0711 -1.21666,1.40239 -3.27847,2.84777 -0.47613,0.33377 -0.86568,0.69795 -0.86568,0.80928 0,0.3121 1.1683,0.2402 2.39864,-0.14763 z m 6.48834,-3.46034 c 1.83454,-1.79138 2.59075,-3.2695 2.68792,-5.25384 0.0882,-1.80179 -0.17182,-2.54613 -0.88951,-2.54613 -1.26722,0 -1.99778,1.10715 -2.21771,3.36089 -0.16978,1.73979 -0.60183,3.33021 -1.25464,4.61849 -1.03227,2.03707 -0.54214,1.98453 1.67394,-0.17941 z m -6.02115,0.005 c 0.97733,-0.88297 1.61535,-2.03728 1.61535,-2.92253 0,-0.54031 -0.0673,-0.62379 -0.4583,-0.56827 -0.6806,0.0967 -2.72141,4.24074 -2.08841,4.24074 0.0557,0 0.4748,-0.33747 0.93136,-0.74994 z m 6.74287,-9.20946 c 2.25166,-1.42796 2.92016,-3.49032 3.15962,-9.74763 0.104,-2.71755 0.0771,-3.30997 -0.15043,-3.30997 -0.4814,0 -5.90377,5.87268 -7.13194,7.72423 -0.79381,1.19672 -0.76063,1.88667 0.16645,3.46177 1.53814,2.61328 2.25331,2.95161 3.9563,1.8716 z"
       id="path986"
       transform="scale(0.26458333)" /><path
       style="fill:#13304e;fill-opacity:1;stroke-width:0.20369"
       d="m -507.24993,-26.836197 c -0.11972,-7.107551 -0.34615,-10.390588 -0.77146,-11.185272 -0.36405,-0.680248 -10.86781,-9.319717 -32.8782,-27.042724 -7.28192,-5.86349 -13.44584,-10.856768 -13.69759,-11.096176 -0.68192,-0.64849 -0.8601,-2.224723 -3.91663,-34.647151 -2.80956,-29.80263 -4.50518,-44.14365 -5.90046,-49.90413 -1.18147,-4.8778 -3.79003,-13.0506 -10.6621,-33.4052 -1.39946,-4.1451 -2.61012,-7.7657 -2.69036,-8.04577 -0.11675,-0.40751 0.10743,-0.2651 1.12227,0.71292 1.08849,1.04899 18.47532,19.60997 52.85297,56.42221 25.25081,27.03904 29.8836,32.30985 33.41095,38.01224 4.90807,7.934478 9.12009,18.74972 11.58868,29.756351 1.85444,8.268358 2.14247,13.157053 2.29878,39.016046 l 0.11357,18.79043 h -15.37302 -15.37302 z m 17.92725,-21.693016 c -0.11603,-19.726446 -0.18401,-20.561554 -2.39023,-29.360531 -4.28641,-17.095405 -7.9986,-22.700126 -32.25722,-48.702566 -14.98483,-16.062 -26.25287,-27.71548 -26.53042,-27.43793 -0.0551,0.0551 0.0859,1.32415 0.31331,2.8201 0.39954,2.62805 1.163,9.50372 1.65605,14.91416 l 0.23883,2.6208 11.53846,12.35397 c 22.80541,24.417217 27.01335,29.182338 30.6854,34.748432 3.65704,5.543352 6.83903,12.975444 8.46086,19.761829 1.47227,6.160529 1.96857,11.235062 2.24122,22.91569 0.11374,4.87329 0.28278,9.305322 0.37563,9.848961 0.18539,1.085484 0.38761,1.290101 1.4492,1.466418 0.3921,0.06512 0.85041,0.147498 1.01845,0.183058 0.16804,0.03556 0.97839,0.07529 1.80077,0.08828 l 1.49524,0.02363 z m -19.04797,-8.421883 c -0.16959,-3.596102 -1.45716,-9.101734 -3.09175,-13.220212 -1.75683,-4.426481 -5.82116,-11.517596 -7.52689,-13.132308 -0.50961,-0.482414 -0.71037,-0.561629 -0.98853,-0.390051 -0.68075,0.419908 -1.11925,2.254982 -1.21831,5.098431 -0.11106,3.188196 0.0857,4.053808 0.96537,4.247016 0.32053,0.0704 0.62962,0.250075 0.68688,0.399276 0.1969,0.513129 -0.69011,1.873183 -2.45566,3.765274 l -1.76905,1.895832 2.0264,1.971377 c 3.38032,3.288542 12.74364,10.907708 13.20776,10.747477 0.14203,-0.04903 0.20256,-0.559851 0.16378,-1.382112 z m -16.29899,-13.338786 c 0.28994,-1.654069 -0.60931,-8.58138 -1.2985,-10.002923 -0.31948,-0.658975 -1.2745,-0.943159 -4.26165,-1.268125 -3.96005,-0.430809 -6.23644,-0.192326 -6.83138,0.71568 -0.56269,0.858771 -0.051,1.782384 2.24767,4.057314 2.81206,2.782977 9.17482,7.572472 9.78826,7.367993 0.11864,-0.03955 0.27866,-0.431021 0.3556,-0.869939 z m 2.49413,-4.076871 c -0.0128,-1.1633 -0.14009,-1.673683 -0.73751,-2.956347 -1.04564,-2.244979 -1.52427,-2.407063 -1.44003,-0.487655 0.0567,1.291462 0.89349,4.048483 1.398,4.605963 0.59077,0.652789 0.7961,0.346732 0.77954,-1.161961 z m -16.28729,-6.675968 c 0.52153,-0.521529 0.92408,-1.693962 0.91811,-2.673991 -0.005,-0.77206 -0.22964,-1.647116 -0.90664,-3.5271 -0.37365,-1.037624 -0.59455,-2.200867 -0.72736,-3.830255 -0.1049,-1.287036 -0.28451,-2.515292 -0.39913,-2.72946 -0.41829,-0.781586 -3.5775,-1.066859 -4.3858,-0.396033 -0.4751,0.394297 -0.55913,1.504695 -0.30235,3.995261 0.30712,2.978928 0.85424,5.085452 1.7771,6.842317 1.31825,2.509563 2.9156,3.429729 4.02607,2.319261 z m 14.19157,-1.469552 c 0.29526,-0.150794 0.91397,-0.702624 1.37491,-1.226287 0.89217,-1.013553 1.08094,-1.887439 0.60317,-2.792285 -0.65556,-1.241563 -6.44302,-8.043658 -9.16746,-10.77466 -1.93018,-1.934828 -2.76522,-2.036655 -3.2218,-0.392868 -0.68385,2.461997 0.60553,7.688184 2.51688,10.20158 0.38134,0.501453 0.46389,0.743924 0.28987,0.85147 -0.60698,0.375141 -1.59081,-0.717165 -2.90267,-3.222718 -1.22044,-2.330936 -1.6428,-2.64709 -1.49605,-1.119837 0.14464,1.505349 1.06035,3.140605 2.52692,4.512502 1.14848,1.074353 2.96945,2.074737 3.25564,1.788548 0.0618,-0.06178 -0.0387,-0.404342 -0.22325,-0.761252 -0.18457,-0.35691 -0.29168,-0.692824 -0.23803,-0.746474 0.0536,-0.05365 0.81661,0.128135 1.69547,0.403971 l 1.59791,0.501516 0.1719,0.989868 c 0.24489,1.410257 0.47323,1.892148 0.99767,2.105481 0.52431,0.213284 1.43303,0.08283 2.21892,-0.318555 z m -9.19366,-1.139458 c 0,-0.132305 -0.49347,-0.888505 -1.09661,-1.680445 -1.25338,-1.645742 -2.1092,-3.276693 -2.76505,-5.269381 -0.26418,-0.80268 -0.55455,-1.352839 -0.69048,-1.308241 -0.37025,0.121475 -0.39279,1.502012 -0.0418,2.558776 0.45947,1.383328 2.01845,3.962546 3.03876,5.027396 0.83638,0.872896 1.55518,1.183445 1.55518,0.671895 z m -5.54045,-12.06533 c 0.72899,-0.381909 1.68891,-1.415544 2.46501,-2.654309 0.81566,-1.301897 0.84233,-2.35069 0.0884,-3.47742 -1.30205,-1.94597 -8.34181,-10.01753 -9.21527,-10.56593 -0.24736,-0.15531 -0.27,0.40081 -0.15757,3.87011 0.13822,4.26518 0.48879,7.17827 1.08813,9.041899 0.59614,1.8537 3.1448,4.054358 4.71282,4.069333 0.25763,0.0025 0.71594,-0.125198 1.01845,-0.283683 z"
       id="path987"
       transform="scale(0.26458333)" /><path
       style="fill:#13304e;fill-opacity:1;stroke-width:0.20369"
       d="m -546.28678,-179.1606 c -0.33554,-0.38386 -1.22781,-1.43122 -1.98283,-2.32746 -1.90665,-2.26327 -7.41246,-8.35613 -14.62853,-16.1883 -7.57915,-8.22625 -10.42836,-11.40272 -13.19861,-14.71458 -2.13866,-2.55678 -3.74699,-4.7715 -3.58368,-4.93482 0.0462,-0.0462 0.85959,0.0507 1.80764,0.21521 8.44176,1.46496 34.59897,10.40003 36.24222,12.38003 0.19376,0.23347 0.22673,0.71237 0.1239,1.79947 -0.73437,7.76343 -3.33375,23.54461 -3.99921,24.27968 -0.10007,0.11054 -0.42353,-0.10039 -0.7809,-0.50923 z"
       id="path988"
       transform="scale(0.26458333)" /><path
       style="fill:#13304e;fill-opacity:1;stroke-width:0.20369"
       d="m -438.6387,-180.19947 c -0.86702,-2.91959 -2.90318,-15.93628 -3.10106,-19.8244 -0.20043,-3.93836 0.40627,-4.9343 4.09802,-6.72717 5.78926,-2.81151 14.78699,-5.96121 24.65966,-8.63224 4.38421,-1.18614 8.65684,-2.0193 8.65684,-1.68809 0,1.06628 -30.62393,35.42987 -33.40954,37.48936 l -0.59083,0.43682 z"
       id="path989"
       transform="scale(0.26458333)" /></g></svg>
