<?xml version="1.0" encoding="UTF-8" standalone="no"?>
<!-- Created with Inkscape (http://www.inkscape.org/) -->

<svg
   width="174.15422mm"
   height="68.71579mm"
   viewBox="0 0 174.15423 68.71579"
   version="1.1"
   id="svg1"
   xml:space="preserve"
   xmlns="http://www.w3.org/2000/svg"
   xmlns:svg="http://www.w3.org/2000/svg"><defs
     id="defs1"><clipPath
       clipPathUnits="userSpaceOnUse"
       id="clipPath1"><rect
         style="fill:#000000;stroke-width:0.264583"
         id="rect2"
         width="174.15422"
         height="68.747101"
         x="5.7900891"
         y="210.91995" /></clipPath></defs><g
     id="g2051"
     transform="translate(-5.7900891,-210.91995)"
     clip-path="url(#clipPath1)"><path
       style="fill:#e0a525"
       d="m 28.730216,251.67658 -0.06362,0.10566 -2.113699,-2.23173 -2.113699,-2.23174 v -0.23024 -0.23025 l 0.252939,-0.22459 0.25294,-0.2246 h 1.600882 1.600882 l 0.233637,0.12749 0.233636,0.1275 0.09112,0.27584 0.09112,0.27584 -0.0013,2.17758 -0.0013,2.17758 z m 3.670544,-2.17457 -2.17276,2.29282 -0.05814,-0.0614 -0.05814,-0.0613 v -2.24544 -2.24544 l 0.122847,-0.25068 0.122846,-0.25069 0.183183,-0.13539 0.183184,-0.1354 1.605367,3.2e-4 1.605368,3.3e-4 0.264978,0.17049 0.264978,0.17049 0.05452,0.22923 0.05452,0.22923 z m -5.476401,-4.68447 -1.375322,0.0134 -0.205526,-0.0377 -0.205527,-0.0377 -0.187524,-0.0431 -0.187524,-0.0431 -0.161564,-0.27962 -0.161564,-0.27963 -3.07e-4,-1.13665 -3.07e-4,-1.13665 0.187441,-0.29352 0.187442,-0.29351 0.203059,-0.10843 0.203059,-0.10842 1.547773,-10e-4 1.547773,-0.001 0.245974,0.25956 0.245975,0.25957 -0.02622,1.38701 -0.02622,1.38702 -0.227786,0.2403 -0.227786,0.24031 z m 5.467301,0.006 -1.581142,0.0196 -0.184455,-0.0816 -0.184454,-0.0816 -0.167873,-0.28495 -0.167874,-0.28495 0.02349,-1.28694 0.02349,-1.28694 0.268481,-0.25293 0.268482,-0.25293 h 1.612656 1.612655 l 0.270218,0.30234 0.270217,0.30235 0.05653,0.55706 0.05653,0.55706 -0.02931,0.7439 -0.02931,0.74389 -0.268597,0.28359 -0.268598,0.28358 z m -10.101931,-0.0629 h -0.25862 l -2.378786,-2.49417 -2.378786,-2.49416 -0.07264,-0.14039 -0.07264,-0.14039 0.121075,-1.24766 0.121074,-1.24766 0.08476,-0.65066 0.08476,-0.65065 0.163202,-1.17117 0.163202,-1.17117 0.168628,-1.04104 0.168627,-1.04104 0.24563,-1.34468 0.245629,-1.34468 0.205124,-0.91091 0.205123,-0.91091 0.236305,-1.04104 0.236305,-1.04104 0.424211,-1.43143 0.424212,-1.43143 0.451354,-1.25793 0.451355,-1.25792 0.596822,-1.3013 0.596821,-1.3013 0.514666,-0.86754 0.514666,-0.86753 0.295613,-0.39039 0.295612,-0.39039 0.565816,-0.66996 0.565815,-0.66996 0.61172,-0.48583 0.61172,-0.48584 0.53393,-0.25547 0.53393,-0.25547 0.348018,-0.12149 0.348017,-0.1215 0.611939,-0.0973 0.611939,-0.0973 0.62122,0.0959 0.621221,0.0959 0.433349,0.16722 0.433348,0.16723 0.429863,0.22781 0.429863,0.22781 0.53437,0.41556 0.534369,0.41557 0.538139,0.59339 0.53814,0.59339 0.369367,0.52052 0.369367,0.52052 0.340623,0.5639 0.340623,0.56389 0.456925,0.9028 0.456925,0.9028 0.322421,0.70293 0.322422,0.70293 0.344049,0.9535 0.344048,0.9535 0.365784,1.17117 0.365784,1.17117 0.439634,1.73507 0.439634,1.73506 0.219541,1.04104 0.219542,1.04105 0.235022,1.3013 0.235022,1.3013 0.125461,0.82415 0.125461,0.82416 0.16929,1.1278 0.169291,1.12779 0.157097,1.38806 0.157097,1.38805 0.05196,0.5436 0.05196,0.5436 -0.814326,0.88783 -0.814326,0.88783 -1.637879,1.75676 -1.637878,1.75676 h -0.25767 -0.257669 l -0.207856,-0.26068 -0.207856,-0.26067 -0.04224,-0.36829 -0.04224,-0.36829 -0.04434,-0.80679 -0.04434,-0.80678 0.109975,-0.27763 0.109975,-0.27763 0.148406,-0.13013 0.148406,-0.13013 1.487989,-0.0434 1.487989,-0.0434 -0.02968,-0.69403 -0.02968,-0.69402 -0.03683,-0.0651 -0.03683,-0.0651 H 37.729652 36.31411 l -0.191398,-0.14147 -0.191398,-0.14147 -0.112976,-0.28533 -0.112977,-0.28533 -0.05498,-1.08517 -0.05497,-1.08517 0.252523,-0.26648 0.252522,-0.26647 h 1.321694 1.321694 l -4.59e-4,-0.41208 -4.58e-4,-0.41208 -0.08562,-0.32532 -0.08562,-0.32533 h -1.278621 -1.278622 l -0.269305,-0.28419 -0.269305,-0.28418 -0.05132,-0.53997 -0.05132,-0.53997 -0.04812,-0.51088 -0.04812,-0.51087 0.246693,-0.2916 0.246693,-0.29159 1.12734,-0.0286 1.127341,-0.0286 -0.05438,-0.48828 -0.05438,-0.48827 -0.0456,-0.19173 -0.0456,-0.19173 -0.383275,-0.0523 -0.383275,-0.0523 -0.739896,0.0172 -0.739895,0.0172 -0.18309,-0.10412 -0.18309,-0.10411 -0.08737,-0.17228 -0.08737,-0.17228 -0.08094,-0.97337 -0.08094,-0.97337 0.154404,-0.21873 0.154404,-0.21873 0.934657,-0.0699 0.934657,-0.0699 0.02346,-0.0248 0.02346,-0.0248 -0.132902,-0.62103 -0.132903,-0.62103 -0.504896,-0.002 -0.504897,-0.002 -0.52782,-0.0805 -0.527821,-0.0805 -0.163095,-0.17211 -0.163094,-0.17211 -0.08369,-0.87179 -0.08369,-0.87178 0.142542,-0.16621 0.142541,-0.16621 0.646075,-0.031 0.646074,-0.031 0.05963,-0.0629 0.05963,-0.0629 -0.203546,-0.5874 -0.203546,-0.58739 -0.658135,-0.0457 -0.658135,-0.0457 -0.209858,-0.1451 -0.209858,-0.1451 -0.08588,-0.41643 -0.08588,-0.41644 -0.04524,-0.41353 -0.04525,-0.41354 0.163038,-0.17205 0.163039,-0.17205 h 0.287737 0.287737 l -0.0064,-0.10844 -0.0064,-0.10844 -0.143118,-0.42911 -0.143117,-0.42911 -0.219304,-0.0619 -0.219305,-0.0619 -0.289931,-0.18909 -0.289932,-0.18909 -0.07226,-0.14406 -0.07226,-0.14407 -0.184258,-0.72322 -0.184258,-0.72322 -0.453477,-0.51688 -0.453476,-0.51687 -0.159218,-0.0899 -0.159219,-0.0899 -0.03105,0.0328 -0.03105,0.0328 0.125742,0.42972 0.125743,0.42972 0.15898,0.84892 0.158979,0.84892 v 0.16423 0.16424 l -0.129188,0.13633 -0.129188,0.13632 h -0.606123 -0.606123 l -0.214002,-0.19519 -0.214001,-0.1952 -0.04831,-1.69169 -0.04831,-1.69169 -0.08119,-0.10844 -0.08119,-0.10844 H 29.441941 29.12113 l -0.08018,0.22253 -0.08018,0.22253 v 1.41284 1.41283 l -0.0923,0.2794 -0.0923,0.2794 -0.20079,0.0806 -0.20079,0.0806 h -0.469619 -0.46962 l -0.182713,-0.13505 -0.182714,-0.13505 v -0.37276 -0.37276 l 0.249739,-1.0656 0.249739,-1.06561 -0.02464,-0.078 -0.02464,-0.078 -0.541695,0.47151 -0.541695,0.4715 -0.134158,0.35382 -0.134158,0.35382 -0.129947,0.60291 -0.129947,0.6029 -0.191027,0.20151 -0.191028,0.20151 -0.387016,0.12044 -0.387016,0.12045 -0.14472,0.3567 -0.14472,0.35669 -0.05855,0.1952 -0.05855,0.19519 h 0.325275 0.325275 l 0.191617,0.16374 0.191618,0.16374 -0.09713,0.70326 -0.09713,0.70325 -0.09199,0.18139 -0.09199,0.18139 -0.27848,0.12279 -0.278479,0.12279 H 23.86636 23.288245 v 0.0221 0.0221 l -0.206603,0.60108 -0.206603,0.60108 0.10384,0.0695 0.103839,0.0696 0.62142,0.001 0.621419,0.001 0.151841,0.11716 0.151841,0.11717 -0.04674,0.82679 -0.04674,0.8268 -0.127448,0.26007 -0.127448,0.26008 -0.14691,0.0665 -0.146909,0.0665 -0.885178,0.0149 -0.885178,0.0149 -0.07519,0.0809 -0.07519,0.0809 -0.12223,0.56192 -0.122231,0.56192 0.04186,0.0715 0.04186,0.0715 0.794105,-0.018 0.794104,-0.018 0.185876,0.0631 0.185876,0.0631 0.114935,0.23454 0.114935,0.23454 -0.106447,0.91767 -0.106447,0.91767 -0.09348,0.18433 -0.09348,0.18433 -0.157133,0.0887 -0.157132,0.0887 H 22.36394 21.346615 l -0.12807,0.10844 -0.12807,0.10845 -0.09317,0.5133 -0.09317,0.5133 v 0.1091 0.10911 l 1.158266,0.0282 1.158266,0.0283 0.207693,0.25504 0.207693,0.25505 -0.05623,0.83694 -0.05623,0.83694 -0.07227,0.33945 -0.07227,0.33944 -0.214415,0.19519 -0.214414,0.1952 H 21.6443 20.338366 l -0.0464,0.0792 -0.0464,0.0792 -0.05272,0.65817 -0.05272,0.65818 h 1.333758 1.333757 l 0.252665,0.26662 0.252664,0.26663 -0.05311,1.10743 -0.05311,1.10743 -0.09121,0.27609 -0.09121,0.27609 -0.176327,0.10661 -0.176327,0.10661 -1.479791,0.0434 -1.479792,0.0434 -0.02375,0.7591 -0.02375,0.75909 h 1.367804 1.367804 l 0.275715,0.13806 0.275715,0.13807 0.09696,0.31002 0.09696,0.31001 -0.05744,1.0363 -0.05744,1.0363 -0.07344,0.20384 -0.07344,0.20385 -0.167705,0.17697 -0.167704,0.17698 z m 4.453623,-5.29783 -1.523157,-0.006 -0.175557,-0.0897 -0.175556,-0.0897 -0.112181,-0.22295 -0.112181,-0.22295 0.02321,-1.00446 0.02321,-1.00446 0.08551,-0.28059 0.08551,-0.2806 0.210662,-0.17486 0.210662,-0.17486 1.448152,3.2e-4 1.448152,3.3e-4 0.262139,0.16867 0.26214,0.16867 0.0868,0.32983 0.0868,0.32984 4.58e-4,0.84863 4.59e-4,0.84864 -0.114632,0.28951 -0.114632,0.28951 -0.191397,0.14147 -0.191398,0.14147 z m 5.369062,0.006 h -1.523666 l -0.23851,-0.26944 -0.238511,-0.26943 v -1.21108 -1.21108 l 0.08465,-0.1669 0.08465,-0.16691 0.240112,-0.13102 0.240112,-0.13103 h 1.441472 1.441472 l 0.264342,0.24924 0.264343,0.24924 0.06071,0.63998 0.06072,0.63998 0.0051,0.54652 0.0051,0.54652 -0.127254,0.25968 -0.127253,0.25967 -0.206941,0.083 -0.206941,0.083 z m -5.259991,-5.0317 h -1.414086 l -0.264624,-0.23497 -0.264624,-0.23497 0.04849,-1.08294 0.04849,-1.08294 0.156094,-0.22196 0.156093,-0.22197 0.197602,-0.10716 0.197602,-0.10716 1.233159,-1e-4 1.23316,-9e-5 0.184044,0.052 0.184045,0.0521 0.16535,0.28232 0.165351,0.28233 v 0.88177 0.88177 l -0.114632,0.28951 -0.114632,0.28951 -0.191397,0.14147 -0.191398,0.14147 z m 5.297943,-3.2e-4 -1.422059,-3.3e-4 -0.256444,-0.16501 -0.256444,-0.16502 -0.09295,-0.28137 -0.09295,-0.28138 v -0.81552 -0.81552 l 0.122846,-0.25068 0.122847,-0.25069 0.183183,-0.13539 0.183183,-0.1354 h 1.360996 1.360996 l 0.183183,0.1354 0.183183,0.13539 0.122847,0.25069 0.122846,0.25068 v 1.03269 1.03268 l -0.201601,0.22955 -0.201601,0.22955 z m -5.120249,-4.77112 h -1.346019 l -0.129065,-0.13619 -0.129065,-0.1362 -0.05204,-0.21878 -0.05204,-0.21879 0.04162,-0.7945 0.04162,-0.7945 0.09836,-0.22156 0.09835,-0.22156 0.179124,-0.12546 0.179123,-0.12545 1.274265,0.0267 1.274265,0.0267 0.164421,0.17088 0.164422,0.17089 v 1.08952 1.08952 l -0.230664,0.20937 -0.230664,0.20937 z m 4.870065,0 h -1.384875 l -0.196341,-0.20719 -0.196342,-0.20719 -0.05512,-0.31004 -0.05512,-0.31004 0.02912,-0.7482 0.02912,-0.74821 0.230662,-0.20937 0.230662,-0.20937 h 1.273418 1.273417 l 0.20179,0.21294 0.201789,0.21294 v 1.15776 1.15776 l -0.09865,0.10411 -0.09865,0.1041 z m -4.561587,-4.42442 h -1.136393 l -0.193966,-0.14337 -0.193967,-0.14336 0.05461,-0.81983 0.05461,-0.81983 0.125001,-0.25508 0.125001,-0.25508 0.222142,-0.0895 0.222142,-0.0895 0.957602,0.0281 0.957602,0.0281 0.172794,0.16527 0.172794,0.16526 v 0.90141 0.90141 l -0.20179,0.21294 -0.20179,0.21294 z m 4.357722,-0.006 -1.132431,-0.006 -0.1796,-0.0764 -0.179599,-0.0764 -0.08759,-0.1727 -0.08759,-0.1727 v -0.81816 -0.81816 l 0.175129,-0.23494 0.175129,-0.23494 1.147694,0.028 1.147694,0.0281 0.156968,0.20481 0.156969,0.20481 v 0.85227 0.85228 l -0.08018,0.22253 -0.08018,0.22253 z m -3.938205,-3.92896 -0.811494,0.0198 -0.164421,-0.0473 -0.164421,-0.0473 -0.102764,-0.088 -0.102763,-0.088 1.28e-4,-0.66172 1.27e-4,-0.66171 0.143741,-0.30114 0.143741,-0.30114 0.205527,-0.0589 0.205526,-0.0589 0.701051,-0.009 0.701051,-0.009 0.182713,0.13505 0.182714,0.13505 v 0.80963 0.80963 l -0.154482,0.20131 -0.154481,0.20132 z m 3.662512,0.0272 -0.774527,-0.003 -0.254881,-0.11708 -0.254881,-0.11709 -0.05341,-0.14687 -0.05341,-0.14688 v -0.71372 -0.71373 l 0.116575,-0.1684 0.116576,-0.1684 0.831398,-0.0299 0.831398,-0.0299 0.198896,0.13752 0.198897,0.13752 0.08583,0.32615 0.08583,0.32614 4.58e-4,0.57214 4.59e-4,0.57214 -0.150342,0.14358 -0.150342,0.14358 z"
       id="path2080" /><path
       style="fill:#62768a"
       d="m 110.22599,257.51353 h -0.0411 v -0.0434 -0.0434 h 0.0411 0.0411 v 0.0434 0.0434 z m 2.38411,-2.94962 h -0.0411 v -0.0434 -0.0434 h 0.0411 0.0411 v 0.0434 0.0434 z"
       id="path2079" /><path
       style="fill:#5a6b80"
       d="m 109.48609,256.03872 h -0.0411 v -0.0434 -0.0434 h 0.0411 0.0411 v 0.0434 0.0434 z m 1.23316,-1.04104 h -0.0411 v -0.0434 -0.0434 h 0.0411 0.0411 v 0.0434 0.0434 z"
       id="path2078" /><path
       style="fill:#54667c"
       d="m 108.99283,257.86054 h -0.0411 v -0.0434 -0.0434 h 0.0411 0.0411 v 0.0434 0.0434 z"
       id="path2077" /><path
       style="fill:#4e6178"
       d="m 112.85673,251.44079 h -0.0411 v -0.0434 -0.0434 h 0.0411 0.0411 v 0.0434 0.0434 z"
       id="path2076" /><path
       style="fill:#495d75"
       d="m 113.59663,258.29431 h -0.0411 v -0.0434 -0.0434 h 0.0411 0.0411 v 0.0434 0.0434 z m 8.71432,-1.47481 h -0.0411 v -0.0434 -0.0434 h 0.0411 0.0411 v 0.0434 0.0434 z m -13.56475,-1.82182 h -0.0411 v -0.0434 -0.0434 h 0.0411 0.0411 v 0.0434 0.0434 z m 1.47979,-0.60728 h -0.0411 v -0.0434 -0.0434 h 0.0411 0.0411 v 0.0434 0.0434 z m -0.0822,-0.78078 h -0.0411 v -0.0434 -0.0434 h 0.0411 0.0411 v 0.0434 0.0434 z m 12.4138,-2.51585 h -0.0411 v -0.0434 -0.0434 h 0.0411 0.0411 v 0.0434 0.0434 z"
       id="path2075" /><path
       style="fill:#445871"
       d="m 112.77452,256.38573 h -0.0411 v -0.0434 -0.0434 h 0.0411 0.0411 v 0.0434 0.0434 z m 7.31675,-4.33767 h -0.0411 v -0.0434 -0.0434 h 0.0411 0.0411 v 0.0434 0.0434 z m -9.28981,-0.95429 h -0.0411 v -0.0434 -0.0434 h 0.0411 0.0411 v 0.0434 0.0434 z"
       id="path2074" /><path
       style="fill:#4d5558"
       d="m 52.431914,230.96698 h -0.04111 v -0.0434 -0.0434 h 0.04111 0.04111 v 0.0434 0.0434 z"
       id="path2073" /><path
       style="fill:#3d526a"
       d="m 109.81494,258.81483 h -0.0411 v -0.0434 -0.0434 h 0.0411 0.0411 v 0.0434 0.0434 z m -0.90432,-3.47014 h -0.0411 v -0.0434 -0.0434 h 0.0411 0.0411 v 0.0434 0.0434 z m -0.24663,-0.60727 h -0.0411 v -0.0434 -0.0434 h 0.0411 0.0411 v 0.0434 0.0434 z m 11.18064,-3.55689 h -0.0411 v -0.0434 -0.0434 h 0.0411 0.0411 v 0.0434 0.0434 z"
       id="path2072" /><path
       style="fill:#344b65"
       d="m 120.09127,256.99301 h -0.0411 v -0.0434 -0.0434 h 0.0411 0.0411 v 0.0434 0.0434 z m 0.57547,-1.38806 h -0.0411 v -0.0434 -0.0434 h 0.0411 0.0411 v 0.0434 0.0434 z m 2.21969,-4.33767 h -0.0411 v -0.0434 -0.0434 h 0.0411 0.0411 v 0.0434 0.0434 z"
       id="path2071" /><path
       style="fill:#334a64"
       d="m 109.15725,255.6917 h -0.0411 v -0.0434 -0.0434 h 0.0411 0.0411 v 0.0434 0.0434 z m 1.89085,-0.52052 h -0.0411 v -0.0434 -0.0434 h 0.0411 0.0411 v 0.0434 0.0434 z"
       id="path2070" /><path
       style="fill:#334a63"
       d="m 112.28125,256.38573 h -0.0411 v -0.0434 -0.0434 h 0.0411 0.0411 v 0.0434 0.0434 z m 0.41106,-1.99533 h -0.0411 v -0.0434 -0.0434 h 0.0411 0.0411 v 0.0434 0.0434 z m -0.98653,-1.90857 h -0.0411 v -0.0434 -0.0434 h 0.0411 0.0411 v 0.0434 0.0434 z"
       id="path2069" /><path
       style="fill:#2e4660"
       d="m 111.37694,256.64599 h -0.0411 v -0.0434 -0.0434 h 0.0411 0.0411 v 0.0434 0.0434 z m 1.39758,-0.69403 h -0.0411 v -0.0434 -0.0434 h 0.0411 0.0411 v 0.0434 0.0434 z m 13.1537,-2.51584 h -0.0411 v -0.0434 -0.0434 h 0.0411 0.0411 v 0.0434 0.0434 z m -3.69948,-0.69403 h -0.0411 v -0.0434 -0.0434 h 0.0411 0.0411 v 0.0434 0.0434 z m 2.87737,-0.78078 h -0.0411 v -0.0434 -0.0434 h 0.0411 0.0411 v 0.0434 0.0434 z m -4.85042,-1.1278 h -0.0411 v -0.0434 -0.0434 h 0.0411 0.0411 v 0.0434 0.0434 z"
       id="path2068" /><path
       style="fill:#29425d"
       d="m 129.38107,256.29898 h -0.0411 v -0.0434 -0.0434 h 0.0411 0.0411 v 0.0434 0.0434 z M 121.16,255.60495 h -0.0411 v -0.0434 -0.0434 h 0.0411 0.0411 v 0.0434 0.0434 z m 3.61727,0 h -0.0411 v -0.0434 -0.0434 h 0.0411 0.0411 v 0.0434 0.0434 z m 4.35716,-0.0867 h -0.0411 v -0.0434 -0.0434 h 0.0411 0.0411 v 0.0434 0.0434 z"
       id="path2067" /><path
       style="fill:#26405b"
       d="m 63.037086,255.5182 h -0.04111 v -0.0434 -0.0434 h 0.04111 0.0411 v 0.0434 0.0434 z m 32.226568,-0.17351 h -0.04111 v -0.0434 -0.0434 h 0.04111 0.04111 v 0.0434 0.0434 z m 89.280746,-0.52052 h -0.0411 v -0.0434 -0.0434 h 0.0411 0.0411 v 0.0434 0.0434 z m 2.21969,-0.86753 h -0.0411 v -0.0434 -0.0434 h 0.0411 0.0411 v 0.0434 0.0434 z m 0.41105,0 h -0.0411 v -0.0434 -0.0434 h 0.0411 0.0411 v 0.0434 0.0434 z M 59.502029,252.39508 h -0.04111 v -0.0434 -0.0434 h 0.04111 0.04111 v 0.0434 0.0434 z m 6.412429,-1.64832 h -0.04111 v -0.0434 -0.0434 h 0.04111 0.04111 v 0.0434 0.0434 z"
       id="path2066" /><path
       style="fill:#243e5a"
       d="m 118.85811,256.64599 h -0.0411 v -0.0434 -0.0434 h 0.0411 0.0411 v 0.0434 0.0434 z m 64.53534,-1.12779 h -0.0411 v -0.0434 -0.0434 h 0.0411 0.0411 v 0.0434 0.0434 z m -65.02861,-0.17351 h -0.0411 v -0.0434 -0.0434 h 0.0411 0.0411 v 0.0434 0.0434 z m 65.27524,-0.17351 h -0.0411 v -0.0434 -0.0434 h 0.0411 0.0411 v 0.0434 0.0434 z m -57.46523,-0.69402 h -0.0411 v -0.0434 -0.0434 h 0.0411 0.0411 v 0.0434 0.0434 z m 2.38411,0 h -0.0411 v -0.0434 -0.0434 h 0.0411 0.0411 v 0.0434 0.0434 z m -3.94611,-1.73507 h -0.0411 v -0.0434 -0.0434 h 0.0411 0.0411 v 0.0434 0.0434 z m 2.87737,-0.34701 h -0.0411 v -0.0434 -0.0434 h 0.0411 0.0411 v 0.0434 0.0434 z m -2.21969,-0.60728 h -0.0411 v -0.0434 -0.0434 h 0.0411 0.0411 v 0.0434 0.0434 z m -62.891129,-2.42909 h -0.04111 v -0.0434 -0.0434 h 0.04111 0.04111 v 0.0434 0.0434 z"
       id="path2065" /><path
       style="fill:#223d58"
       d="m 108.91062,258.03405 h -0.0411 v -0.0434 -0.0434 h 0.0411 0.0411 v 0.0434 0.0434 z m 2.05526,-1.38806 h -0.0411 v -0.0434 -0.0434 h 0.0411 0.0411 v 0.0434 0.0434 z m -1.39758,-5.0317 h -0.0411 v -0.0434 -0.0434 h 0.0411 0.0411 v 0.0434 0.0434 z m -8.71432,-1.64831 h -0.0411 v -0.0434 -0.0434 h 0.0411 0.0411 v 0.0434 0.0434 z"
       id="path2064" /><path
       style="fill:#203b56"
       d="m 150.09815,256.03872 h -0.0411 v -0.0434 -0.0434 h 0.0411 0.0411 v 0.0434 0.0434 z m -88.047592,-0.86754 h -0.04111 v -0.0434 -0.0434 h 0.04111 0.04111 v 0.0434 0.0434 z m 126.111112,-0.43376 h -0.0411 v -0.0434 -0.0434 h 0.0411 0.0411 v 0.0434 0.0434 z m -35.92605,-0.26026 h -0.0411 v -0.0434 -0.0434 h 0.0411 0.0411 v 0.0434 0.0434 z m 2.3019,0 h -0.0411 v -0.0434 -0.0434 h 0.0411 0.0411 v 0.0434 0.0434 z m 28.77372,-0.60728 h -0.0411 v -0.0434 -0.0434 h 0.0411 0.0411 v 0.0434 0.0434 z m -52.45038,-1.99533 h -0.0411 v -0.0434 -0.0434 h 0.0411 0.0411 v 0.0434 0.0434 z m -65.93293,-0.26026 h -0.04111 v -0.0434 -0.0434 h 0.04111 0.04111 v 0.0434 0.0434 z m 65.93293,-0.1735 h -0.0411 v -0.0434 -0.0434 h 0.0411 0.0411 v 0.0434 0.0434 z m -65.028613,-0.60728 h -0.04111 v -0.0434 -0.0434 h 0.04111 0.04111 v 0.0434 0.0434 z m -5.425901,-0.34701 h -0.04111 v -0.0434 -0.0434 h 0.04111 0.04111 v 0.0434 0.0434 z m 38.721208,-0.69403 h -0.04111 v -0.0434 -0.0434 h 0.04111 0.04111 v 0.0434 0.0434 z"
       id="path2063" /><path
       style="fill:#1d3854"
       d="m 110.55483,258.98833 h -0.0411 v -0.0434 -0.0434 h 0.0411 0.0411 v 0.0434 0.0434 z M 90.495437,256.8195 h -0.04111 v -0.0434 -0.0434 h 0.04111 0.04111 v 0.0434 0.0434 z m 7.7278,0 h -0.04111 v -0.0434 -0.0434 h 0.04111 0.04111 v 0.0434 0.0434 z m 32.637623,-0.26026 h -0.0411 v -0.0434 -0.0434 h 0.0411 0.0411 v 0.0434 0.0434 z m -42.58511,-1.1278 h -0.04111 v -0.0434 -0.0434 h 0.04111 0.04111 v 0.0434 0.0434 z m -3.124004,-0.69402 h -0.04111 v -0.0434 -0.0434 h 0.04111 0.04111 v 0.0434 0.0434 z m 43.571634,-0.26026 h -0.0411 v -0.0434 -0.0434 h 0.0411 0.0411 v 0.0434 0.0434 z m -43.56307,-0.19701 -0.04967,0.0524 0.0065,-0.16628 0.0065,-0.16628 0.04318,0.11387 0.04318,0.11386 z m 33.04011,-2.23209 h -0.0411 v -0.0434 -0.0434 h 0.0411 0.0411 v 0.0434 0.0434 z m -29.266985,-0.69403 h -0.04111 v -0.0434 -0.0434 h 0.04111 0.04111 v 0.0434 0.0434 z m 29.349195,-0.34701 h -0.0411 v -0.0434 -0.0434 h 0.0411 0.0411 v 0.0434 0.0434 z m 1.97306,-1.64831 h -0.0411 v -0.0434 -0.0434 h 0.0411 0.0411 v 0.0434 0.0434 z"
       id="path2062" /><path
       style="fill:#1c3754"
       d="m 157.41489,256.99301 h -0.0411 v -0.0434 -0.0434 h 0.0411 0.0411 v 0.0434 0.0434 z m -7.23453,-0.86754 h -0.0411 v -0.0434 -0.0434 h 0.0411 0.0411 v 0.0434 0.0434 z m 5.4259,-0.0867 h -0.0411 v -0.0434 -0.0434 h 0.0411 0.0411 v 0.0434 0.0434 z m -80.895264,-0.95429 h -0.04111 v -0.0434 -0.0434 h 0.04111 0.04111 v 0.0434 0.0434 z m 83.690424,-0.26026 h -0.0411 v -0.0434 -0.0434 h 0.0411 0.0411 v 0.0434 0.0434 z m -0.32884,-0.0868 h -0.0411 v -0.0434 -0.0434 h 0.0411 0.0411 v 0.0434 0.0434 z m -98.40613,-0.17351 h -0.0411 v -0.0434 -0.0434 h 0.0411 0.04111 v 0.0434 0.0434 z m 92.65138,-0.0867 h -0.0411 v -0.0434 -0.0434 h 0.0411 0.0411 v 0.0434 0.0434 z m 0.65769,0 h -0.0411 v -0.0434 -0.0434 h 0.0411 0.0411 v 0.0434 0.0434 z m 0.23978,-0.007 -0.15757,-0.007 0.1079,-0.0456 0.1079,-0.0456 0.0497,0.0524 0.0497,0.0524 z m 0.4179,0.007 h -0.0411 v -0.0434 -0.0434 h 0.0411 0.0411 v 0.0434 0.0434 z m 0.32885,0 h -0.0411 v -0.0434 -0.0434 h 0.0411 0.0411 v 0.0434 0.0434 z m 0.73989,0 h -0.0411 v -0.0434 -0.0434 h 0.0411 0.0411 v 0.0434 0.0434 z m -79.990944,-0.0868 h -0.04111 v -0.0434 -0.0434 h 0.04111 0.04111 v 0.0434 0.0434 z m 78.675574,-1.3013 h -0.0411 v -0.0434 -0.0434 h 0.0411 0.0411 v 0.0434 0.0434 z m -3.61727,-0.60727 h -0.0411 v -0.0434 -0.0434 h 0.0411 0.0411 v 0.0434 0.0434 z m 7.81001,-1.38806 h -0.0411 v -0.0434 -0.0434 h 0.0411 0.0411 v 0.0434 0.0434 z m 1.06874,0 h -0.0411 v -0.0434 -0.0434 h 0.0411 0.0411 v 0.0434 0.0434 z"
       id="path2061" /><path
       style="fill:#1a3653"
       d="m 89.015646,256.90625 h -0.04111 v -0.0434 -0.0434 h 0.04111 0.04111 v 0.0434 0.0434 z m 41.845214,-0.43376 h -0.0411 v -0.0434 -0.0434 h 0.0411 0.0411 v 0.0434 0.0434 z m 57.95849,-0.26026 h -0.0411 v -0.0434 -0.0434 h 0.0411 0.0411 v 0.0434 0.0434 z M 87.453644,255.5182 h -0.04111 v -0.0434 -0.0434 h 0.04111 0.04111 v 0.0434 0.0434 z m -12.742648,-0.0868 h -0.04111 v -0.0434 -0.0434 h 0.04111 0.04111 v 0.0434 0.0434 z m -9.04317,-0.1735 h -0.04111 v -0.0434 -0.0434 h 0.04111 0.04111 v 0.0434 0.0434 z m 9.04317,-0.0868 h -0.04111 v -0.0434 -0.0434 h 0.04111 0.04111 v 0.0434 0.0434 z m 59.438284,-4.07741 h -0.0411 v -0.0434 -0.0434 h 0.0411 0.0411 v 0.0434 0.0434 z m -72.098722,-1.64831 h -0.04111 v -0.0434 -0.0434 h 0.04111 0.04111 v 0.0434 0.0434 z"
       id="path2060" /><path
       style="fill:#1b3552"
       d="m 87.124801,256.99301 h -0.04111 v -0.0434 -0.0434 h 0.04111 0.04111 v 0.0434 0.0434 z m 64.946399,0 h -0.0411 v -0.0434 -0.0434 h 0.0411 0.0411 v 0.0434 0.0434 z m 1.47979,-0.17351 h -0.0411 v -0.0434 -0.0434 h 0.0411 0.0411 v 0.0434 0.0434 z m -22.69013,-0.0867 h -0.0411 v -0.0434 -0.0434 h 0.0411 0.0411 v 0.0434 0.0434 z m 27.37614,-1.0411 h -0.0411 v -0.0434 -0.0434 h 0.0411 0.0411 v 0.0434 0.0434 z m -83.526004,-0.34701 h -0.04111 v -0.0434 -0.0434 h 0.04111 0.04111 v 0.0434 0.0434 z m 0,-0.78078 h -0.04111 v -0.0434 -0.0434 h 0.04111 0.04111 v 0.0434 0.0434 z m 76.866944,-0.0867 h -0.0411 v -0.0434 -0.0434 h 0.0411 0.0411 v 0.0434 0.0434 z m 0.57547,0 h -0.0411 v -0.0434 -0.0434 h 0.0411 0.0411 v 0.0434 0.0434 z m 1.23316,0 h -0.0411 v -0.0434 -0.0434 h 0.0411 0.0411 v 0.0434 0.0434 z m 0.16442,0 h -0.0411 v -0.0434 -0.0434 h 0.0411 0.0411 v 0.0434 0.0434 z m 1.23316,0 h -0.0411 v -0.0434 -0.0434 h 0.0411 0.0411 v 0.0434 0.0434 z m -69.632404,-0.52052 h -0.04111 v -0.0434 -0.0434 h 0.04111 0.04111 v 0.0434 0.0434 z m 48.175434,-1.3013 h -0.0411 v -0.0434 -0.0434 h 0.0411 0.0411 v 0.0434 0.0434 z m 18.33297,-0.17351 h -0.0411 v -0.0434 -0.0434 h 0.0411 0.0411 v 0.0434 0.0434 z m 2.95958,0 h -0.0411 v -0.0434 -0.0434 h 0.0411 0.0411 v 0.0434 0.0434 z m -23.75887,-0.43377 h -0.0411 v -0.0434 -0.0434 h 0.0411 0.0411 v 0.0434 0.0434 z M 88.933435,251.7011 h -0.04111 v -0.0434 -0.0434 h 0.04111 0.04111 v 0.0434 0.0434 z"
       id="path2059" /><path
       style="fill:#183452"
       d="m 110.47262,257.60028 h -0.0411 v -0.0434 -0.0434 h 0.0411 0.0411 v 0.0434 0.0434 z m 42.25627,-0.60727 h -0.0411 v -0.0434 -0.0434 h 0.0411 0.0411 v 0.0434 0.0434 z m 32.80204,-0.0868 h -0.0411 v -0.0434 -0.0434 h 0.0411 0.0411 v 0.0434 0.0434 z m -5.4122,-0.63619 -0.0548,0.0578 v -0.11567 -0.11568 l 0.0548,0.0578 0.0548,0.0578 z M 82.192163,255.6917 h -0.0411 v -0.0434 -0.0434 h 0.0411 0.04111 v 0.0434 0.0434 z m 39.461107,-0.1735 h -0.0411 v -0.0434 -0.0434 h 0.0411 0.0411 v 0.0434 0.0434 z m 59.35607,0 h -0.0411 v -0.0434 -0.0434 h 0.0411 0.0411 v 0.0434 0.0434 z m -56.56091,-0.69403 h -0.0411 v -0.0434 -0.0434 h 0.0411 0.0411 v 0.0434 0.0434 z m 55.6566,-0.0868 h -0.0411 v -0.0434 -0.0434 h 0.0411 0.0411 v 0.0434 0.0434 z m -28.19825,-0.26026 h -0.0411 v -0.0434 -0.0434 h 0.0411 0.0411 v 0.0434 0.0434 z m -66.755034,-0.0868 h -0.04111 v -0.0434 -0.0434 h 0.04111 0.04111 v 0.0434 0.0434 z m -10.44075,-0.0867 h -0.04111 v -0.0434 -0.0434 h 0.04111 0.04111 v 0.0434 0.0434 z m 14.222439,-2.4291 h -0.04111 v -0.0434 -0.0434 h 0.04111 0.04111 v 0.0434 0.0434 z m 61.493555,-0.1735 h -0.0411 v -0.0434 -0.0434 h 0.0411 0.0411 v 0.0434 0.0434 z"
       id="path2058" /><path
       style="fill:#183451"
       d="m 151.98899,255.60495 h -0.0411 v -0.0434 -0.0434 h 0.0411 0.0411 v 0.0434 0.0434 z m -0.41105,-0.17351 h -0.0411 v -0.0434 -0.0434 h 0.0411 0.0411 v 0.0434 0.0434 z m 0.0822,-0.95428 h -0.0411 v -0.0434 -0.0434 h 0.0411 0.0411 v 0.0434 0.0434 z m 1.80863,0 h -0.0411 v -0.0434 -0.0434 h 0.0411 0.0411 v 0.0434 0.0434 z m 0.32199,-0.007 -0.15757,-0.007 0.1079,-0.0456 0.10791,-0.0456 0.0497,0.0524 0.0497,0.0524 z m 0.50012,0.007 h -0.0411 v -0.0434 -0.0434 h 0.0411 0.0411 v 0.0434 0.0434 z m 0.32884,0 h -0.0411 v -0.0434 -0.0434 h 0.0411 0.0411 v 0.0434 0.0434 z m -95.035491,-0.17351 h -0.0411 v -0.0434 -0.0434 h 0.0411 0.04111 v 0.0434 0.0434 z m 94.871071,-2.08208 h -0.0411 v -0.0434 -0.0434 h 0.0411 0.0411 v 0.0434 0.0434 z m -41.59858,-0.86754 h -0.0411 v -0.0434 -0.0434 h 0.0411 0.0411 v 0.0434 0.0434 z"
       id="path2057" /><path
       style="fill:#173451"
       d="m 82.192163,256.99301 h -0.0411 v -0.0434 -0.0434 h 0.0411 0.04111 v 0.0434 0.0434 z m 81.963997,-1.82183 h -0.0411 v -0.0434 -0.0434 h 0.0411 0.0411 v 0.0434 0.0434 z m 13.48255,-2.08208 h -0.0411 v -0.0434 -0.0434 h 0.0411 0.0411 v 0.0434 0.0434 z m -2.05527,-0.26026 h -0.0411 v -0.0434 -0.0434 h 0.0411 0.0411 v 0.0434 0.0434 z m -92.651381,-0.34701 h -0.04111 v -0.0434 -0.0434 h 0.04111 0.04111 v 0.0434 0.0434 z m -1.31537,-0.0867 h -0.0411 v -0.0434 -0.0434 h 0.0411 0.04111 v 0.0434 0.0434 z"
       id="path2056" /><path
       style="fill:#163250"
       d="m 100.77177,256.90625 h -0.0411 v -0.0434 -0.0434 h 0.0411 0.0411 v 0.0434 0.0434 z M 86.384906,256.8195 H 86.3438 v -0.0434 -0.0434 h 0.04111 0.04111 v 0.0434 0.0434 z m 93.720124,-0.0867 h -0.0411 v -0.0434 -0.0434 h 0.0411 0.0411 v 0.0434 0.0434 z M 65.092352,256.55924 h -0.04111 v -0.0434 -0.0434 h 0.04111 0.04111 v 0.0434 0.0434 z m 89.116328,-0.0867 h -0.0411 v -0.0434 -0.0434 h 0.0411 0.0411 v 0.0434 0.0434 z m 31.65109,-0.26026 h -0.0411 v -0.0434 -0.0434 h 0.0411 0.0411 v 0.0434 0.0434 z m -5.09706,-0.69403 h -0.0411 v -0.0434 -0.0434 h 0.0411 0.0411 v 0.0434 0.0434 z M 74.710996,255.25794 h -0.04111 v -0.0434 -0.0434 h 0.04111 0.04111 v 0.0434 0.0434 z m 109.915614,-0.34702 h -0.0411 v -0.0434 -0.0434 h 0.0411 0.0411 v 0.0434 0.0434 z m 4.27495,-0.0867 h -0.0411 v -0.0434 -0.0434 h 0.0411 0.0411 v 0.0434 0.0434 z m -39.4611,-0.17351 h -0.0411 v -0.0434 -0.0434 h 0.0411 0.0411 v 0.0434 0.0434 z m 2.05527,-0.1735 h -0.0411 v -0.0434 -0.0434 h 0.0411 0.0411 v 0.0434 0.0434 z m 0.49326,0 h -0.0411 v -0.0434 -0.0434 h 0.0411 0.0411 v 0.0434 0.0434 z m 0.57548,0 h -0.0411 v -0.0434 -0.0434 h 0.0411 0.0411 v 0.0434 0.0434 z m 1.64421,0 h -0.0411 v -0.0434 -0.0434 h 0.0411 0.0411 v 0.0434 0.0434 z m 0.73989,-0.69403 h -0.0411 v -0.0434 -0.0434 h 0.0411 0.0411 v 0.0434 0.0434 z m -93.802329,-0.0867 h -0.04111 v -0.0434 -0.0434 h 0.04111 0.04111 v 0.0434 0.0434 z m 88.294219,-0.17351 h -0.0411 v -0.0434 -0.0434 h 0.0411 0.0411 v 0.0434 0.0434 z m 9.37201,0 h -0.0411 v -0.0434 -0.0434 h 0.0411 0.0411 v 0.0434 0.0434 z m -93.96675,-1.99533 h -0.04111 v -0.0434 -0.0434 h 0.04111 0.04111 v 0.0434 0.0434 z m 88.78748,-0.0867 h -0.0411 v -0.0434 -0.0434 h 0.0411 0.0411 v 0.0434 0.0434 z M 60.488556,250.3999 h -0.04111 v -0.0434 -0.0434 h 0.04111 0.04111 v 0.0434 0.0434 z m 103.667604,-0.86754 h -0.0411 v -0.0434 -0.0434 h 0.0411 0.0411 v 0.0434 0.0434 z"
       id="path2055" /><path
       style="fill:#153250"
       d="m 69.696147,256.99301 h -0.04111 v -0.0434 -0.0434 h 0.04111 0.04111 v 0.0434 0.0434 z m 17.921918,0 h -0.04111 v -0.0434 -0.0434 h 0.04111 0.04111 v 0.0434 0.0434 z m -9.043169,-0.0868 h -0.04111 v -0.0434 -0.0434 h 0.04111 0.04111 v 0.0434 0.0434 z m 96.186444,-0.43376 h -0.0411 v -0.0434 -0.0434 h 0.0411 0.0411 v 0.0434 0.0434 z m 5.34369,-0.43377 h -0.0411 v -0.0434 -0.0434 h 0.0411 0.0411 v 0.0434 0.0434 z m 8.79653,0 h -0.0411 v -0.0434 -0.0434 h 0.0411 0.0411 v 0.0434 0.0434 z M 157.4971,255.6917 h -0.0411 v -0.0434 -0.0434 h 0.0411 0.0411 v 0.0434 0.0434 z M 81.041214,255.605 h -0.04111 v -0.0434 -0.0434 h 0.04111 0.04111 v 0.0434 0.0434 z m -6.330218,-0.0867 h -0.04111 v -0.0434 -0.0434 h 0.04111 0.04111 v 0.0434 0.0434 z m 81.799584,-0.0868 h -0.0411 v -0.0434 -0.0434 h 0.0411 0.0411 v 0.0434 0.0434 z m -91.911492,-0.43376 h -0.04111 v -0.0434 -0.0434 h 0.04111 0.04111 v 0.0434 0.0434 z m 1.973055,0 h -0.04111 v -0.0434 -0.0434 h 0.04111 0.04111 v 0.0434 0.0434 z m 18.579603,-0.43377 h -0.04111 v -0.0434 -0.0434 h 0.04111 0.04111 v 0.0434 0.0434 z m 74.976094,-0.17351 h -0.0411 v -0.0434 -0.0434 h 0.0411 0.0411 v 0.0434 0.0434 z M 74.710996,254.1302 h -0.04111 v -0.0434 -0.0434 h 0.04111 0.04111 v 0.0434 0.0434 z m 84.594744,-0.43376 h -0.0411 v -0.0434 -0.0434 h 0.0411 0.0411 v 0.0434 0.0434 z m -91.253806,-0.0868 h -0.04111 v -0.0434 -0.0434 h 0.04111 0.04111 v 0.0434 0.0434 z m 2.54853,-0.0867 h -0.04111 v -0.0434 -0.0434 h 0.04111 0.04111 v 0.0434 0.0434 z m -2.301898,-0.52052 h -0.0411 v -0.0434 -0.0434 h 0.0411 0.04111 v 0.0434 0.0434 z m 108.929084,-0.34701 h -0.0411 v -0.0434 -0.0434 h 0.0411 0.0411 v 0.0434 0.0434 z m -21.53918,-0.26026 h -0.0411 v -0.0434 -0.0434 h 0.0411 0.0411 v 0.0434 0.0434 z m 1.97305,0 h -0.0411 v -0.0434 -0.0434 h 0.0411 0.0411 v 0.0434 0.0434 z m -26.80066,-0.43377 h -0.0411 v -0.0434 -0.0434 h 0.0411 0.0411 v 0.0434 0.0434 z m 36.3371,-0.0868 h -0.0411 v -0.0434 -0.0434 h 0.0411 0.0411 v 0.0434 0.0434 z m -36.3234,-0.11567 -0.0548,0.0578 v -0.11567 -0.11567 l 0.0548,0.0578 0.0548,0.0578 z m 36.3234,-0.40485 h -0.0411 v -0.0434 -0.0434 h 0.0411 0.0411 v 0.0434 0.0434 z m 8.46769,-0.1735 h -0.0411 v -0.0434 -0.0434 h 0.0411 0.0411 v 0.0434 0.0434 z m -94.048961,-0.0868 h -0.0411 v -0.0434 -0.0434 h 0.0411 0.04111 v 0.0434 0.0434 z"
       id="path2054" /><path
       style="fill:#14314f"
       d="M 77.91721,256.90625 H 77.8761 v -0.0434 -0.0434 h 0.04111 0.04111 v 0.0434 0.0434 z m 14.510177,0 h -0.109614 l 0.05481,-0.0578 0.05481,-0.0578 0.05481,0.0578 0.05481,0.0578 z m 6.864588,0 h -0.0411 v -0.0434 -0.0434 h 0.0411 0.04111 v 0.0434 0.0434 z m 59.438285,0 h -0.0411 v -0.0434 -0.0434 h 0.0411 0.0411 v 0.0434 0.0434 z m -27.8694,-0.0867 h -0.0411 v -0.0434 -0.0434 h 0.0411 0.0411 v 0.0434 0.0434 z m 1.562,0 h -0.0411 v -0.0434 -0.0434 h 0.0411 0.0411 v 0.0434 0.0434 z m 34.7751,-0.0867 h -0.0411 v -0.0434 -0.0434 h 0.0411 0.0411 v 0.0434 0.0434 z m 1.562,0 h -0.0411 v -0.0434 -0.0434 h 0.0411 0.0411 v 0.0434 0.0434 z m -79.744314,-0.0868 h -0.04111 v -0.0434 -0.0434 h 0.04111 0.04111 v 0.0434 0.0434 z m 6.905693,0 h -0.04111 v -0.0434 -0.0434 h 0.04111 0.04111 v 0.0434 0.0434 z m 82.046211,0 h -0.0411 v -0.0434 -0.0434 h 0.0411 0.0411 v 0.0434 0.0434 z m -10.76959,-0.0867 h -0.0411 v -0.0434 -0.0434 h 0.0411 0.0411 v 0.0434 0.0434 z m 1.562,-0.0867 h -0.0411 v -0.0434 -0.0434 h 0.0411 0.0411 v 0.0434 0.0434 z M 85.64501,256.21239 H 85.6039 v -0.0434 -0.0434 h 0.04111 0.04111 v 0.0434 0.0434 z m 94.46002,-0.0868 h -0.0411 v -0.0434 -0.0434 h 0.0411 0.0411 v 0.0434 0.0434 z m -39.05005,-0.0867 h -0.0411 v -0.0434 -0.0434 h 0.0411 0.0411 v 0.0434 0.0434 z m -66.343984,-0.17351 h -0.04111 v -0.0434 -0.0434 h 0.04111 0.04111 v 0.0434 0.0434 z m 105.407734,-0.0289 -0.0548,0.0578 v -0.11567 -0.11567 l 0.0548,0.0578 0.0548,0.0578 z m -1.32907,-0.0578 h -0.0411 v -0.0434 -0.0434 h 0.0411 0.0411 v 0.0434 0.0434 z m -40.03658,-0.0868 h -0.0411 v -0.0434 -0.0434 h 0.0411 0.0411 v 0.0434 0.0434 z m -64.042084,-0.0867 h -0.04111 v -0.0434 -0.0434 h 0.04111 0.04111 v 0.0434 0.0434 z m 13.318122,-0.0867 h -0.04111 v -0.0434 -0.0434 h 0.04111 0.04111 v 0.0434 0.0434 z m 87.965382,0 h -0.0411 v -0.0434 -0.0434 h 0.0411 0.0411 v 0.0434 0.0434 z m 4.11053,0 h -0.0411 v -0.0434 -0.0434 h 0.0411 0.0411 v 0.0434 0.0434 z m 0.98652,0 h -0.0411 v -0.0434 -0.0434 h 0.0411 0.0411 v 0.0434 0.0434 z m 0.24664,0 h -0.0411 v -0.0434 -0.0434 h 0.0411 0.0411 v 0.0434 0.0434 z m 0.90431,0 h -0.0411 v -0.0434 -0.0434 h 0.0411 0.0411 v 0.0434 0.0434 z m -41.18752,-0.0868 h -0.0411 v -0.0434 -0.0434 h 0.0411 0.0411 v 0.0434 0.0434 z m 39.05005,-0.60727 h -0.0411 v -0.0434 -0.0434 h 0.0411 0.0411 v 0.0434 0.0434 z m -39.05005,-0.0868 h -0.0411 v -0.0434 -0.0434 h 0.0411 0.0411 v 0.0434 0.0434 z m 0.0137,-0.20243 -0.0548,0.0578 v -0.11567 -0.11567 l 0.0548,0.0578 0.0548,0.0578 z m 41.17382,0.0289 h -0.0411 v -0.0434 -0.0434 h 0.0411 0.0411 v 0.0434 0.0434 z m -30.99341,-0.0867 h -0.0411 v -0.0434 -0.0434 h 0.0411 0.0411 v 0.0434 0.0434 z m 0.16443,0 h -0.0411 v -0.0434 -0.0434 h 0.0411 0.0411 v 0.0434 0.0434 z m 0.41105,0 h -0.0411 v -0.0434 -0.0434 h 0.0411 0.0411 v 0.0434 0.0434 z m 0.24663,0 h -0.0411 v -0.0434 -0.0434 h 0.0411 0.0411 v 0.0434 0.0434 z m 0.32884,0 h -0.0411 v -0.0434 -0.0434 h 0.0411 0.0411 v 0.0434 0.0434 z m 0.24664,0 h -0.0411 v -0.0434 -0.0434 h 0.0411 0.0411 v 0.0434 0.0434 z m 0.24663,0 h -0.0411 v -0.0434 -0.0434 h 0.0411 0.0411 v 0.0434 0.0434 z m -11.83833,-0.17351 h -0.0411 v -0.0434 -0.0434 h 0.0411 0.0411 v 0.0434 0.0434 z m -66.343984,-0.0867 h -0.04111 v -0.0434 -0.0434 h 0.04111 0.04111 v 0.0434 0.0434 z m 113.532884,-0.0868 h -0.0411 v -0.0434 -0.0434 h 0.0411 0.0411 v 0.0434 0.0434 z m -103.092134,-0.0868 h -0.04111 v -0.0434 -0.0434 h 0.04111 0.04111 v 0.0434 0.0434 z m 55.903234,-0.17351 h -0.0411 v -0.0434 -0.0434 h 0.0411 0.0411 v 0.0434 0.0434 z m 31.57744,-0.197 -0.0497,0.0524 0.006,-0.16627 0.006,-0.16628 0.0432,0.11386 0.0432,0.11387 z m -89.864782,-0.15001 h -0.04111 v -0.0434 -0.0434 h 0.04111 0.04111 v 0.0434 0.0434 z m -5.754745,-0.17351 h -0.04111 v -0.0434 -0.0434 h 0.04111 0.04111 v 0.0434 0.0434 z m 73.989567,-0.0867 h -0.0411 v -0.0434 -0.0434 h 0.0411 0.0411 v 0.0434 0.0434 z m 4.6038,-0.17351 h -0.0411 v -0.0434 -0.0434 h 0.0411 0.0411 v 0.0434 0.0434 z m -18.90845,-0.1735 h -0.0411 v -0.0434 -0.0434 h 0.0411 0.0411 v 0.0434 0.0434 z m 20.38824,0 h -0.0411 v -0.0434 -0.0434 h 0.0411 0.0411 v 0.0434 0.0434 z m -22.03245,-0.0868 h -0.0411 v -0.0434 -0.0434 h 0.0411 0.0411 v 0.0434 0.0434 z m -58.53397,-0.1735 h -0.04111 v -0.0434 -0.0434 h 0.04111 0.0411 v 0.0434 0.0434 z m 6.001376,-0.26026 h -0.04111 v -0.0434 -0.0434 h 0.04111 0.04111 v 0.0434 0.0434 z m 89.856224,-0.17351 h -0.0411 v -0.0434 -0.0434 h 0.0411 0.0411 v 0.0434 0.0434 z m -83.430093,-0.20243 -0.05481,0.0578 v -0.11567 -0.11567 l 0.05481,0.0578 0.05481,0.0578 z M 59.66645,251.7878 h -0.0411 v -0.0434 -0.0434 h 0.0411 0.04111 v 0.0434 0.0434 z m 8.056642,-0.26026 h -0.0411 v -0.0434 -0.0434 h 0.0411 0.04111 v 0.0434 0.0434 z m 12.578227,0 h -0.04111 v -0.0434 -0.0434 h 0.04111 0.0411 v 0.0434 0.0434 z m 8.632116,0 h -0.04111 v -0.0434 -0.0434 h 0.04111 0.04111 v 0.0434 0.0434 z m 78.264525,0 h -0.0411 v -0.0434 -0.0434 h 0.0411 0.0411 v 0.0434 0.0434 z m -36.3371,-0.17351 h -0.0411 v -0.0434 -0.0434 h 0.0411 0.0411 v 0.0434 0.0434 z m -62.644504,-0.0867 h -0.04111 v -0.0434 -0.0434 h 0.04111 0.04111 v 0.0434 0.0434 z m 28.773721,0 h -0.04111 v -0.0434 -0.0434 h 0.04111 0.04111 v 0.0434 0.0434 z m 59.849343,0 h -0.0411 v -0.0434 -0.0434 h 0.0411 0.0411 v 0.0434 0.0434 z m 10.35854,0 h -0.0411 v -0.0434 -0.0434 h 0.0411 0.0411 v 0.0434 0.0434 z m -14.22244,-0.0867 h -0.0411 v -0.0434 -0.0434 h 0.0411 0.0411 v 0.0434 0.0434 z m -0.98653,-0.0868 h -0.0411 v -0.0434 -0.0434 h 0.0411 0.0411 v 0.0434 0.0434 z m -87.389902,-1.56156 h -0.04111 v -0.0434 -0.0434 h 0.04111 0.04111 v 0.0434 0.0434 z m 57.876282,-4.94494 h -0.0411 v -0.0434 -0.0434 h 0.0411 0.0411 v 0.0434 0.0434 z m 14.55129,-0.26026 h -0.0411 v -0.0434 -0.0434 h 0.0411 0.0411 v 0.0434 0.0434 z m -41.187532,-4.77144 h -0.04111 v -0.0434 -0.0434 h 0.04111 0.04111 v 0.0434 0.0434 z m -52.368173,-1.82182 h -0.0411 v -0.0434 -0.0434 h 0.0411 0.04111 v 0.0434 0.0434 z M 134.3137,237.647 h -0.0411 v -0.0434 -0.0434 h 0.0411 0.0411 v 0.0434 0.0434 z m 3.8639,-0.26026 h -0.0411 v -0.0434 -0.0434 h 0.0411 0.0411 v 0.0434 0.0434 z m -11.83833,-1.90858 h -0.0411 v -0.0434 -0.0434 h 0.0411 0.0411 v 0.0434 0.0434 z M 13.053021,235.2179 h -0.0411 v -0.0434 -0.0434 h 0.0411 0.0411 v 0.0434 0.0434 z m 117.478999,-0.60727 h -0.0411 v -0.0434 -0.0434 h 0.0411 0.0411 v 0.0434 0.0434 z M 15.930393,234.17686 h -0.0411 v -0.0434 -0.0434 h 0.0411 0.04111 v 0.0434 0.0434 z m 111.313197,-0.78078 h -0.0411 v -0.0434 -0.0434 h 0.0411 0.0411 v 0.0434 0.0434 z m 9.12538,-0.17351 h -0.0411 v -0.0434 -0.0434 h 0.0411 0.0411 v 0.0434 0.0434 z m -126.0289,-0.95429 h -0.0411 v -0.0434 -0.0434 h 0.0411 0.04111 v 0.0434 0.0434 z m 80.900115,0 h -0.03625 l -0.05866,-0.10015 -0.05866,-0.10016 0.09491,0.0619 0.09491,0.0619 v 0.0383 0.0383 z m -81.146747,-0.26026 h -0.0411 v -0.0434 -0.0434 h 0.0411 0.04111 v 0.0434 0.0434 z m 80.237578,-0.52052 h -0.04111 v -0.0434 -0.0434 h 0.04111 0.04111 v 0.0434 0.0434 z m -2.055266,-0.78078 h -0.04111 v -0.0434 -0.0434 h 0.04111 0.04111 v 0.0434 0.0434 z m -79.4154712,-0.0867 h -0.041105 v -0.0434 -0.0434 h 0.041105 0.041105 v 0.0434 0.0434 z M 8.2848044,230.0127 h -0.041105 v -0.0434 -0.0434 h 0.041105 0.041105 v 0.0434 0.0434 z m -0.4110532,-0.43377 h -0.041105 v -0.0434 -0.0434 h 0.041105 0.041105 v 0.0434 0.0434 z M 128.97001,229.31867 h -0.0411 v -0.0434 -0.0434 h 0.0411 0.0411 v 0.0434 0.0434 z m -115.9992,-0.0867 h -0.0411 v -0.0434 -0.0434 h 0.0411 0.04111 v 0.0434 0.0434 z m 79.826525,-0.43377 h -0.04111 v -0.0434 -0.0434 h 0.04111 0.04111 v 0.0434 0.0434 z m -82.046212,-0.34702 h -0.0411 v -0.0434 -0.0434 h 0.0411 0.04111 v 0.0434 0.0434 z m 80.073157,-0.60727 h -0.04111 v -0.0434 -0.0434 h 0.04111 0.04111 v 0.0434 0.0434 z"
       id="path2053" /><path
       style="fill:#13304e"
       d="m 29.467744,279.63565 h -4.09683 l -0.05481,-0.0578 -0.05481,-0.0578 v -2.40655 -2.40656 l -0.3905,-0.33904 -0.390501,-0.33904 -1.841295,-1.46917 -1.841296,-1.46918 -0.419497,-0.35423 -0.419497,-0.35423 -2.260792,-1.8037 -2.260793,-1.80369 -1.233159,-0.97761 -1.23316,-0.97761 -0.150707,-0.1759 -0.150707,-0.17589 -0.152998,-1.72027 -0.152997,-1.72026 -0.128594,-1.25793 -0.128594,-1.25792 -0.408968,-4.4678 -0.408968,-4.4678 -0.165848,-1.60494 -0.165849,-1.60494 -0.168226,-1.34467 -0.168226,-1.34468 -0.206442,-0.86754 -0.206442,-0.86753 -0.2485002,-0.85642 -0.2485003,-0.85643 -0.684539,-2.04981 -0.684539,-2.04982 -0.535035,-1.51818 -0.5350351,-1.51819 -0.3769098,-1.0232 -0.3769098,-1.02321 v -0.0672 -0.0671 l 1.8735676,2.00127 1.8735676,2.00127 2.133103,2.29897 2.133103,2.29896 3.825279,4.07741 3.82528,4.07741 3.088611,3.29663 3.088612,3.29663 0.464641,0.62305 0.464642,0.62305 0.625709,1.01268 0.62571,1.01267 0.599693,1.27052 0.599693,1.27051 0.301197,0.8554 0.301197,0.85539 0.286027,1.09656 0.286026,1.09656 0.199693,1.21454 0.199692,1.21455 0.126128,1.23249 0.126127,1.23249 v 5.38246 5.38246 z m -0.0032,-3.47014 h 0.811596 l -7.92e-4,-3.66533 -7.91e-4,-3.66533 -0.119876,-1.1278 -0.119876,-1.12779 -0.131065,-0.73741 -0.131065,-0.7374 -0.123232,-0.52052 -0.123232,-0.52052 -0.254149,-0.86754 -0.254148,-0.86753 -0.366164,-0.91091 -0.366163,-0.91091 -0.374118,-0.73741 -0.374118,-0.7374 -0.363268,-0.59847 -0.363268,-0.59847 -0.463095,-0.61607 -0.463094,-0.61608 -3.635044,-3.90391 -3.635045,-3.9039 -2.311921,-2.4291 -2.311922,-2.42909 0.04503,0.43376 0.04503,0.43377 0.208988,2.21221 0.208989,2.21222 0.05814,0.14439 0.05814,0.14439 4.867165,5.1972 4.867165,5.19719 0.495959,0.62488 0.495959,0.62487 0.399912,0.6268 0.399912,0.62679 0.350064,0.65065 0.350064,0.65066 0.398485,1.06745 0.398485,1.06746 0.204013,0.71099 0.204013,0.71098 0.132692,0.60728 0.132692,0.60727 0.125698,0.86754 0.125697,0.86753 0.04498,2.9713 0.04498,2.97131 z m -4.301732,-6.15962 0.02484,-0.1503 -0.207097,-1.07933 -0.207097,-1.07933 -0.296995,-0.90585 -0.296995,-0.90585 -0.403567,-0.81305 -0.403568,-0.81306 -0.46,-0.67418 -0.459999,-0.67419 -0.23238,-0.23494 -0.232379,-0.23493 -0.07906,0.16061 -0.07906,0.16062 -0.05892,0.43376 -0.05892,0.43377 -0.10699,0.13013 -0.10699,0.13013 0.08378,0.53728 0.08378,0.53728 -0.04911,0.13506 -0.04911,0.13506 h -0.0739 -0.0739 l -0.09884,-0.45546 -0.09884,-0.45545 -0.04436,-0.28195 -0.04436,-0.28195 h -0.114322 -0.114321 v 0.41802 0.41802 l 0.125452,0.44579 0.125452,0.44579 0.08153,0.0532 0.08153,0.0532 0.316321,-0.26438 0.316321,-0.26437 0.142566,0.16624 0.142566,0.16623 -0.11095,0.16648 -0.11095,0.16649 -0.308076,0.35935 -0.308076,0.35935 h -0.114617 -0.114618 l -0.05457,0.22943 -0.05457,0.22943 0.06621,0.0591 0.06621,0.0591 0.739895,0.60443 0.739896,0.60444 0.728379,0.56011 0.72838,0.56012 0.50478,0.4004 0.50478,0.40041 z m -4.485165,-3.47001 h 0.06206 v -0.11843 -0.11843 l 0.167781,-0.22509 0.167781,-0.22508 -0.220511,-0.35163 -0.22051,-0.35163 -0.0011,-0.67122 -0.0011,-0.67122 0.03327,-0.16993 0.03327,-0.16993 -0.328843,-0.073 -0.328842,-0.073 -0.781001,-0.0664 -0.781001,-0.0664 -0.357362,-0.19555 -0.357362,-0.19556 -0.02624,0.0277 -0.02624,0.0277 -0.212426,0.44637 -0.212426,0.44636 v 0.0446 0.0446 l 0.554564,0.46337 0.554563,0.46338 0.493622,0.39647 0.493622,0.39648 0.616178,0.49274 0.616178,0.49275 z m -3.447853,-3.43618 0.232818,-0.48587 -0.293543,-0.58948 -0.293543,-0.58948 -0.02034,-0.4208 -0.02034,-0.4208 0.06321,-0.31349 0.06321,-0.31349 -0.433227,-0.10704 -0.433227,-0.10705 -0.228084,-0.004 -0.228084,-0.004 -0.05255,0.0554 -0.05255,0.0555 0.106445,1.38688 0.106445,1.38687 0.625277,0.47824 0.625277,0.47824 z m 3.4921,0.041 0.105504,0.0118 0.284996,-0.30075 0.284997,-0.30074 v -0.0624 -0.0624 l 0.15998,-0.1797 0.159979,-0.1797 -1.680659,-1.80723 -1.680659,-1.80722 -0.03445,0.11613 -0.03445,0.11614 -0.13849,0.40415 -0.138489,0.40414 0.137054,0.63588 0.137054,0.63588 0.131777,0.29304 0.131778,0.29305 0.335494,0.25834 0.335495,0.25833 0.472711,0.25335 0.472711,0.25335 v 0.19829 0.19828 l -0.09596,0.10126 -0.09596,0.10126 0.116511,0.042 0.11651,0.042 0.205527,0.0358 0.205526,0.0358 z m -1.708611,-0.25494 0.369948,-0.003 -0.449321,-0.18203 -0.449322,-0.18202 -0.41995,-0.44315 -0.419949,-0.44316 -0.13781,-0.4268 -0.137809,-0.42679 -0.0026,-0.35325 -0.0026,-0.35325 -0.120701,0.1684 -0.120702,0.1684 v 0.27131 0.27131 l 0.124407,0.44207 0.124406,0.44207 0.375009,0.39014 0.375009,0.39014 0.261033,0.13585 0.261033,0.13585 z m 0.486413,-0.34484 0.198676,0.004 -0.03426,-0.0345 -0.03425,-0.0345 -0.503396,-0.31023 -0.503395,-0.31022 -0.251906,-0.30276 -0.251906,-0.30276 -0.138993,-0.502 -0.138994,-0.502 -0.04782,-0.13013 -0.04782,-0.13013 -0.02907,0.32975 -0.02907,0.32976 0.133568,0.42435 0.133568,0.42436 0.307335,0.33419 0.307336,0.33419 0.365863,0.18699 0.365863,0.18699 z m -2.485988,-2.86306 0.0968,0.005 0.170388,-0.22858 0.170388,-0.22858 v -0.12764 -0.12763 l 0.232836,-0.31613 0.232837,-0.31612 0.06205,-0.11236 0.06205,-0.11236 -1.420225,-1.51426 -1.420224,-1.51427 h -0.07044 -0.07044 l 0.04101,0.28195 0.04101,0.28195 0.143959,1.63336 0.143959,1.63336 0.243387,0.18288 0.243387,0.18288 0.50024,0.19626 0.50024,0.19625 z m 18.485981,13.4513 h -0.04428 l 0.0025,-2.14715 0.0025,-2.14714 0.868992,-0.69403 0.868993,-0.69403 0.327726,-0.24853 0.327727,-0.24853 -0.0471,-0.18524 -0.0471,-0.18523 -0.0011,-0.0651 -0.0011,-0.0651 -0.143868,-0.007 -0.143869,-0.007 -0.3905,-0.47106 -0.390501,-0.47106 v -0.12607 -0.12607 l 0.181044,-0.10224 0.181045,-0.10225 0.03133,0.0992 0.03133,0.0992 h 0.08139 0.08139 l -0.03262,-0.15182 -0.03262,-0.15182 0.09539,-0.21688 0.09539,-0.21688 0.01616,-0.35831 0.01616,-0.35831 -0.117546,-0.0476 -0.117546,-0.0476 -0.05984,-0.46162 -0.05984,-0.46163 -0.103034,-0.15596 -0.103035,-0.15595 -0.421969,0.4996 -0.421969,0.4996 -0.471863,0.7611 -0.471863,0.7611 -0.04111,-3e-5 -0.04111,-2e-5 -0.428727,-1.79875 -0.428726,-1.79875 -0.09985,-0.35989 -0.09984,-0.35989 0.960178,-1.06824 0.960178,-1.06823 v -0.15916 -0.15916 l -0.246112,-0.14778 -0.246113,-0.14778 -5.19e-4,-0.0665 -5.2e-4,-0.0665 -0.369948,-0.37406 -0.369948,-0.37406 v -0.14195 -0.14195 l 0.166121,-0.0938 0.16612,-0.0938 0.07272,0.0474 0.07272,0.0474 0.07366,-0.62899 0.07366,-0.629 -0.100899,-0.13013 -0.100899,-0.13013 -0.03147,-0.34702 -0.03146,-0.34701 -1.287469,1.37801 -1.28747,1.378 -0.146375,-0.28288 -0.146375,-0.28289 -0.760222,-1.21826 -0.760221,-1.21826 0.02033,-0.0216 0.02033,-0.0216 2.499661,-2.67475 2.499662,-2.67475 5.762507,-6.15914 5.762507,-6.15914 2.588951,-2.75693 2.588952,-2.75694 0.02168,0.0686 0.02168,0.0686 -0.416343,1.12639 -0.416342,1.12639 -0.316189,0.91091 -0.316189,0.91091 -0.573317,1.64832 -0.573317,1.64831 -0.495711,1.60494 -0.49571,1.60494 -0.2071,0.82416 -0.207099,0.82415 -0.128887,0.73741 -0.128888,0.7374 -0.164555,1.4994 -0.164555,1.49939 -0.160977,1.79723 -0.160977,1.79724 -0.167972,1.73507 -0.167971,1.73507 -0.166256,1.8652 -0.166257,1.86519 -0.164724,1.82183 -0.164723,1.82182 -0.112504,1.1077 -0.112505,1.10771 -0.10431,0.13263 -0.10431,0.13263 -0.623841,0.49795 -0.623842,0.49795 -2.01416,1.60733 -2.014161,1.60733 -1.808634,1.47008 -1.808633,1.47009 -0.79838,0.62808 -0.798379,0.62807 z m 2.745014,-6.59326 h 0.07634 l 1.057406,-0.84584 1.057407,-0.84585 0.588147,-0.47714 0.588147,-0.47715 0.0045,-0.11132 0.0045,-0.11133 -0.206911,-0.43088 -0.206912,-0.43089 h -0.03719 -0.03719 l -0.348754,0.19183 -0.348755,0.19183 -0.784173,0.0629 -0.784173,0.0629 -0.246632,0.0559 -0.246632,0.0559 -0.100353,0.0326 -0.100353,0.0326 0.115065,0.34416 0.115065,0.34415 -0.120008,0.54285 -0.120008,0.54286 -0.168079,0.28698 -0.168079,0.28699 0.170611,0.25284 0.170612,0.25284 v 0.0951 0.0951 z m -0.600645,-0.95429 h 0.100498 l 0.08427,-0.28195 0.08427,-0.28194 0.0852,-0.50717 0.0852,-0.50716 -0.0883,-0.1741 -0.0883,-0.17411 -0.116911,0.2378 -0.116912,0.2378 -0.149248,0.63625 -0.149248,0.63625 0.0845,0.0892 0.0845,0.0892 z m 4.286234,-1.99819 0.02135,0.003 0.608574,-0.47493 0.608575,-0.47493 0.05214,-0.67455 0.05214,-0.67455 0.06236,-0.72172 0.06236,-0.72171 -0.151103,-0.0853 -0.151102,-0.0853 -0.264477,0.0918 -0.264476,0.0918 -0.287737,0.0701 -0.287737,0.0701 0.01563,0.0603 0.01563,0.0603 0.05493,0.38654 0.05493,0.38654 -0.09809,0.43146 -0.09809,0.43147 -0.236257,0.39312 -0.236258,0.39313 0.222683,0.52029 0.222683,0.52029 z m -3.803037,-0.43538 0.08221,0.004 0.302742,-0.0887 0.302743,-0.0887 -0.041,-0.27949 -0.041,-0.27949 0.587882,-0.33443 0.587883,-0.33443 0.26886,-0.2491 0.268861,-0.24911 0.129441,-0.37075 0.129442,-0.37075 0.08799,-0.47714 0.08799,-0.47715 -0.06769,-0.21688 -0.06769,-0.21689 -0.104772,-0.28194 -0.104772,-0.28195 -0.05361,0.0131 -0.05362,0.0131 -1.640618,1.76389 -1.640617,1.76388 0.160826,0.17183 0.160826,0.17183 0.287737,0.34613 0.287737,0.34612 z m 1.842542,-0.25585 0.362751,7e-5 0.391389,-0.26503 0.391389,-0.26504 0.202604,-0.2803 0.202604,-0.28031 0.132547,-0.41198 0.132547,-0.41198 -0.0013,-0.27892 -0.0013,-0.27891 -0.07176,-0.11956 -0.07176,-0.11956 -0.09475,0.0618 -0.09475,0.0618 0.05105,0.16973 0.05105,0.16973 -0.141762,0.47561 -0.141763,0.4756 -0.33423,0.40069 -0.33423,0.40069 -0.496583,0.2479 -0.496582,0.24791 z m -0.216119,-0.4434 0.416434,-0.17321 0.308024,-0.25744 0.308024,-0.25744 0.184132,-0.40138 0.184132,-0.40139 0.0373,-0.40962 0.0373,-0.40962 -0.09164,-0.0598 -0.09164,-0.0598 v 0.18079 0.18079 l -0.163835,0.4919 -0.163834,0.49189 -0.267771,0.29299 -0.267772,0.29299 -0.473235,0.28236 -0.473234,0.28235 0.0506,0.0534 0.0506,0.0534 z m 2.140312,-2.76598 0.09716,4.3e-4 0.411053,-0.14845 0.411053,-0.14845 0.328843,-0.22372 0.328842,-0.22372 0.180178,-1.90337 0.180178,-1.90337 -0.03954,-0.0417 -0.03954,-0.0417 -1.239127,1.34086 -1.239127,1.34085 -0.193523,0.2417 -0.193524,0.24171 0.284928,0.3939 0.284928,0.3939 v 0.0884 0.0884 l 0.170019,0.25197 0.170019,0.25196 z m -5.63229,-1.64876 h 0.05531 l 1.501156,-1.58237 1.501155,-1.58237 v -0.0603 -0.0603 l -0.08094,-0.22465 -0.08094,-0.22465 -0.33907,0.23679 -0.339071,0.23678 -0.792597,0.0546 -0.792597,0.0545 -0.356635,0.1172 -0.356636,0.1172 0.06409,0.26593 0.06409,0.26593 -0.0056,0.37234 -0.0056,0.37235 -0.242754,0.51683 -0.242754,0.51684 0.148287,0.14161 0.148286,0.14162 0.04874,0.16206 0.04874,0.16207 z m -0.577088,-1.01711 0.10679,-0.15406 0.04322,-0.21689 0.04322,-0.21688 0.07652,-0.19928 0.07652,-0.19928 v -0.23959 -0.2396 l -0.127573,-0.1684 -0.127572,-0.1684 0.05768,0.21688 0.05768,0.21689 0.0082,0.0868 0.0082,0.0867 -0.08221,0.0268 -0.08221,0.0268 -0.04337,-0.19388 -0.04337,-0.19389 -0.100496,-0.0353 -0.100495,-0.0353 -0.002,0.37593 -0.002,0.37593 -0.07323,0.33298 -0.07323,0.33299 0.136392,0.1681 0.136392,0.16809 z m -0.229193,-2.01926 0.07969,-0.13013 v -0.0868 -0.0867 l -0.07969,0.13013 -0.07969,0.13013 v 0.0868 0.0868 z m 0.616579,-0.26221 0.08221,9.8e-4 0.305119,-0.0894 0.305119,-0.0894 -0.07963,-0.22101 -0.07963,-0.22101 0.04781,-0.0816 0.04781,-0.0816 0.558185,-0.29663 0.558184,-0.29663 0.220629,-0.27669 0.220629,-0.2767 0.150977,-0.31374 0.150976,-0.31374 0.09567,-0.48924 0.09567,-0.48925 -0.106706,-0.27185 -0.106706,-0.27186 -1.599653,1.69089 -1.599654,1.69088 0.325389,0.34837 0.325389,0.34837 z m 1.890845,-0.21262 0.164421,-0.0433 0.130377,-10e-4 0.130377,-0.001 0.371147,-0.30514 0.371147,-0.30514 0.218194,-0.42304 0.218194,-0.42305 0.04787,-0.37792 0.04787,-0.37792 -0.08732,-0.23858 -0.08732,-0.23857 h -0.06663 -0.06663 l -5.65e-4,0.45546 -5.66e-4,0.45545 -0.240366,0.46461 -0.240366,0.46462 -0.28948,0.2518 -0.28948,0.2518 -0.354949,0.14304 -0.354948,0.14305 0.107295,0.0743 0.107296,0.0743 z m 1.66273,-0.0454 0.06369,2.6e-4 1.581456,-1.71046 1.581455,-1.71047 -0.08623,-0.0899 -0.08623,-0.0899 -0.07434,0.13892 -0.07434,0.13893 -0.371389,0.14967 -0.371388,0.14967 -0.556235,-0.0385 -0.556235,-0.0385 -0.435583,0.1309 -0.435582,0.13089 0.05916,0.26967 0.05916,0.26967 -0.01321,0.43377 -0.01321,0.43377 -0.243808,0.50345 -0.243809,0.50345 0.07648,0.21226 0.07648,0.21227 z m -2.499758,-0.26052 h 0.02618 l 0.430873,-0.13503 0.430874,-0.13503 0.336844,-0.32042 0.336844,-0.32043 0.191823,-0.43377 0.191823,-0.43377 8.03e-4,-0.38605 8.03e-4,-0.38605 -0.07009,0.0824 -0.07009,0.0824 -0.106117,0.41623 -0.106116,0.41623 -0.249016,0.36275 -0.249015,0.36275 -0.170805,0.15573 -0.170804,0.15573 -0.3905,0.21623 -0.390501,0.21624 v 0.0419 0.0419 z m 2.595018,-2.86541 0.03157,0.003 0.319043,-0.10087 0.319044,-0.10087 -0.0505,-0.28408 -0.0505,-0.28408 0.579213,-0.3078 0.579214,-0.30781 0.218325,-0.23984 0.218326,-0.23984 0.193244,-0.42888 0.193244,-0.42887 0.05488,-0.46351 0.05488,-0.4635 -0.102742,-0.38724 -0.102741,-0.38723 h -0.05179 -0.05179 l -1.549602,1.63693 -1.549602,1.63693 0.139366,0.22445 0.139366,0.22446 -0.05178,0.0884 -0.05178,0.0884 0.270771,0.25987 0.270772,0.25988 z m 1.78115,-0.25772 h 0.291819 l 0.263102,-0.14298 0.263102,-0.14299 0.265155,-0.21269 0.265154,-0.21269 0.210273,-0.45353 0.210273,-0.45353 0.0053,-0.38365 0.0053,-0.38365 -0.09255,-0.25061 -0.09255,-0.2506 -0.05601,0.0591 -0.05601,0.0591 0.02229,0.32572 0.02229,0.32573 -0.171437,0.48353 -0.171438,0.48352 -0.300883,0.32693 -0.300883,0.32693 -0.43708,0.21116 -0.437079,0.21116 v 0.037 0.037 z m -0.456241,-0.39826 0.205526,-0.0581 0.351643,-0.17286 0.351643,-0.17285 0.275769,-0.33998 0.275769,-0.33998 0.09829,-0.37046 0.09829,-0.37046 -0.02809,-0.29825 -0.02809,-0.29824 -0.142088,0.47714 -0.142088,0.47715 -0.187368,0.34701 -0.187368,0.34701 -0.40926,0.27942 -0.409259,0.27941 -0.164422,0.13611 -0.164421,0.13611 z m 2.036641,0.0512 h 0.06359 l 0.625684,-0.67234 0.625684,-0.67234 0.04465,-0.67748 0.04465,-0.67748 -0.09679,-0.0369 -0.09679,-0.0369 -0.411054,0.11641 -0.411053,0.11641 0.03032,0.12083 0.03031,0.12084 0.04175,0.366 0.04175,0.366 -0.09741,0.41478 -0.09741,0.41478 -0.200733,0.32346 -0.200733,0.32347 v 0.0452 0.0452 z m 0.702919,-3.00808 0.414999,-0.1136 0.04638,-0.0721 0.04638,-0.0721 0.126127,-0.0488 0.126128,-0.0488 0.147601,-1.5064 0.1476,-1.50641 0.04412,-0.21688 0.04412,-0.21688 -1.201616,1.2568 -1.201617,1.2568 v 0.072 0.072 l 0.212574,0.2941 0.212574,0.2941 -0.05174,0.0884 -0.05174,0.0883 0.261551,0.24661 0.261551,0.24661 z m 75.338858,15.04518 -59.909869,0.0217 v -0.17356 -0.17357 h 59.937579 59.93758 l -0.0277,0.15182 -0.0277,0.15182 z m -7.5828,-3.82875 -0.90432,0.0244 -0.36104,-0.0799 -0.36104,-0.0799 -0.52272,-0.25813 -0.52273,-0.25813 v -0.10598 -0.10599 l 0.25677,-0.48416 0.25677,-0.48415 0.0252,-0.0301 0.0252,-0.0301 0.55675,0.28923 0.55674,0.28924 0.66159,0.001 0.66159,10e-4 0.28483,-0.17658 0.28483,-0.17658 0.1417,-0.25719 0.14171,-0.25719 0.0512,-0.47714 0.0512,-0.47715 -0.0918,0.15283 -0.0918,0.15283 -0.42504,0.22729 -0.42505,0.22729 -0.61852,-5.5e-4 -0.61852,-5.4e-4 -0.32884,-0.14502 -0.32884,-0.14501 -0.29653,-0.21607 -0.29653,-0.21607 -0.24582,-0.3655 -0.24581,-0.3655 -0.1359,-0.42754 -0.13589,-0.42753 v -0.44594 -0.44595 l 0.12251,-0.43531 0.1225,-0.43532 0.24277,-0.35365 0.24277,-0.35364 0.36941,-0.26821 0.36942,-0.26821 0.51085,-0.13811 0.51085,-0.13811 0.43235,0.057 0.43234,0.057 0.46955,0.29837 0.46955,0.29838 h 0.0374 0.0373 l -0.0267,-0.28195 -0.0268,-0.28195 0.71934,-0.0251 0.71935,-0.0251 v 2.85049 2.8505 l -0.12952,0.46022 -0.12951,0.46022 -0.36673,0.41373 -0.36673,0.41373 -0.42863,0.19739 -0.42862,0.19739 z m 0.0307,-3.8057 0.52395,-0.0312 0.3133,-0.35443 0.31329,-0.35443 0.0557,-0.31311 0.0557,-0.31312 -0.0567,-0.31915 -0.0567,-0.31916 -0.26481,-0.27944 -0.2648,-0.27943 -0.33736,-0.10666 -0.33737,-0.10666 -0.27511,0.0549 -0.27512,0.0548 -0.27277,0.17557 -0.27278,0.17557 -0.16677,0.39785 -0.16678,0.39786 0.0532,0.3745 0.0532,0.37451 0.17352,0.23278 0.17351,0.23277 0.25392,0.16843 0.25393,0.16843 z m -48.408368,1.83789 -0.61986,-0.006 -0.43155,-0.12263 -0.431551,-0.12263 -0.343418,-0.18488 -0.343419,-0.18488 -0.424088,-0.42325 -0.424088,-0.42324 -0.211814,-0.41302 -0.211815,-0.41302 -0.140961,-0.51535 -0.140961,-0.51534 0.03934,-0.79357 0.03934,-0.79356 0.2947,-0.64304 0.294701,-0.64304 0.395691,-0.42129 0.39569,-0.42129 0.37346,-0.20002 0.373459,-0.20002 0.479851,-0.14721 0.479851,-0.1472 0.832008,0.0342 0.832007,0.0342 0.61658,0.31593 0.61658,0.31594 0.266424,0.29154 0.266423,0.29154 -0.513109,0.53665 -0.51311,0.53665 -0.369894,-0.31236 -0.369894,-0.31235 -0.264544,-0.11916 -0.264544,-0.11915 h -0.520868 -0.520868 l -0.427324,0.22471 -0.427324,0.22471 -0.248864,0.3175 -0.248864,0.3175 -0.120954,0.42782 -0.120955,0.42783 v 0.44594 0.44594 l 0.12949,0.40104 0.12949,0.40103 0.324178,0.38863 0.324177,0.38864 0.388991,0.15792 0.388992,0.15793 0.493264,-0.007 0.493264,-0.007 0.347109,-0.18844 0.347109,-0.18844 0.269471,-0.24894 0.26947,-0.24894 0.53149,0.50866 0.53149,0.50866 -0.325963,0.35244 -0.325964,0.35244 -0.34196,0.21158 -0.341959,0.21159 -0.476867,0.13107 -0.476866,0.13108 z m 6.383176,-0.0419 -0.508396,0.0428 -0.452158,-0.11015 -0.452159,-0.11014 -0.205526,-0.11585 -0.205527,-0.11585 -0.345302,-0.29444 -0.345302,-0.29443 -0.270557,-0.57995 -0.270557,-0.57995 -0.03032,-0.63366 -0.03032,-0.63367 0.139128,-0.44886 0.139128,-0.44886 0.246077,-0.37743 0.246076,-0.37742 0.425399,-0.29711 0.425398,-0.29711 0.532218,-0.14319 0.532218,-0.14318 0.53652,0.0554 0.536521,0.0554 0.509489,0.26145 0.509489,0.26144 0.330428,0.39613 0.330429,0.39613 0.167163,0.47147 0.167162,0.47147 v 0.63445 0.63445 l -0.09538,0.2949 -0.09539,0.29489 -0.268226,0.44669 -0.268227,0.44669 -0.375381,0.27254 -0.375381,0.27254 -0.335166,0.12478 -0.335167,0.12479 z m -0.01513,-1.40857 0.246632,-0.0435 0.218142,-0.11564 0.218142,-0.11564 0.183895,-0.31398 0.183894,-0.31399 0.03525,-0.57734 0.03525,-0.57734 -0.157901,-0.30363 -0.157902,-0.30364 -0.260746,-0.18791 -0.260745,-0.18791 -0.329226,-0.0587 -0.329226,-0.0587 -0.388203,0.20324 -0.388202,0.20323 -0.184974,0.38708 -0.184974,0.38708 0.0018,0.3937 0.0018,0.3937 0.151771,0.34701 0.15177,0.34701 0.211001,0.205 0.211001,0.20499 0.272555,0.0646 0.272556,0.0646 z m 12.126068,1.44528 -0.287737,-0.01 -0.3894,-0.0692 -0.3894,-0.0692 -0.395304,-0.13855 -0.395304,-0.13855 -0.175818,-0.12996 -0.175819,-0.12995 0.23485,-0.54132 0.23485,-0.54132 0.109093,0.0143 0.109093,0.0143 0.460618,0.17721 0.460618,0.17721 0.526762,0.057 0.526762,0.057 0.307437,-0.13556 0.307437,-0.13555 v -0.21069 -0.21069 l -0.122675,-0.10744 -0.122676,-0.10743 -0.952459,-0.19976 -0.952458,-0.19976 -0.320823,-0.22404 -0.320822,-0.22405 -0.166045,-0.34346 -0.166046,-0.34346 v -0.3973 -0.3973 l 0.163663,-0.33854 0.163662,-0.33853 0.273589,-0.2202 0.273589,-0.22021 0.364302,-0.1424 0.364303,-0.1424 0.822106,-0.0111 0.822106,-0.0111 0.596028,0.20607 0.596027,0.20608 v 0.12172 0.12173 l -0.248244,0.51894 -0.248244,0.51894 -0.334531,-0.1801 -0.334531,-0.18009 -0.554769,-0.0491 -0.554769,-0.0491 -0.301179,0.10489 -0.301179,0.10489 -0.05173,0.21749 -0.05173,0.21748 0.116647,0.12309 0.116647,0.1231 0.964393,0.21103 0.964393,0.21104 0.347752,0.20073 0.347752,0.20074 0.190839,0.39039 0.19084,0.39039 -0.04195,0.46484 -0.04195,0.46483 -0.213964,0.32581 -0.213963,0.32581 -0.389566,0.22374 -0.389565,0.22375 -0.531891,0.0911 -0.53189,0.0911 z m 5.960271,-0.0505 -0.411053,0.0446 -0.328843,-0.0616 -0.328842,-0.0616 -0.309108,-0.15717 -0.309109,-0.15718 -0.24684,-0.32888 -0.24684,-0.32889 -0.115539,-0.34556 -0.115539,-0.34557 -0.01437,-0.37799 -0.01438,-0.37798 0.0076,-1.67 0.0076,-1.67001 h 0.733944 0.733943 l 0.02651,1.80014 0.02651,1.80013 0.14526,0.28048 0.145261,0.28048 0.258863,0.14126 0.258864,0.14126 0.362573,-0.0431 0.362573,-0.0431 0.238483,-0.24111 0.238483,-0.2411 0.07899,-0.26764 0.07899,-0.26764 0.03211,-1.64831 0.0321,-1.64832 0.754019,-0.0249 0.754018,-0.025 v 2.91288 2.91287 l -0.719343,-0.0251 -0.719343,-0.0251 -0.01107,-0.13013 -0.01107,-0.13013 -0.0095,-0.16695 -0.0095,-0.16694 -0.186096,0.18449 -0.186096,0.18449 -0.286615,0.12465 -0.286616,0.12464 z m 9.74196,0.0217 -0.534369,0.0392 -0.342017,-0.11844 -0.342017,-0.11844 -0.255871,-0.19227 -0.255872,-0.19226 -0.179319,-0.3614 -0.17932,-0.36139 -0.03336,-1.58325 -0.03336,-1.58325 H 94.79888 94.393239 l 0.02415,-0.62896 0.02415,-0.62897 0.3905,-0.0264 0.390501,-0.0264 v -0.68927 -0.68928 h 0.777676 0.777676 l 0.02388,0.71466 0.02388,0.71465 0.637132,-0.0283 0.637133,-0.0283 v 0.65465 0.65466 l -0.637133,0.0253 -0.637132,0.0253 v 1.33066 1.33067 l 0.239323,0.21707 0.239322,0.21706 0.253942,-0.038 0.253941,-0.038 0.133274,-0.0616 0.133274,-0.0616 0.206542,0.54476 0.206542,0.54476 -0.03372,0.0927 -0.03372,0.0927 -0.264987,0.10885 -0.264987,0.10885 z m 23.676663,0.007 -0.86321,0.0294 -0.49327,-0.11922 -0.49326,-0.11922 -0.45216,-0.21209 -0.45216,-0.21209 -0.11358,-0.14511 -0.11358,-0.14512 0.21634,-0.50872 0.21635,-0.50872 v -0.0976 -0.0976 h 0.0502 0.0502 l 0.58694,0.30194 0.58694,0.30195 0.55921,0.0908 0.55921,0.0908 0.41591,-0.0582 0.4159,-0.0582 0.21009,-0.1907 0.21009,-0.1907 v -0.27287 -0.27287 l -0.15164,-0.17682 -0.15163,-0.17681 -0.58141,-0.17713 -0.58141,-0.17712 -0.65769,-0.20755 -0.65768,-0.20754 -0.38667,-0.25932 -0.38666,-0.25931 -0.18368,-0.37318 -0.18368,-0.37318 -0.002,-0.47714 -0.002,-0.47715 0.0985,-0.35161 0.0985,-0.35162 0.28372,-0.34979 0.28373,-0.34979 0.51902,-0.25288 0.51901,-0.25288 h 1.06874 1.06874 l 0.53437,0.19652 0.53437,0.19653 0.11771,0.0786 0.11771,0.0786 -0.10029,0.35323 -0.10029,0.35324 -0.14073,0.34227 -0.14074,0.34228 -0.42979,-0.20982 -0.42979,-0.20981 -0.37627,-0.1 -0.37627,-0.1 -0.53975,0.0457 -0.53974,0.0457 -0.2162,0.16959 -0.2162,0.16959 -0.026,0.32522 -0.026,0.32522 0.13357,0.15575 0.13357,0.15575 0.55011,0.17545 0.55011,0.17545 0.84738,0.27228 0.84737,0.27229 0.3367,0.3206 0.33669,0.32061 0.11075,0.27916 0.11075,0.27916 v 0.54965 0.54965 l -0.21403,0.45323 -0.21402,0.45322 -0.27438,0.22085 -0.27438,0.22084 -0.43647,0.17939 -0.43646,0.17938 z m 6.61005,-0.0174 -0.56757,0.0402 -0.38058,-0.0731 -0.38059,-0.0731 -0.36349,-0.16968 -0.36349,-0.16967 -0.30178,-0.27961 -0.30178,-0.27961 -0.24309,-0.44863 -0.24309,-0.44863 -0.0958,-0.58116 -0.0958,-0.58117 0.0887,-0.43634 0.0887,-0.43634 0.16838,-0.37801 0.16838,-0.37801 0.34668,-0.37311 0.34668,-0.3731 0.40385,-0.19962 0.40386,-0.19962 0.51704,-0.0584 0.51705,-0.0584 0.43557,0.10819 0.43558,0.10819 0.3061,0.16232 0.30611,0.16232 0.28993,0.30595 0.28993,0.30594 0.2157,0.44919 0.2157,0.44918 0.0423,0.71489 0.0423,0.71489 -2.00495,-0.0175 -2.00495,-0.0175 0.0246,0.17351 0.0246,0.1735 0.3539,0.36149 0.3539,0.36148 0.38197,0.0605 0.38198,0.0604 0.37341,-0.0591 0.37342,-0.0591 0.27441,-0.25425 0.2744,-0.25424 0.37981,0.46914 0.37981,0.46914 -5.6e-4,0.11629 -5.6e-4,0.1163 -0.26662,0.19094 -0.26663,0.19095 -0.37784,0.17591 -0.37785,0.17591 z m -0.48108,-3.50667 h 1.26998 v -0.0911 -0.0911 l -0.12167,-0.24829 -0.12167,-0.24829 -0.21551,-0.17889 -0.21551,-0.17888 -0.2794,-0.0553 -0.2794,-0.0553 -0.28949,0.0573 -0.2895,0.0573 -0.27866,0.2582 -0.27867,0.25819 -0.0853,0.25805 -0.0852,0.25805 z m 19.59427,3.51912 -0.60789,0.0375 -0.45216,-0.13307 -0.45216,-0.13307 -0.4254,-0.29711 -0.4254,-0.2971 -0.24262,-0.37217 -0.24262,-0.37216 -0.13353,-0.41511 -0.13354,-0.41511 v -0.54708 -0.54708 l 0.11209,-0.39301 0.11208,-0.39301 0.2602,-0.39909 0.26021,-0.39909 0.34705,-0.25194 0.34706,-0.25195 0.41105,-0.15589 0.41105,-0.15588 0.69879,-0.002 0.69879,-0.002 0.32885,0.15112 0.32884,0.15112 0.30865,0.22493 0.30865,0.22493 0.16406,0.28013 0.16406,0.28013 v 0.0907 0.0907 l -0.53872,0.31792 -0.53872,0.31792 -0.35688,-0.34714 -0.35687,-0.34713 -0.3777,-0.0598 -0.3777,-0.0598 -0.39147,0.20489 -0.39147,0.2049 -0.18362,0.34701 -0.18362,0.34701 -0.001,0.48045 -10e-4,0.48045 0.18498,0.38474 0.18497,0.38474 0.38784,0.20781 0.38783,0.20782 0.38109,-0.0603 0.38108,-0.0603 0.35447,-0.37406 0.35447,-0.37406 0.54137,0.34215 0.54138,0.34214 v 0.10823 0.10823 l -0.25184,0.36138 -0.25184,0.36137 -0.51729,0.26874 -0.51729,0.26873 z m 5.92748,-0.0211 -0.534,0.0462 -0.37472,-0.0708 -0.37473,-0.0708 -0.42385,-0.19241 -0.42385,-0.19241 -0.37874,-0.42728 -0.37874,-0.42727 -0.16932,-0.40393 -0.16932,-0.40393 -0.0401,-0.52712 -0.0401,-0.52713 0.13086,-0.53903 0.13086,-0.53903 0.20103,-0.33604 0.20102,-0.33604 0.31495,-0.26123 0.31495,-0.26123 0.25686,-0.13861 0.25687,-0.13861 0.55626,-0.0938 0.55626,-0.0938 0.46114,0.10051 0.46114,0.10051 0.38128,0.20328 0.38128,0.20327 0.2917,0.35961 0.29169,0.35961 0.1365,0.30355 0.13651,0.30356 0.0793,0.60381 0.0793,0.60382 -0.0256,0.12868 -0.0256,0.12868 -1.84752,0.009 -1.84752,0.009 -0.14609,0.0403 -0.14608,0.0403 v 0.11977 0.11976 l 0.29316,0.34242 0.29316,0.34243 0.2943,0.10249 0.2943,0.1025 0.48675,-0.0466 0.48676,-0.0466 0.33075,-0.23097 0.33076,-0.23098 0.16609,0.15821 0.16609,0.15821 0.25421,0.33828 0.25421,0.33829 -0.28207,0.24849 -0.28206,0.24848 -0.41318,0.16314 -0.41318,0.16313 z m -0.44625,-3.49797 h 1.27981 l -0.0585,-0.1952 -0.0585,-0.19519 -0.11718,-0.18917 -0.11718,-0.18917 -0.22037,-0.15559 -0.22036,-0.15559 h -0.49327 -0.49326 l -0.22463,0.15854 -0.22463,0.15854 -0.16587,0.28321 -0.16587,0.28321 v 0.0982 0.0982 z m 5.81362,3.50189 -0.55768,0.0428 -0.45216,-0.0758 -0.45215,-0.0758 -0.36861,-0.1383 -0.3686,-0.1383 -0.1799,-0.12439 -0.1799,-0.12439 0.21507,-0.57204 0.21508,-0.57205 0.1279,0.0451 0.1279,0.045 0.49327,0.19235 0.49326,0.19235 0.66548,0.007 0.66549,0.007 0.13607,-0.11907 0.13607,-0.11906 v -0.20426 -0.20426 l -0.18498,-0.1255 -0.18497,-0.1255 -0.781,-0.13857 -0.781,-0.13857 -0.36995,-0.19853 -0.36995,-0.19853 -0.18515,-0.28991 -0.18515,-0.28991 -0.0867,-0.33994 -0.0867,-0.33994 0.13292,-0.42231 0.13293,-0.42232 0.31275,-0.29816 0.31275,-0.29817 0.4428,-0.16064 0.44279,-0.16064 0.781,8.8e-4 0.781,8.9e-4 0.45216,0.14504 0.45216,0.14504 0.15115,0.11672 0.15116,0.11672 -0.26653,0.57036 -0.26653,0.57037 -0.35518,-0.1658 -0.35517,-0.16579 -0.52351,-0.0516 -0.52351,-0.0516 -0.30139,0.10496 -0.30139,0.10496 -0.0873,0.17211 -0.0873,0.1721 0.10171,0.12932 0.10171,0.12933 0.13059,0.0737 0.13058,0.0737 0.74851,0.13631 0.7485,0.13631 0.36611,0.1656 0.3661,0.16561 0.21864,0.27419 0.21864,0.2742 0.0845,0.33132 0.0845,0.33133 -0.053,0.29369 -0.053,0.2937 -0.10738,0.22569 -0.10737,0.2257 -0.29078,0.26941 -0.29078,0.26941 -0.40946,0.12832 -0.40945,0.12831 z m 18.61896,0.0105 -0.51482,0.036 -0.34169,-0.0766 -0.34169,-0.0766 -0.32557,-0.17527 -0.32557,-0.17527 -0.26017,-0.23102 -0.26018,-0.23101 -0.2372,-0.36382 -0.2372,-0.36381 -0.14027,-0.50916 -0.14026,-0.50916 0.0418,-0.54894 0.0418,-0.54894 0.21664,-0.46726 0.21664,-0.46727 0.36009,-0.35026 0.3601,-0.35026 0.31646,-0.16963 0.31646,-0.16963 0.4896,-0.10664 0.4896,-0.10665 0.43357,0.0538 0.43357,0.0538 0.45038,0.17782 0.45038,0.17782 0.37626,0.44162 0.37626,0.44161 -0.0295,0.0957 -0.0295,0.0957 -0.55633,0.32249 -0.55634,0.3225 -0.21468,-0.26923 -0.21468,-0.26923 -0.26838,-0.11833 -0.26838,-0.11833 h -0.26442 -0.26443 l -0.33966,0.17351 -0.33966,0.17351 -0.17956,0.33713 -0.17956,0.33713 v 0.58523 0.58522 l 0.17022,0.29063 0.17022,0.29064 0.22306,0.16761 0.22306,0.16761 0.30906,0.0612 0.30906,0.0612 0.36549,-0.1473 0.36549,-0.1473 0.20569,-0.27514 0.20569,-0.27514 0.5429,0.30353 0.5429,0.30352 0.0385,0.0656 0.0384,0.0657 -0.23208,0.36466 -0.23209,0.36467 -0.32761,0.23479 -0.32762,0.23479 -0.30764,0.0973 -0.30763,0.0973 z m -102.723191,-0.0607 -0.760448,0.0249 v -2.90949 -2.9095 h 0.739896 0.739895 v 0.356 0.35601 l 0.280686,-0.26007 0.280686,-0.26006 0.315342,-0.11624 0.315341,-0.11623 0.616579,0.004 0.61658,0.004 0.334451,0.18379 0.33445,0.18379 0.29276,0.34196 0.29276,0.34196 0.111859,0.33666 0.111859,0.33667 8.26e-4,2.0387 8.27e-4,2.03871 -0.760449,0.0224 -0.760448,0.0224 v -1.80971 -1.80971 l -0.187442,-0.29352 -0.187441,-0.29351 -0.203059,-0.11337 -0.203059,-0.11338 -0.432238,0.0325 -0.432238,0.0326 -0.21549,0.20969 -0.215489,0.20969 -0.132455,0.30364 -0.132454,0.30364 -8.19e-4,1.64831 -8.19e-4,1.64832 z m 18.683195,0.007 -0.781829,-0.008 v -3.98394 -3.98394 l 0.760448,0.0249 0.760448,0.025 0.02138,3.96731 0.02138,3.96732 z m 7.435336,-0.007 -0.702679,0.0248 -0.05777,-0.0609 -0.05776,-0.061 v -2.8484 -2.84841 h 0.782109 0.78211 l -0.0217,2.88455 -0.0217,2.88456 z m 2.87138,0.0186 h -0.73517 l -0.0397,-0.10919 -0.0397,-0.10919 0.0217,-2.77536 0.0217,-2.77536 0.71934,-0.0251 0.71934,-0.0251 v 0.35039 0.35039 h 0.0848 0.0848 l 0.0465,-0.12786 0.0465,-0.12787 0.46474,-0.24084 0.46474,-0.24083 0.61658,0.004 0.61658,0.004 0.41105,0.21876 0.41105,0.21875 0.26495,0.36626 0.26495,0.36625 0.0818,0.32168 0.0818,0.32168 0.009,1.99533 0.009,1.99533 h -0.76644 -0.76643 l -0.0411,-1.88543 -0.0411,-1.88544 -0.25955,-0.27367 -0.25955,-0.27368 -0.39814,-0.0367 -0.39813,-0.0368 -0.28774,0.16697 -0.28774,0.16697 -0.16442,0.29382 -0.16442,0.29383 -0.0279,1.75676 -0.0279,1.75675 z m 28.69383,0 h -0.73233 l -0.0117,-2.66766 -0.0117,-2.66767 -0.005,-0.21689 -0.005,-0.21688 h 0.73592 0.73591 l 0.0411,0.33334 0.0411,0.33334 0.19736,-0.22271 0.19736,-0.22272 0.33701,-0.134 0.33701,-0.134 0.32884,-0.02 0.32884,-0.02 0.0238,0.75909 0.0238,0.75909 h -0.4432 -0.4432 l -0.2749,0.19549 -0.2749,0.19549 -0.16886,0.30334 -0.16887,0.30335 -0.0281,1.67 -0.0281,1.67 z m 5.83978,0 h -0.81158 l -0.0745,-0.15182 -0.0746,-0.15181 -0.8802,-2.34235 -0.88019,-2.34234 -0.15799,-0.36776 -0.15798,-0.36775 v -0.0443 -0.0443 l 0.80155,1.9e-4 0.80156,1.8e-4 0.29838,0.80229 0.29838,0.80228 0.40016,1.10611 0.40016,1.1061 h 0.0547 0.0547 l 0.22459,-0.62896 0.2246,-0.62896 0.47247,-1.25792 0.47247,-1.25793 0.74881,-0.0249 0.74881,-0.025 v 0.0889 0.0889 l -0.49812,1.28068 -0.49812,1.28069 -0.57826,1.53987 -0.57826,1.53987 z m 4.38246,-0.0184 -0.76045,0.0249 -0.003,-0.37195 -0.003,-0.37196 -0.002,-2.51585 -0.002,-2.51585 h 0.76544 0.76543 v 2.86286 2.86287 z m 23.12659,0.0184 h -0.77615 l -0.036,-0.0651 -0.036,-0.0651 0.0429,-3.70871 0.0429,-3.7087 h 0.76927 0.76926 v 3.77377 3.77377 z m 3.0231,-0.0185 -0.75375,0.0249 -0.0427,-0.0729 -0.0427,-0.0729 0.003,-2.55459 0.003,-2.5546 0.0427,-0.28517 0.0427,-0.28518 0.70957,0.0249 0.70956,0.0249 -0.0121,0.28195 -0.0121,0.28195 h 0.0298 0.0298 l 0.38307,-0.25636 0.38307,-0.25636 0.4517,-0.099 0.4517,-0.099 0.38069,0.0599 0.3807,0.0599 0.28774,0.12647 0.28773,0.12648 0.23361,0.23397 0.23361,0.23397 0.16373,0.33601 0.16373,0.33601 0.0785,0.83516 0.0785,0.83516 -0.0236,1.34468 -0.0236,1.34468 -0.76045,0.0249 -0.76045,0.0249 v -1.74111 -1.74111 l -0.11837,-0.29895 -0.11836,-0.29895 -0.27214,-0.17508 -0.27213,-0.17508 -0.33724,-3.3e-4 -0.33723,-3.2e-4 -0.27935,0.19634 -0.27934,0.19634 -0.13826,0.30249 -0.13825,0.30249 -0.0262,1.69169 -0.0262,1.6917 z m 17.63929,0.0185 h -0.0369 l -0.18271,-0.13505 -0.18272,-0.13505 v -0.20891 -0.20891 l 0.16994,-0.096 0.16993,-0.096 0.20001,0.13829 0.20002,0.1383 v 0.15806 0.15806 l -0.15034,0.14358 -0.15035,0.14357 z m 3.88538,0 h -0.0695 l -0.13606,-0.15865 -0.13606,-0.15865 0.001,-0.1233 0.001,-0.12329 0.0604,-0.0967 0.0604,-0.0967 0.17631,-0.058 0.17631,-0.058 0.13198,0.13927 0.13198,0.13927 v 0.12394 0.12393 l -0.16442,0.17351 -0.16442,0.1735 z m -9.11757,-0.0869 -0.30829,-1.3e-4 v -1.40961 -1.40962 l 0.73514,-0.0253 0.73513,-0.0253 0.22788,0.0996 0.22788,0.0996 0.16738,0.29936 0.16738,0.29936 v 0.21763 0.21763 l -0.0925,0.18949 -0.0925,0.18949 -0.16848,0.1952 -0.16848,0.19519 h -0.30423 -0.30424 l -0.2569,0.0542 -0.25691,0.0542 v 0.37954 0.37955 z m 0.61884,-1.30117 h 0.31055 l 0.18271,-0.13505 0.18271,-0.13505 v -0.21767 -0.21767 l -0.0851,-0.1678 -0.0851,-0.1678 h -0.40816 -0.40816 v 0.52052 0.52052 z m 2.03245,1.3013 h -0.28774 v -1.52368 -1.52368 l 0.26719,0.0272 0.26718,0.0272 0.0243,0.48731 0.0243,0.48731 0.32838,-0.11939 0.32837,-0.11938 0.20246,0.0536 0.20246,0.0536 0.20528,0.25745 0.20529,0.25745 v 0.8175 0.8175 h -0.28774 -0.28774 v -0.72678 -0.72678 l -0.10322,-0.0904 -0.10322,-0.0904 -0.21635,-0.0573 -0.21634,-0.0573 -0.13259,0.19976 -0.13259,0.19976 v 0.67472 0.67473 z m 4.22811,-0.014 -0.89858,0.0294 v -1.43911 -1.4391 l 0.80155,0.001 0.80156,0.001 0.32716,0.19554 0.32717,0.19553 0.1853,0.34525 0.1853,0.34524 0.001,0.30695 0.001,0.30694 -0.18497,0.38201 -0.18498,0.382 -0.23181,0.17859 -0.23181,0.17858 z m 0.13538,-0.50651 h 0.45848 l 0.24031,-0.25359 0.24031,-0.25359 -0.003,-0.41875 -0.003,-0.41875 -0.10015,-0.13765 -0.10015,-0.13765 -0.17957,-0.10092 -0.17957,-0.10092 h -0.41646 -0.41646 v 0.91091 0.91091 z m -87.41414,-5.89937 -0.146509,-1.3e-4 -0.286593,-0.15169 -0.286594,-0.15168 -0.102695,-0.21688 -0.102695,-0.21689 -0.0012,-0.29062 -0.0012,-0.29062 0.279517,-0.29497 0.279516,-0.29496 h 0.341146 0.341147 l 0.22655,0.12363 0.22654,0.12362 0.0982,0.22747 0.0982,0.22747 v 0.21711 0.21711 l -0.12877,0.26279 -0.12878,0.26279 -0.27964,0.12329 -0.27963,0.1233 z m 42.06865,-0.0646 -0.20553,0.0427 -0.28643,-0.0689 -0.28644,-0.0689 -0.18628,-0.22852 -0.18627,-0.22852 0.002,-0.36387 0.002,-0.36386 0.14204,-0.18504 0.14204,-0.18504 0.17957,-0.0969 0.17957,-0.0969 h 0.32794 0.32794 l 0.25014,0.22211 0.25014,0.22212 0.0533,0.29985 0.0533,0.29985 -0.10423,0.26554 -0.10423,0.26553 -0.17236,0.11309 -0.17236,0.11309 z m -80.845548,-5.68117 -2.021965,0.0232 0.213384,-0.50035 0.213384,-0.50034 0.269108,-0.65065 0.269107,-0.65065 0.633807,-1.51819 0.633808,-1.51818 0.332884,-0.78078 0.332883,-0.78078 0.431292,-1.04104 0.431292,-1.04105 0.676523,-1.56156 0.676523,-1.56156 0.719849,-1.73507 0.719848,-1.73506 0.329271,-0.73741 0.329271,-0.7374 0.04983,-0.15334 0.04983,-0.15334 2.018368,0.0232 2.018368,0.0232 0.499639,1.12779 0.499639,1.1278 1.01046,2.34234 1.010461,2.34234 0.876465,2.0387 0.876465,2.03871 0.132395,0.30364 0.132394,0.30363 0.528374,1.21455 0.528373,1.21455 0.576629,1.34468 0.576629,1.34467 0.116137,0.28345 0.116137,0.28344 -2.072679,-0.0232 -2.072678,-0.0232 -0.744772,-1.82183 -0.744772,-1.82182 -3.844248,-0.0225 -3.844247,-0.0225 -0.12044,0.28281 -0.120441,0.2828 -0.610307,1.56156 -0.610308,1.56157 z m 7.272452,-6.83335 h 2.543111 v -0.0985 -0.0985 l -0.980196,-2.43903 -0.980196,-2.43902 -0.243783,-0.65065 -0.243783,-0.65065 -0.07084,0.0188 -0.07084,0.0188 -0.910734,2.32356 -0.910734,2.32356 -0.33756,0.84585 -0.337559,0.84584 z m 15.647537,6.85352 H 79.84916 v -8.67534 -8.67534 l 4.336611,5.1e-4 4.336611,5.1e-4 0.781343,0.1243 0.781343,0.1243 0.698448,0.23052 0.698449,0.23053 0.797283,0.4373 0.797282,0.43731 0.546298,0.45939 0.546297,0.45939 0.452042,0.5481 0.452043,0.54811 0.480335,1.04104 0.480336,1.04104 0.188436,0.78078 0.188436,0.78078 -0.0055,1.43143 -0.0055,1.43143 -0.135148,0.62832 -0.135148,0.62831 -0.257097,0.70351 -0.257097,0.70351 -0.475833,0.75026 -0.475832,0.75026 -0.522043,0.52612 -0.522043,0.52612 -0.493263,0.35123 -0.493264,0.35122 -0.51183,0.27233 -0.511831,0.27232 -0.639118,0.22105 -0.639119,0.22105 -0.933039,0.16915 -0.933039,0.16915 z m 1.960672,-3.31244 2.404661,-0.0276 0.119677,-0.0812 0.119676,-0.0812 0.621587,-0.22712 0.621588,-0.22713 0.503411,-0.36075 0.503411,-0.36075 0.304617,-0.37195 0.304617,-0.37195 0.239645,-0.43376 0.239645,-0.43377 0.169862,-0.5639 0.169862,-0.56389 0.04313,-0.99767 0.04313,-0.99766 -0.128559,-0.63575 -0.128558,-0.63575 -0.196707,-0.44867 -0.196708,-0.44867 -0.341046,-0.47523 -0.341046,-0.47524 -0.390198,-0.33165 -0.390197,-0.33165 -0.481465,-0.26175 -0.481464,-0.26176 -0.620977,-0.1676 -0.620977,-0.16759 H 85.960702 83.71306 v 5.38459 5.38459 z m 15.063837,3.31244 h -1.930688 v -8.58859 -8.58858 l 0.02055,-0.0651 0.02055,-0.0651 h 4.521588 4.52158 l 0.7399,0.20131 0.7399,0.20131 0.781,0.40244 0.781,0.40243 0.70281,0.74093 0.70281,0.74093 0.26518,0.53666 0.26519,0.53666 0.16506,0.67789 0.16506,0.67789 3e-5,1.01755 4e-5,1.01755 -0.13149,0.54401 -0.13149,0.54401 -0.28717,0.61853 -0.28717,0.61853 -0.36702,0.45373 -0.36702,0.45374 -0.38665,0.33717 -0.38666,0.33717 -0.45402,0.23888 -0.45402,0.23888 -0.0233,0.0101 -0.0233,0.0101 0.81047,1.24783 0.81046,1.24784 0.7255,1.08408 0.72549,1.08407 0.30128,0.43411 0.30128,0.43411 0.0612,0.10844 0.0612,0.10844 -2.16288,-0.004 -2.16288,-0.004 -1.4798,-2.30362 -1.47979,-2.30363 -0.18263,-0.20957 -0.18263,-0.20957 -1.66711,0.0235 -1.66711,0.0235 -0.0218,2.49416 -0.0218,2.49416 z m 4.13287,-8.26097 2.1164,-0.0365 0.4588,-0.19537 0.4588,-0.19538 0.40441,-0.3189 0.40441,-0.3189 0.28233,-0.59354 0.28233,-0.59353 -6e-4,-0.66439 -5.9e-4,-0.66439 -0.23345,-0.54726 -0.23345,-0.54726 -0.36504,-0.33907 -0.36503,-0.33907 -0.46425,-0.18713 -0.46425,-0.18713 -1.15095,-0.0753 -1.15095,-0.0753 -1.06874,0.0379 -1.06874,0.0378 -0.0217,2.80194 -0.0217,2.80194 0.0428,0.11768 0.0428,0.11768 z m 13.37925,8.26097 h -1.93195 v -8.67534 -8.67534 h 1.93195 1.93195 v 8.67534 8.67534 z m 5.77302,-0.0202 -2.03584,0.0232 0.1137,-0.28347 0.11369,-0.28347 0.59295,-1.38805 0.59295,-1.38805 0.35782,-0.82416 0.35781,-0.82416 0.98666,-2.34234 0.98666,-2.34234 1.18177,-2.77611 1.18176,-2.77611 0.44775,-1.06048 0.44774,-1.06049 2.01416,-5.2e-4 2.01416,-5.1e-4 0.46756,1.061 0.46757,1.061 0.71244,1.64831 0.71244,1.64832 0.88798,2.0387 0.88799,2.03871 0.38709,0.91091 0.38709,0.91091 0.35047,0.82416 0.35047,0.82415 0.38911,0.86754 0.38912,0.86753 0.36996,0.86754 0.36996,0.86753 0.19548,0.45546 0.19547,0.45545 h -2.07658 -2.07659 l -0.74577,-1.84351 -0.74577,-1.84351 -3.88426,-0.0225 -3.88426,-0.0225 -0.0394,0.1591 -0.0394,0.15911 -0.673,1.68526 -0.67301,1.68526 z m 7.33958,-6.83335 h 2.54853 v -0.0689 -0.0689 l -0.58612,-1.42762 -0.58611,-1.42763 -0.68291,-1.76722 -0.6829,-1.76721 -0.13431,0.33578 -0.1343,0.33579 -0.37332,0.95429 -0.37333,0.95428 -0.77188,1.93635 -0.77188,1.93635 v 0.0373 0.0373 z m 13.21035,6.85352 h -1.91641 l -0.003,-8.67534 -0.003,-8.67534 h 1.65924 1.65923 l 1.84313,2.36249 1.84313,2.36249 2.01625,2.56077 2.01625,2.56076 0.16233,0.23585 0.16233,0.23584 0.0617,0.003 0.0617,0.003 v -5.16183 -5.16183 h 1.92184 1.92185 l 0.0146,8.67534 0.0146,8.67534 h -1.63663 -1.63663 l -0.93403,-1.19286 -0.93404,-1.19286 -1.07166,-1.37675 -1.07167,-1.37675 -1.88229,-2.39702 -1.88229,-2.39702 -0.16788,-0.23858 -0.16788,-0.23857 h -0.0668 -0.0667 v 5.20521 5.2052 z m 17.16564,-0.0202 -2.02482,0.0232 0.0378,-0.0666 0.0377,-0.0666 1.29273,-3.07974 1.29273,-3.07975 0.90362,-2.12546 0.90363,-2.12546 0.8882,-2.08208 0.8882,-2.08208 0.32692,-0.78078 0.32692,-0.78078 0.22612,-0.54221 0.22612,-0.54221 h 2.04662 2.04662 l 0.0513,0.15182 0.0514,0.15182 0.55403,1.3013 0.55404,1.3013 0.25286,0.58227 0.25287,0.58226 1.28571,2.97463 1.28571,2.97462 0.86548,1.99533 0.86549,1.99533 0.51215,1.17117 0.51215,1.17117 0.18506,0.43376 0.18506,0.43377 0.0362,0.0651 0.0362,0.0651 h -2.09318 -2.09318 l -0.0846,-0.23857 -0.0846,-0.23857 -0.65848,-1.60494 -0.65849,-1.60494 h -3.88527 -3.88527 l -0.71848,1.82182 -0.71848,1.82183 z m 7.32634,-6.83336 h 2.58088 l -2.8e-4,-0.0217 -2.8e-4,-0.0217 -0.25078,-0.65065 -0.25078,-0.65066 -1.03539,-2.58251 -1.03539,-2.58251 -0.0185,0.0233 -0.0185,0.0233 -0.62043,1.56157 -0.62043,1.56156 -0.65548,1.67 -0.65549,1.67 z m -153.929317,-1.177 -0.142162,1.12197 -3.24732,-3.5421 -3.2473196,-3.5421 -1.5762061,-1.70012 -1.5762062,-1.70013 0.028384,-0.03 0.028384,-0.0299 0.9312421,0.18591 0.9312421,0.18591 1.3392212,0.34079 1.3392205,0.3408 1.455941,0.51346 1.45594,0.51345 0.863212,0.36307 0.863211,0.36306 0.724645,0.35476 0.724644,0.35476 -0.04042,0.18001 -0.04042,0.18001 -0.336536,2.21222 -0.336535,2.21221 z m 27.938904,1.0035 h -0.05326 l -0.230324,-1.75676 -0.230324,-1.75676 -0.242793,-1.59737 -0.242793,-1.59737 -0.0409,-0.0698 -0.0409,-0.0698 0.558135,-0.29515 0.558135,-0.29516 0.61658,-0.28444 0.616579,-0.28444 1.456792,-0.54701 1.456792,-0.54701 1.050632,-0.30685 1.050633,-0.30685 1.274265,-0.2943 1.274265,-0.29429 0.369348,-0.0647 0.369349,-0.0647 -0.819121,0.94378 -0.819121,0.94379 -1.276651,1.38359 -1.276651,1.3836 -0.61658,0.66047 -0.616579,0.66047 -2.046119,2.22854 -2.046118,2.22854 z"
       id="path2052" /><path
       style="fill:#030a12"
       d="m 65.54451,272.71971 -0.369948,0.0457 -0.360305,-0.0858 -0.360306,-0.0858 -0.393311,-0.41504 -0.393312,-0.41504 -0.08858,-0.33667 -0.08858,-0.33667 V 270.7 270.30961 l 0.08624,-0.32769 0.08624,-0.3277 0.259916,-0.31239 0.259917,-0.31238 0.358994,-0.16239 0.358995,-0.16238 h 0.47706 0.47706 l 0.431519,0.23857 0.431519,0.23857 0.250206,0.468 0.250206,0.468 -0.01016,0.57304 -0.01016,0.57304 -0.125168,0.31586 -0.125168,0.31587 -0.267344,0.28211 -0.267343,0.28212 -0.249117,0.10706 -0.249116,0.10705 z m -0.161288,-0.46593 0.20866,0.008 0.363217,-0.1952 0.363218,-0.19519 0.195691,-0.39039 0.195692,-0.3904 -0.04086,-0.5038 -0.04086,-0.5038 -0.188585,-0.29043 -0.188584,-0.29043 -0.238028,-0.14838 -0.238027,-0.14837 H 65.38616 64.997558 l -0.254412,0.13883 -0.254411,0.13883 -0.18398,0.27265 -0.18398,0.27265 -0.03804,0.41781 -0.03804,0.41781 0.05518,0.31037 0.05518,0.31036 0.25093,0.30159 0.25093,0.30159 0.258832,0.0791 0.258831,0.0791 z m 8.916721,0.46675 -0.328843,0.0453 -0.287737,-0.0631 -0.287737,-0.0631 -0.262935,-0.14555 -0.262935,-0.14555 -0.206303,-0.28542 -0.206303,-0.28542 -0.128206,-0.51714 -0.128206,-0.51714 0.0516,-0.36688 0.0516,-0.36687 0.258109,-0.45168 0.258109,-0.45167 0.362326,-0.2008 0.362325,-0.2008 h 0.441869 0.441869 l 0.264544,0.11815 0.264544,0.11816 0.15661,0.18548 0.15661,0.18548 h 0.06947 0.06947 v -1.08442 -1.08442 h 0.246632 0.246632 v 2.77611 2.77611 h -0.246632 -0.246632 v -0.31986 -0.31987 l -0.226079,0.22251 -0.226079,0.22252 -0.164422,0.0873 -0.164421,0.0873 z m -0.06218,-0.49025 0.34887,-0.034 0.276693,-0.22271 0.276693,-0.2227 0.134885,-0.29996 0.134885,-0.29995 v -0.40176 -0.40175 l -0.11107,-0.28052 -0.11107,-0.28052 -0.293877,-0.27228 -0.293876,-0.27229 -0.245859,-0.057 -0.245859,-0.057 -0.318056,0.0904 -0.318055,0.0904 -0.257344,0.28362 -0.257343,0.28363 -0.09353,0.3734 -0.09353,0.37341 0.05621,0.39557 0.05621,0.39558 0.254916,0.30638 0.254917,0.30637 0.24816,0.11884 0.24816,0.11883 z m 6.721244,0.48795 -0.328843,0.0384 -0.470074,-0.0623 -0.470074,-0.0623 -0.45971,-0.24544 -0.459709,-0.24545 0.0527,-0.22158 0.0527,-0.22159 0.02869,-0.0303 0.02869,-0.0303 0.525147,0.27281 0.525146,0.27282 0.569874,0.0103 0.569874,0.0103 0.264748,-0.14551 0.264747,-0.1455 0.08465,-0.16691 0.08465,-0.1669 v -0.29422 -0.29422 l -0.200014,-0.19829 -0.200014,-0.19828 -0.807973,-0.23766 -0.807973,-0.23765 -0.245725,-0.13484 -0.245726,-0.13483 -0.205526,-0.23212 -0.205527,-0.23212 v -0.53521 -0.53522 l 0.197951,-0.29289 0.197952,-0.29288 0.377523,-0.1806 0.377523,-0.1806 0.657685,0.003 0.657685,0.003 0.390501,0.18503 0.3905,0.18502 v 0.21485 0.21485 l -0.06852,0.0447 -0.06852,0.0447 -0.486405,-0.21102 -0.486406,-0.21101 -0.328842,-0.002 -0.328843,-0.002 -0.293842,0.0861 -0.293841,0.0861 -0.184093,0.20679 -0.184092,0.20679 -0.0067,0.24921 -0.0067,0.24922 0.05902,0.19624 0.05902,0.19623 0.30869,0.16618 0.30869,0.16619 0.629469,0.17016 0.629469,0.17017 0.309575,0.16857 0.309576,0.16858 0.192297,0.29609 0.192296,0.29609 -0.03492,0.45905 -0.03492,0.45905 -0.165867,0.23444 -0.165867,0.23444 -0.361456,0.18794 -0.361456,0.18795 z m 18.744024,0.009 -0.328842,0.0469 -0.373747,-0.1083 -0.373746,-0.1083 -0.309905,-0.24944 -0.309905,-0.24944 -0.177655,-0.35405 -0.177655,-0.35405 -0.0019,-0.65065 -0.0019,-0.65065 0.205527,-0.38683 0.205526,-0.38684 0.396866,-0.25876 0.396866,-0.25877 0.489734,-0.0374 0.489734,-0.0374 0.354721,0.14296 0.35473,0.14295 0.19304,0.21685 0.19305,0.21684 -0.17863,0.1885 -0.17863,0.1885 -0.187,-0.1798 -0.18701,-0.1798 -0.17957,-0.0976 -0.179563,-0.0976 -0.395905,5.7e-4 -0.395905,5.7e-4 -0.241869,0.16825 -0.241869,0.16825 -0.189316,0.33001 -0.189315,0.33001 -4.21e-4,0.46403 -4.22e-4,0.46404 0.133745,0.29742 0.133744,0.29741 0.206229,0.17119 0.20623,0.17118 0.300407,0.095 0.300406,0.095 0.34241,-0.0973 0.342404,-0.0973 0.25632,-0.2276 0.25633,-0.2276 0.17383,0.18344 0.17384,0.18344 -0.14955,0.17438 -0.14955,0.17438 -0.33853,0.16828 -0.33853,0.16829 z m 9.883479,-0.0433 -0.42926,0.0599 -0.39565,-0.0613 -0.39566,-0.0613 -0.1949,-0.13476 -0.1949,-0.13476 -0.211,-0.29192 -0.211,-0.29193 3.1e-4,-0.3822 3.1e-4,-0.3822 0.17497,-0.30364 0.17497,-0.30363 0.17756,-0.17351 0.17756,-0.17351 0.19803,-0.13787 0.19803,-0.13787 -0.26988,-0.42603 -0.26988,-0.42602 0.0352,-0.46975 0.0352,-0.46975 0.28908,-0.27956 0.28907,-0.27956 0.42177,-0.0612 0.42176,-0.0612 0.37684,0.1925 0.37684,0.19251 0.1279,0.28304 0.12791,0.28304 -0.0591,0.33217 -0.059,0.33218 -0.34263,0.34981 -0.34264,0.34982 -0.16132,0.0944 -0.16133,0.0944 0.56859,0.66775 0.56858,0.66775 0.12347,-0.0251 0.12347,-0.0251 0.12116,-0.4117 0.12116,-0.41169 h 0.0932 0.0932 l 0.13646,0.10844 0.13646,0.10844 -0.20258,0.52052 -0.20258,0.52052 -3.8e-4,0.0648 -3.8e-4,0.0648 0.29676,0.34663 0.29677,0.34664 -0.0483,0.13273 -0.0483,0.13272 -0.12128,0.0491 -0.12128,0.0491 -0.25905,-0.31134 -0.25904,-0.31134 h -0.0696 -0.0696 l -0.37642,0.26808 -0.37642,0.26808 z m -0.42363,-0.43037 0.17005,0.008 0.4125,-0.12927 0.41249,-0.12927 0.15042,-0.1754 0.15043,-0.1754 -0.68981,-0.75806 -0.68981,-0.75806 -0.0209,-0.0344 -0.0209,-0.0344 -0.33373,0.23305 -0.33372,0.23305 -0.1609,0.27848 -0.16091,0.27847 -3.1e-4,0.23192 -3e-4,0.23192 0.21234,0.2663 0.21234,0.2663 0.26037,0.0795 0.26037,0.0796 z m -0.003,-2.76828 h 0.089 l 0.28316,-0.21935 0.28316,-0.21935 0.14204,-0.19273 0.14204,-0.19273 0.002,-0.22221 0.002,-0.22222 -0.16669,-0.18881 -0.1667,-0.18882 -0.21193,-0.0561 -0.21192,-0.0561 -0.28093,0.14137 -0.28093,0.14137 -0.0803,0.223 -0.0803,0.22299 v 0.15049 0.1505 l 0.2239,0.36438 0.22389,0.36438 z m 14.46667,3.22981 -0.32884,0.0451 -0.36006,-0.0733 -0.36006,-0.0733 -0.20933,-0.14473 -0.20933,-0.14474 -0.19818,-0.22566 -0.19819,-0.22566 -0.12471,-0.30454 -0.12471,-0.30455 -0.005,-0.5639 -0.005,-0.56389 0.12541,-0.30364 0.1254,-0.30364 0.23588,-0.24662 0.23588,-0.24663 0.24834,-0.1417 0.24835,-0.14169 0.67084,-0.002 0.67084,-0.002 0.35679,0.2608 0.35679,0.2608 0.23266,0.4766 0.23266,0.47661 -0.0354,0.5639 -0.0354,0.56389 -0.17314,0.35779 -0.17313,0.35779 -0.26616,0.23633 -0.26615,0.23633 -0.16906,0.0656 -0.16906,0.0656 z m -0.0822,-0.50315 0.32884,-0.0421 0.20553,-0.15739 0.20553,-0.15738 0.19198,-0.29566 0.19199,-0.29566 -0.0289,-0.62456 -0.029,-0.62456 -0.17163,-0.24297 -0.17163,-0.24298 -0.2727,-0.1685 -0.27271,-0.1685 h -0.37804 -0.37805 l -0.24873,0.15505 -0.24873,0.15505 -0.19545,0.30099 -0.19544,0.301 -0.0366,0.46625 -0.0366,0.46625 0.17822,0.3885 0.17822,0.38851 0.21494,0.14861 0.21494,0.14861 0.21263,0.0718 0.21263,0.0718 z m 49.40859,0.50231 -0.32884,0.0432 -0.32884,-0.0582 -0.32885,-0.0582 -0.25978,-0.1447 -0.25979,-0.1447 -0.2424,-0.31033 -0.2424,-0.31033 -0.0938,-0.33051 -0.0938,-0.33051 v -0.37026 -0.37026 l 0.10111,-0.35707 0.1011,-0.35708 0.33321,-0.35216 0.33321,-0.35215 0.3864,-0.11417 0.38641,-0.11416 0.44166,0.0386 0.44167,0.0387 0.38236,0.23646 0.38235,0.23645 0.21965,0.45148 0.21966,0.45147 1.6e-4,0.56389 1.6e-4,0.5639 -0.17097,0.34815 -0.17097,0.34815 -0.23264,0.24549 -0.23263,0.24549 -0.20724,0.11001 -0.20724,0.11001 z m -0.28011,-0.45477 0.21315,0.002 0.35799,-0.19977 0.35799,-0.19978 0.18931,-0.37777 0.1893,-0.37777 v -0.39273 -0.39273 l -0.17025,-0.37113 -0.17025,-0.37114 -0.29612,-0.19312 -0.29611,-0.19312 -0.39905,0.006 -0.39905,0.006 -0.31379,0.21913 -0.31379,0.21913 -0.14506,0.32259 -0.14507,0.3226 0.0323,0.53468 0.0323,0.53469 0.19458,0.28836 0.19459,0.28837 0.33697,0.16149 0.33698,0.1615 z m -112.677295,0.43567 h -0.287737 v -2.64598 -2.64598 h 1.685318 1.685318 v 0.26027 0.26026 H 61.68061 60.28303 v 0.99534 0.99535 l 1.212607,0.024 1.212606,0.024 0.02601,0.23857 0.02601,0.23857 h -1.23862 -1.23862 v 1.1278 1.12779 z m 9.794642,-0.006 -0.587051,-0.005 -0.203069,-0.0855 -0.20307,-0.0855 -0.279573,-0.22502 -0.279573,-0.22503 -0.204739,-0.47192 -0.204738,-0.47192 0.03304,-0.54753 0.03304,-0.54753 0.246658,-0.42126 0.246658,-0.42126 0.349576,-0.20376 0.349577,-0.20376 0.477728,-0.0457 0.477728,-0.0457 0.306775,0.10684 0.306774,0.10684 0.285529,0.26455 0.28553,0.26455 0.174393,0.35523 0.174393,0.35523 8.56e-4,0.56389 8.57e-4,0.5639 -0.203489,0.42728 -0.203488,0.42728 -0.396634,0.28843 -0.396635,0.28844 z m 0.11174,-0.47917 0.287737,-0.049 0.246632,-0.14724 0.246632,-0.14725 0.190305,-0.38841 0.190305,-0.38841 -0.03057,-0.49072 -0.03057,-0.49072 -0.197078,-0.30351 -0.197079,-0.30351 -0.221969,-0.13837 -0.221969,-0.13836 h -0.447869 -0.447869 l -0.270989,0.19519 -0.270988,0.1952 -0.152223,0.30228 -0.152222,0.30228 v 0.46539 0.46539 l 0.129137,0.28717 0.129136,0.28717 0.153159,0.14627 0.153159,0.14626 0.313732,0.12091 0.313732,0.1209 z m 14.98697,0.4812 -0.559004,-0.003 -0.246632,-0.13721 -0.246632,-0.13721 -0.195854,-0.18464 -0.195854,-0.18465 -0.193843,-0.43376 -0.193844,-0.43377 -3.44e-4,-0.43377 -3.45e-4,-0.43377 0.08624,-0.32769 0.08624,-0.3277 0.261994,-0.31488 0.261995,-0.31489 0.329548,-0.15798 0.329547,-0.15798 0.452159,-10e-4 0.452158,-0.001 0.411054,0.20223 0.411053,0.20223 0.116549,0.14867 0.11655,0.14866 -0.172255,0.18178 -0.172255,0.18177 -0.258921,-0.2299 -0.25892,-0.22991 -0.203649,-0.0539 -0.203649,-0.0539 -0.409277,0.0415 -0.409278,0.0415 -0.210655,0.20766 -0.210655,0.20766 -0.124991,0.25362 -0.12499,0.25362 v 0.40878 0.40877 l 0.09408,0.30082 0.09408,0.30083 0.18371,0.18212 0.18371,0.18212 0.317603,0.14004 0.317603,0.14004 0.325056,-0.058 0.325057,-0.0579 0.275884,-0.25561 0.275884,-0.25562 0.169626,0.11179 0.169625,0.11179 v 0.0941 0.0941 l -0.184974,0.17849 -0.184974,0.17848 -0.263102,0.14027 -0.263102,0.14028 z m 2.643192,0.003 H 87.24836 v -2.00082 -2.00083 l 0.267185,0.0272 0.267184,0.0272 0.01653,1.97364 0.01653,1.97364 z m 3.292444,-0.0192 -0.657685,0.0242 -0.329548,-0.16235 -0.329548,-0.16234 -0.257776,-0.30982 -0.257777,-0.30981 -0.09977,-0.319 -0.09977,-0.319 0.03149,-0.58802 0.03149,-0.58802 0.244551,-0.41556 0.244551,-0.41555 0.328843,-0.18137 0.328842,-0.18136 h 0.623609 0.623609 l 0.339644,0.24838 0.339644,0.24838 0.208249,0.44099 0.208249,0.441 v 0.37335 0.37336 h -1.529809 -1.529809 l 0.05373,0.23857 0.05373,0.23857 0.147717,0.21689 0.147718,0.21688 0.271783,0.1952 0.271783,0.19519 h 0.485189 0.485189 l 0.235122,-0.1283 0.235122,-0.12831 0.03796,-0.11026 0.03796,-0.11027 0.154438,0.0961 0.154438,0.096 0.02417,0.12931 0.02417,0.12932 -0.311908,0.25178 -0.311907,0.25178 z m -0.252371,-2.23636 h 1.268526 l -0.07363,-0.2709 -0.07363,-0.2709 -0.126936,-0.20444 -0.126936,-0.20443 -0.225305,-0.11976 -0.225305,-0.11976 -0.229159,-0.058 -0.22916,-0.058 -0.309125,0.0878 -0.309125,0.0878 -0.210978,0.23996 -0.210978,0.23995 -0.0934,0.2949 -0.0934,0.29489 v 0.0304 0.0304 z m 2.993591,2.25559 h -0.233796 v -1.99533 -1.99532 h 0.246632 0.246632 v 0.26026 0.26026 h 0.07214 0.07214 l 0.112829,-0.14357 0.11283,-0.14357 0.264544,-0.11669 0.264544,-0.11669 h 0.458074 0.458074 l 0.317283,0.17081 0.317283,0.17081 0.192168,0.32802 0.192169,0.32802 0.0311,1.50274 0.0311,1.50273 -0.276639,-0.0279 -0.276638,-0.0279 -0.01278,-1.31576 -0.01278,-1.31576 -0.110534,-0.238 -0.110534,-0.238 -0.217285,-0.16963 -0.217285,-0.16963 h -0.428642 -0.428641 l -0.217285,0.17089 -0.217285,0.1709 -0.143874,0.25922 -0.143874,0.25921 -0.05394,1.31497 -0.05394,1.31496 z m 9.855787,0 h -0.52087 l -0.42839,-0.22527 -0.42838,-0.22527 -0.21365,-0.38471 -0.21365,-0.38471 -0.0778,-0.36557 -0.0778,-0.36558 0.0542,-0.4155 0.0541,-0.4155 0.25908,-0.40908 0.25908,-0.40907 0.36681,-0.1952 0.36682,-0.19519 0.45529,0.002 0.45529,0.002 0.32884,0.16015 0.32884,0.16016 0.19665,0.22535 0.19666,0.22534 0.14047,0.43788 0.14047,0.43788 -0.008,0.23744 -0.008,0.23744 -1.50034,0.0236 -1.50035,0.0237 v 0.13804 0.13805 l 0.18433,0.3461 0.18433,0.34609 0.30566,0.16455 0.30566,0.16455 h 0.48507 0.48506 l 0.3081,-0.22063 0.3081,-0.22064 0.11181,0.15557 0.11181,0.15557 0.003,0.0516 0.003,0.0516 -0.14687,0.14027 -0.14688,0.14027 -0.30264,0.13343 -0.30264,0.13344 z m -0.13182,-2.25559 h 1.24343 l -0.0526,-0.27741 -0.0526,-0.27741 -0.12906,-0.20785 -0.12905,-0.20784 -0.36854,-0.17203 -0.36854,-0.17204 -0.32617,0.0582 -0.32617,0.0581 -0.25496,0.22639 -0.25495,0.22639 -0.11214,0.28321 -0.11214,0.28321 v 0.0895 0.0895 z m 11.43755,2.25559 h -0.26718 v -2.64598 -2.64598 l 1.2126,0.002 1.21261,0.002 0.36847,0.17637 0.36847,0.17637 0.15409,0.14705 0.1541,0.14705 0.15567,0.32186 0.15568,0.32187 v 0.41611 0.41611 l -0.0806,0.29653 -0.0806,0.29654 -0.2277,0.25284 -0.22769,0.25285 -0.24664,0.14053 -0.24663,0.14053 -1.06874,0.0469 -1.06873,0.0469 v 0.84584 0.84585 z m 1.18467,-2.25559 h 0.8663 l 0.28932,-0.14487 0.28931,-0.14488 0.15441,-0.2672 0.15441,-0.2672 v -0.43377 -0.43377 l -0.16592,-0.28717 -0.16591,-0.28717 -0.28986,-0.1278 -0.28986,-0.1278 -0.87984,0.0246 -0.87984,0.0246 -0.0253,0.86754 -0.0253,0.86753 0.0509,0.3687 0.0509,0.3687 z m 3.46945,2.25559 h -0.2353 v -1.99533 -1.99532 h 0.24663 0.24664 v 0.31986 0.31987 l 0.22608,-0.22759 0.22608,-0.2276 0.23143,-0.0923 0.23143,-0.0923 h 0.24649 0.24648 l -0.0258,0.27082 -0.0258,0.27082 -0.30469,0.0283 -0.30469,0.0283 -0.22034,0.15235 -0.22034,0.15236 -0.1234,0.30759 -0.1234,0.30759 -0.0411,1.23624 -0.0411,1.23623 z m 8.36698,-0.003 -0.58674,-0.003 -0.24663,-0.11405 -0.24663,-0.11404 -0.33772,-0.38777 -0.33771,-0.38777 -0.10348,-0.45517 -0.10347,-0.45516 0.0529,-0.34889 0.0529,-0.34888 0.15471,-0.31737 0.15472,-0.31736 0.23477,-0.2352 0.23478,-0.2352 0.35856,-0.1335 0.35857,-0.1335 0.42127,0.002 0.42127,0.002 0.32884,0.15935 0.32884,0.15935 0.15924,0.18882 0.15924,0.18882 -0.1695,0.17886 -0.16949,0.17886 -0.35147,-0.26868 -0.35148,-0.26867 h -0.47807 -0.47806 l -0.30285,0.28059 -0.30284,0.28059 -0.11107,0.28052 -0.11107,0.28052 v 0.36578 0.36579 l 0.17025,0.37113 0.17026,0.37114 0.27105,0.17677 0.27106,0.17678 h 0.4273 0.42731 l 0.17957,-0.0976 0.17957,-0.0976 0.17722,-0.1701 0.17721,-0.17009 0.17714,0.10004 0.17714,0.10004 -0.0263,0.14596 -0.0263,0.14597 -0.39899,0.28194 -0.399,0.28195 z m 4.01705,-0.0139 -0.65768,0.026 -0.35125,-0.18791 -0.35124,-0.18791 -0.23316,-0.29848 -0.23315,-0.29849 -0.0938,-0.33051 -0.0938,-0.33051 4.6e-4,-0.38032 4.6e-4,-0.38033 0.0872,-0.33146 0.0872,-0.33147 0.28749,-0.3358 0.28749,-0.33581 0.36189,-0.14584 0.36188,-0.14584 0.48867,0.0373 0.48866,0.0373 0.34252,0.23919 0.34251,0.23918 0.19849,0.44988 0.19849,0.44987 8e-4,0.3687 8e-4,0.3687 h -1.47494 -1.47494 l -0.0433,0.074 -0.0433,0.074 0.18235,0.37639 0.18235,0.37638 0.21189,0.16266 0.21188,0.16266 0.32196,0.0766 0.32196,0.0766 0.37044,-0.0876 0.37043,-0.0876 0.1826,-0.18102 0.1826,-0.18102 0.12572,0.11011 0.12573,0.11011 v 0.10921 0.10921 l -0.30829,0.24887 -0.30829,0.24887 z m -0.21423,-2.23828 h 1.245 l -0.0507,-0.23857 -0.0507,-0.23857 -0.14088,-0.21152 -0.14087,-0.21153 -0.22718,-0.17886 -0.22718,-0.17887 -0.38432,0.007 -0.38432,0.007 -0.25498,0.14047 -0.25497,0.14046 -0.13765,0.22169 -0.13765,0.22169 -0.0493,0.25988 -0.0493,0.25989 z m 3.73687,2.25276 -0.64526,-0.003 -0.3905,-0.18173 -0.3905,-0.18174 10e-4,-0.14076 0.001,-0.14076 0.0677,-0.11267 0.0677,-0.11268 0.43837,0.18234 0.43837,0.18233 0.45862,0.002 0.45862,0.002 0.21641,-0.0873 0.21642,-0.0873 0.0354,-0.31971 0.0354,-0.31971 -0.10123,-0.10683 -0.10124,-0.10683 -0.35608,-0.0931 -0.35608,-0.0931 -0.45216,-0.0977 -0.45215,-0.0977 -0.23502,-0.20192 -0.23501,-0.20192 -0.0413,-0.38693 -0.0413,-0.38693 0.13831,-0.28224 0.13831,-0.28224 0.37754,-0.17623 0.37754,-0.17623 0.6237,0.0415 0.62371,0.0415 0.22608,0.11285 0.22608,0.11284 v 0.0996 0.0996 l -0.10872,0.15691 -0.10873,0.1569 -0.24253,-0.13235 -0.24253,-0.13235 -0.40639,-0.0447 -0.40639,-0.0447 -0.26981,0.11896 -0.2698,0.11896 -0.0967,0.2239 -0.0967,0.22389 0.16693,0.23607 0.16692,0.23606 0.77222,0.17833 0.77223,0.17832 0.17912,0.12064 0.17913,0.12064 0.0881,0.20395 0.0881,0.20395 v 0.33123 0.33124 l -0.16219,0.21758 -0.16218,0.21757 -0.28185,0.14114 -0.28184,0.14113 z m 3.44971,0.003 h -0.64839 l -0.36271,-0.19519 -0.36271,-0.1952 -0.0258,-0.0903 -0.0258,-0.0903 0.10387,-0.14869 0.10387,-0.14868 0.34944,0.18297 0.34944,0.18297 0.48546,0.005 0.48547,0.005 0.25165,-0.11 0.25165,-0.10999 0.0412,-0.14249 0.0412,-0.14249 -0.0321,-0.17351 -0.0321,-0.17351 -0.006,-0.0569 -0.006,-0.0569 -0.38459,-0.13828 -0.38459,-0.13829 -0.17033,-4.8e-4 -0.17033,-4.8e-4 -0.32499,-0.0952 -0.32498,-0.0952 -0.27104,-0.28602 -0.27105,-0.28602 v -0.31662 -0.31662 l 0.12471,-0.25448 0.12471,-0.25448 0.26514,-0.14469 0.26513,-0.14468 0.53503,-0.0398 0.53502,-0.0398 0.41106,0.12697 0.41105,0.12697 0.0229,0.12283 0.0229,0.12283 -0.10645,0.15362 -0.10645,0.15362 -0.27117,-0.14275 -0.27117,-0.14276 -0.47087,-0.005 -0.47087,-0.005 -0.21942,0.15172 -0.21942,0.15171 -0.053,0.17617 -0.053,0.17617 0.16001,0.22815 0.16001,0.22814 0.4858,0.11614 0.48579,0.11615 0.41185,0.11879 0.41184,0.11879 0.14308,0.2556 0.14308,0.25559 v 0.34362 0.34362 l -0.16219,0.21758 -0.16219,0.21757 -0.28184,0.14114 -0.28185,0.14113 z m 4.66046,0 h -0.24663 v -2.64598 -2.64598 h 0.24663 0.24663 v 2.64598 2.64598 z m 1.93041,0 h -0.28928 l 0.0221,-1.97364 0.0221,-1.97364 0.26718,-0.0272 0.26719,-0.0272 v 0.32426 0.32425 l 0.18609,-0.18448 0.1861,-0.18449 0.30453,-0.13427 0.30452,-0.13427 h 0.39628 0.39627 l 0.36494,0.19519 0.36493,0.1952 0.1663,0.30363 0.1663,0.30364 0.0273,1.4965 0.0273,1.49649 h -0.25342 -0.25343 l -0.002,-1.14948 -0.002,-1.14948 -0.0745,-0.33899 -0.0745,-0.33899 -0.20593,-0.2173 -0.20592,-0.21731 -0.45708,-0.04 -0.45709,-0.04 -0.25019,0.10936 -0.25018,0.10936 -0.20239,0.36443 -0.20238,0.36442 v 1.27199 1.27199 z m 4.68755,0 h -0.28774 v -1.99533 -1.99532 h 0.24663 0.24663 v 0.31876 0.31875 l 0.1861,-0.18448 0.18609,-0.18449 0.30453,-0.13427 0.30453,-0.13427 h 0.41777 0.41778 l 0.2631,0.14059 0.26311,0.14059 0.15065,0.13959 0.15066,0.1396 0.11653,0.29431 0.11652,0.2943 v 1.42084 1.42083 h -0.24663 -0.24663 v -1.25617 -1.25616 l -0.12572,-0.33157 -0.12572,-0.33156 -0.23636,-0.14734 -0.23636,-0.14733 h -0.44894 -0.44894 l -0.22657,0.18807 -0.22658,0.18807 -0.11335,0.28629 -0.11336,0.28628 v 1.26071 1.26071 z m 6.01491,-0.0207 -0.67122,0.0227 -0.24664,-0.14169 -0.24663,-0.14169 -0.19297,-0.18464 -0.19298,-0.18465 -0.15498,-0.3189 -0.15499,-0.31891 -0.0514,-0.46187 -0.0513,-0.46188 0.0908,-0.35533 0.0908,-0.35533 0.23732,-0.34572 0.23732,-0.34571 0.31784,-0.16025 0.31785,-0.16026 0.41169,-0.0369 0.4117,-0.0369 0.34983,0.0994 0.34983,0.0994 0.2915,0.27009 0.2915,0.27008 0.17015,0.35195 0.17015,0.35195 5.1e-4,0.5889 5.2e-4,0.58891 -0.20055,0.41125 -0.20055,0.41124 -0.35191,0.26105 -0.35192,0.26106 z m 0.10978,-0.46399 0.28773,-0.049 0.24373,-0.14833 0.24372,-0.14833 0.15237,-0.27531 0.15237,-0.27531 0.0463,-0.47322 0.0463,-0.47323 -0.18102,-0.39461 -0.18102,-0.39461 -0.27847,-0.18161 -0.27847,-0.18161 -0.40385,-0.01 -0.40385,-0.01 -0.27778,0.1712 -0.27777,0.17119 -0.18367,0.34218 -0.18367,0.34218 -10e-4,0.42807 -0.001,0.42806 0.16853,0.36738 0.16854,0.36739 0.11842,0.10371 0.11842,0.10372 0.30907,0.11921 0.30907,0.11921 z m 3.80609,0.48383 -0.26334,8.4e-4 -0.17384,-0.41208 -0.17384,-0.41207 -0.44903,-1.1278 -0.44902,-1.12779 -0.16198,-0.37103 -0.16199,-0.37102 v -0.0844 -0.0844 h 0.25007 0.25007 l 0.2288,0.5422 0.22879,0.54221 0.40235,1.06273 0.40234,1.06273 h 0.0486 0.0486 l 0.6322,-1.47734 0.63221,-1.47733 v -0.0747 -0.0747 l 0.29317,-0.0361 0.29318,-0.0361 -0.0345,0.13506 -0.0345,0.13507 -0.77245,1.84267 -0.77244,1.84266 z m 3.56945,-4.4e-4 -0.59317,-10e-4 -0.20305,-0.10842 -0.20306,-0.10843 -0.18744,-0.29351 -0.18745,-0.29352 v -0.29511 -0.29512 l 0.11912,-0.24307 0.11911,-0.24307 0.23028,-0.16248 0.23028,-0.16249 0.93453,-0.0336 0.93453,-0.0336 -0.041,-0.38422 -0.041,-0.38423 -0.1461,-0.17035 -0.14609,-0.17035 -0.30465,-0.0866 -0.30466,-0.0866 -0.27832,0.0484 -0.27831,0.0484 -0.35512,0.19034 -0.35511,0.19034 -0.11694,-0.16745 -0.11693,-0.16745 0.13232,-0.15429 0.13232,-0.1543 0.40826,-0.14309 0.40825,-0.14309 0.56598,0.0337 0.56598,0.0337 0.2287,0.17643 0.22871,0.17642 0.14604,0.30957 0.14604,0.30956 0.0184,1.46328 0.0184,1.46329 -0.26718,0.0272 -0.26719,0.0272 v -0.27475 -0.27474 l -0.29059,0.26925 -0.2906,0.26924 z m 0.0521,-0.43798 0.31641,0.006 0.2748,-0.13761 0.27479,-0.1376 0.12624,-0.2033 0.12623,-0.20331 0.0535,-0.35312 0.0535,-0.35312 h -0.79691 -0.79692 l -0.17957,0.0997 -0.17957,0.0997 -0.0604,0.0955 -0.0604,0.0954 -0.001,0.24428 -0.001,0.24427 0.0876,0.1727 0.0876,0.1727 0.1796,0.0764 0.1796,0.0764 z m 4.05791,0.43926 h -0.48577 l -0.27952,-0.29496 -0.27951,-0.29496 v -1.43248 -1.43248 l -0.32884,-0.0586 -0.32885,-0.0586 v -0.20926 -0.20925 h 0.32885 0.32884 v -0.43377 -0.43377 h 0.24663 0.24663 v 0.42981 0.4298 l 0.55492,0.0256 0.55493,0.0256 v 0.21689 0.21688 l -0.55493,0.0257 -0.55492,0.0256 v 1.28773 1.28773 l 0.15565,0.20283 0.15564,0.20284 0.31707,-0.006 0.31706,-0.006 0.11042,-0.0355 0.11041,-0.0355 0.0951,0.1569 0.0951,0.15689 -0.15958,0.12505 -0.15959,0.12505 z m 1.91478,0 h -0.24663 v -1.99533 -1.99532 h 0.24663 0.24663 v 1.99532 1.99533 z m 6.24801,0 h -0.24663 l -0.0123,-1.8652 -0.0123,-1.86519 -0.008,-0.10845 -0.008,-0.10844 0.27398,-0.0277 0.27398,-0.0277 -0.0155,0.24461 -0.0155,0.2446 0.009,0.0609 0.009,0.0609 0.20252,-0.19806 0.20252,-0.19806 0.32083,-0.10144 0.32084,-0.10143 h 0.3425 0.3425 l 0.26454,0.11895 0.26454,0.11894 0.1795,0.20638 0.1795,0.20638 0.0823,0.22923 0.0823,0.22924 0.0186,1.41908 0.0186,1.41908 -0.25987,0.0272 -0.25987,0.0272 v -1.35449 -1.35448 l -0.12471,-0.25448 -0.12471,-0.25449 -0.24115,-0.1316 -0.24116,-0.13159 -0.39459,3.2e-4 -0.39458,3.2e-4 -0.25321,0.16295 -0.25321,0.16294 -0.13729,0.3053 -0.13729,0.3053 v 1.2665 1.2665 z m -88.222577,-4.77143 h -0.142107 l -0.129188,-0.13633 -0.129188,-0.13633 v -0.16111 -0.16112 l 0.129188,-0.13632 0.129188,-0.13633 h 0.08174 0.08174 l 0.159017,0.0898 0.159016,0.0898 v 0.23986 0.23986 l -0.09865,0.1041 -0.09865,0.10411 z m 81.971797,0 h -0.15786 l -0.12708,-0.20466 -0.12707,-0.20466 0.0526,-0.14477 0.0526,-0.14476 0.16026,-0.0905 0.16027,-0.0905 0.20001,0.1383 0.20001,0.13829 v 0.10883 0.10883 l -0.12797,0.19281 -0.12798,0.19281 z"
       id="path2051" /></g></svg>
