<?xml version="1.0" encoding="UTF-8" standalone="no"?>
<!-- Created with Inkscape (http://www.inkscape.org/) -->

<svg
   width="371.71286mm"
   height="164.82837mm"
   viewBox="0 0 371.71287 164.82837"
   version="1.1"
   id="svg1"
   xml:space="preserve"
   xmlns:xlink="http://www.w3.org/1999/xlink"
   xmlns="http://www.w3.org/2000/svg"
   xmlns:svg="http://www.w3.org/2000/svg"><defs
     id="defs1" /><path
     style="fill:#000000"
     d="m 75.655818,164.72126 c -0.11996,-0.1941 0.35954,-0.94273 1.06555,-1.66362 2.72327,-2.78061 4.97542,-7.44282 5.31957,-11.01209 0.10289,-1.06715 0.36059,-2.85309 0.57266,-3.96875 0.37282,-1.9613 0.42259,-2.02847 1.5029,-2.02847 0.81915,0 1.44175,0.33629 2.33305,1.26016 1.07119,1.11033 1.36253,1.23455 2.45045,1.04479 3.77611,-0.65862 3.77506,-0.65868 3.98708,0.22006 0.25266,1.04721 -0.19921,3.33336 -0.93035,4.70693 -0.90561,1.70135 -4.05251,4.63989 -7.38794,6.89877 -1.70307,1.15339 -3.17466,2.09707 -3.27021,2.09707 -0.0955,0 -0.76587,0.36035 -1.48962,0.80079 -2.23948,1.36284 -3.91672,2.02691 -4.15314,1.64436 z m -29.08916,-7.98709 c -1.82782,-0.67208 -2.3852,-2.95773 -1.0225,-4.19297 0.66987,-0.60722 1.54604,-0.69209 9.08403,-0.87993 7.29513,-0.18178 8.57437,-0.29948 10.18822,-0.93734 3.30771,-1.30736 5.23556,-2.83159 6.16701,-4.8759 0.49732,-1.09151 1.20075,-1.07998 3.60651,0.0591 4.02664,1.90652 5.46911,4.65539 4.36927,8.32633 -0.22869,0.7633 -0.80572,1.69453 -1.2823,2.0694 -0.82653,0.65015 -1.55178,0.68031 -15.72378,0.65374 -8.17151,-0.0153 -15.09541,-0.11541 -15.38646,-0.22242 z m 45.50834,-0.26121 c 0,-0.28131 0.47625,-1.21715 1.05834,-2.07963 0.58208,-0.86249 1.05833,-1.82295 1.05833,-2.13436 0,-0.51219 1.68231,-0.5662 17.638892,-0.5662 9.70139,0 17.63889,-0.13594 17.63889,-0.3021 0,-0.24353 -2.22582,-2.37329 -6.50504,-6.22428 -3.38,-3.04177 -4.64067,-4.19126 -6.74406,-6.14931 -1.36916,-1.27455 -3.19478,-2.93071 -4.05694,-3.68037 -1.62862,-1.41609 -6.27878,-5.61702 -8.25379,-7.45644 -0.97143,-0.90473 -2.5946,-2.36162 -7.030412,-6.3102 -0.46052,-0.40994 -1.01549,-1.0921 -1.23326,-1.51591 -0.505,-0.98278 -0.53363,-14.24181 -0.0346,-16.03831 0.40021,-1.44085 1.61681,-2.41752 3.01143,-2.41752 1.00269,0 2.654412,-0.80138 3.989612,-1.935664 2.57544,-2.18792 3.5842,-6.4174 2.2335,-9.36456 -0.80831,-1.76369 -2.45161,-3.46155 -4.30419,-4.44709 -1.075982,-0.57241 -2.243872,-0.67131 -9.084022,-0.7693 l -7.84931,-0.11245 v -2.44519 -2.4452 h 8.34145 8.341462 l 2.50646,1.20969 c 3.12471,1.50808 5.19748,3.53901 6.56424,6.43176 0.95228,2.0155 1.0575,2.58478 1.0575,5.72116 0,2.95259 -0.13494,3.78805 -0.88618,5.48676 -1.4587,3.298384 -3.90251,5.551764 -7.49229,6.908474 l -1.14653,0.43332 v 4.32049 4.3205 l 2.22512,2.0749 c 1.22382,1.14119 3.63297,3.3449 5.35368,4.89712 1.72071,1.55222 3.83247,3.48641 4.6928,4.29819 1.47101,1.38799 5.28488,4.86305 8.83383,8.04903 0.86453,0.77612 1.98604,1.80927 2.49225,2.29591 0.50621,0.48663 2.50788,2.30675 4.44816,4.0447 1.94027,1.73795 4.06021,3.64167 4.71096,4.23049 1.65556,1.49798 2.55922,3.43744 2.57541,5.52741 0.0214,2.76563 -0.72001,4.16324 -3.11227,5.86668 l -1.10802,0.78898 h -19.96569 c -17.205262,0 -19.965682,-0.0707 -19.965682,-0.51148 z m -12.35071,-9.63088 c -1.08744,-2.62953 -3.72345,-5.27096 -6.69929,-6.71308 -2.1777,-1.05533 -8.69241,-3.43772 -10.58333,-3.87025 -1.15261,-0.26365 -5.85358,-2.73251 -7.32823,-3.84864 -3.56733,-2.70005 -6.50713,-7.11048 -7.95745,-11.93817 -1.19166,-3.96666 -1.66511,-10.41205 -0.76571,-10.42414 0.19402,-0.003 0.40043,0.43676 0.45867,0.97637 0.18452,1.70965 1.85335,6.54702 3.01123,8.72856 2.13261,4.01798 6.49444,7.9069 11.60392,10.34583 1.30561,0.62321 2.53808,1.1331 2.73882,1.1331 0.20074,0 0.64064,0.15106 0.97756,0.33569 0.33692,0.18463 1.24757,0.5944 2.02369,0.9106 8.82388,3.59497 12.97112,7.8861 13.47924,13.94694 0.11277,1.34511 0.13185,2.44566 0.0424,2.44566 -0.0894,0 -0.54013,-0.91281 -1.00151,-2.02847 z m -4.02775,-2.10413 c -1.75952,-0.91278 -2.34522,-1.01606 -11.49099,-2.02644 -6.90889,-0.76325 -9.20119,-1.18989 -14.2875,-2.65917 -5.59253,-1.61552 -10.92304,-4.71608 -14.83251,-8.62754 -3.75362,-3.75553 -6.04322,-8.29529 -7.28633,-14.44711 -0.19976,-0.98858 -0.47587,-7.19492 -0.61358,-13.79186 -0.15335,-7.346324 -0.42022,-12.746354 -0.68865,-13.934724 -1.83823,-8.1381 -4.30512,-12.36866 -8.31981,-14.26791 -1.57355,-0.74441 -2.42297,-0.90154 -4.87352,-0.90154 -1.6323,0 -3.5074402,0.168 -4.1669802,0.37333 -1.99186,0.62012 -5.5916,2.55393 -7.02112,3.77181 -1.20498004,1.02658 -2.1155500325017,1.44682 -2.1155500325017,0.97635 0,-0.0936 0.6349999925017,-1.20764 1.4111100325017,-2.47565 0.77611,-1.26802 1.41111,-2.3836 1.41111,-2.47907 0,-0.6055 4.24147,-5.71405 6.58227,-7.92788 2.5487602,-2.410502 4.9521502,-3.925492 8.3391902,-5.256643 1.47285,-0.578851 7.20076,-0.474745 9.03572,0.164225 2.28593,0.796005 4.12235,2.249125 4.96491,3.928628 0.47379,0.94443 0.91845,1.41491 1.22578,1.29698 0.47718,-0.18311 2.57377,2.58079 3.86855,5.09986 2.76192,5.37346 4.84278,18.04291 4.12345,25.10584 -0.16797,1.64924 -0.2746,6.649864 -0.23696,11.112504 0.0635,7.52911 0.34437,10.39305 1.21088,12.34722 0.17207,0.38806 0.60209,1.41993 0.9556,2.29306 1.37565,3.39769 4.63709,7.50929 8.26117,10.41458 1.60929,1.29012 5.59979,3.68464 7.13249,4.27989 0.83081,0.32266 1.68311,0.71823 1.89399,0.87903 0.5244,0.39987 6.88004,2.4136 7.62567,2.41613 0.33042,0.001 0.96542,0.15004 1.41111,0.33093 0.44569,0.1809 1.76285,0.60569 2.92701,0.944 2.29679,0.66743 5.10972,2.30563 5.76748,3.35887 0.57084,0.91407 -0.0352,0.83258 -2.21399,-0.2977 z m -26.50168,-9.23574 c -0.18433,-0.17356 -1.44639,-1.14819 -2.80458,-2.16586 -3.79928,-2.84671 -6.03315,-5.01832 -7.62046,-7.40806 -4.4946,-6.76675 -5.70195,-14.34682 -4.38098,-27.504964 0.28245,-2.8134 0.58761,-5.43278 0.67816,-5.82083 0.18432,-0.79001 0.92331,-9.2687 1.04541,-11.99445 0.12387,-2.76518 -1.18383,-9.47877 -2.38786,-12.25903 -0.7909,-1.82627 -0.97633,-1.65638 -0.38504,0.35278 1.36698,4.6449 1.66139,7.22873 1.45713,12.7882 -0.11049,3.00743 -0.43971,7.5318 -0.73159,10.05416 -1.17647,10.166654 -1.32346,12.475924 -1.11159,17.462504 0.11954,2.81341 0.43564,5.91528 0.70244,6.89305 2.29208,8.39987 4.99347,12.17127 12.88413,17.98746 2.34962,1.73191 3.56268,2.46986 2.65483,1.61504 z M 29.231488,74.943766 c -1.17664,-4.27738 -3.89054,-6.87126 -8.24122,-7.87675 -3.40519,-0.78698 -9.67463,1.4068 -13.2291602,4.62909 -1.25131,1.13436 -1.32602,1.25524 -0.35278,0.57082 2.7465202,-1.93144 4.6283902,-2.75633 8.6839902,-3.8065 1.9848,-0.51395 3.0413,-0.47395 5.37113,0.20335 3.63622,1.05708 6.56825,3.62449 7.43214,6.50789 0.55066,1.83794 0.84858,1.63582 0.3359,-0.2279 z m 57.33615,69.727044 c -1.34545,-0.82043 -2.45261,-2.33086 -3.14312,-4.28797 -0.64364,-1.82427 -0.65542,-3.55093 -0.0384,-5.6234 0.58199,-1.95471 1.59345,-2.27014 2.99429,-0.93378 0.51264,0.48904 1.39526,1.12833 1.96138,1.42065 0.89507,0.46217 1.18424,0.46675 2.21722,0.0351 0.65336,-0.27299 1.43158,-0.74001 1.72939,-1.03782 0.80074,-0.80073 2.17708,-1.04721 2.82855,-0.50654 0.46115,0.38271 0.53793,1.04917 0.42319,3.67281 -0.11785,2.69441 -0.29221,3.46465 -1.094,4.83281 -0.52459,0.89515 -1.48989,1.95886 -2.1451,2.3638 -1.54379,0.95412 -4.22488,0.98418 -5.73343,0.0643 z m -6.43745,-5.41345 c -1.10113,-4.26701 -4.74576,-7.21084 -11.86769,-9.58573 -3.20699,-1.06941 -3.338,-1.12261 -6.70278,-2.72181 -5.372,-2.5532 -8.96543,-6.05081 -11.28169,-10.98089 -2.14397,-4.56335 -2.65303,-6.88627 -2.65303,-12.10604 0,-2.40967 0.13349,-4.381234 0.29664,-4.381234 0.16315,0 0.49457,0.912814 0.73649,2.028474 1.60161,7.38624 5.39674,13.02973 11.31409,16.82445 3.75484,2.40793 5.91116,3.11545 11.99445,3.93557 5.55146,0.74842 6.99964,1.55939 8.75825,4.90457 0.87562,1.66558 0.92654,2.03914 0.91359,6.70278 -0.0137,4.93608 -0.24453,6.87916 -0.81724,6.87916 -0.16729,0 -0.47828,-0.67468 -0.69108,-1.4993 z m -1.20974,-8.09482 c -0.66341,-1.02913 -1.50721,-2.13453 -1.87513,-2.45644 -1.11526,-0.9758 -4.01105,-2.3812 -5.37797,-2.61007 -2.73272,-0.45756 -8.4947,-2.40693 -11.07777,-3.74779 -1.80766,-0.93835 -1.67572,-0.55893 0.17639,0.50723 1.59343,0.91725 5.18004,2.29861 8.37847,3.22691 6.01822,1.74669 7.89891,2.7703 9.45379,5.14541 0.62125,0.94897 1.14208,1.93337 1.1574,2.18755 0.0199,0.33007 0.0769,0.34158 0.19943,0.0402 0.0944,-0.23204 -0.37121,-1.26392 -1.03461,-2.29305 z m 7.94612,0.89657 c -2.95458,-1.45639 -5.05748,-4.95995 -4.50014,-7.4975 0.35251,-1.60499 1.22861,-1.93266 3.42411,-1.28067 2.62263,0.77884 3.88573,0.6922 5.08307,-0.34867 1.20717,-1.04942 2.28295,-1.38481 3.479,-1.08462 1.07309,0.26933 1.42007,1.76807 1.15985,5.00986 -0.20235,2.52086 -1.25139,4.30807 -3.0854,5.25647 -1.33336,0.68951 -4.10587,0.66215 -5.56049,-0.0549 z M 225.7809,128.84413 c -1.76473,-0.70045 -2.11107,-1.44453 -1.26992,-2.72829 0.53179,-0.81162 0.60784,-0.82593 1.78177,-0.33543 0.67444,0.2818 1.93421,0.51236 2.79949,0.51236 1.28451,0 1.70915,-0.1728 2.3139,-0.94161 0.78883,-1.00284 0.77427,-1.80726 -0.028,-1.54664 -0.26679,0.0867 -1.3582,0.21734 -2.42535,0.2904 -1.58842,0.10874 -2.16419,-0.0171 -3.175,-0.69377 -1.60274,-1.07298 -2.46835,-2.84249 -2.46835,-5.04588 0,-3.3969 2.15868,-5.82083 5.18387,-5.82083 0.85407,0 2.02407,0.24368 2.6,0.5415 0.94141,0.48682 1.06814,0.48682 1.25495,0 0.13757,-0.3585 0.67192,-0.5415 1.58116,-0.5415 h 1.37337 v 6.57294 c 0,6.05812 -0.0579,6.66668 -0.73962,7.76967 -0.40678,0.65819 -1.23305,1.45189 -1.83614,1.76376 -1.65726,0.857 -5.04908,0.95628 -6.94612,0.20332 z m 5.61573,-8.77254 c 1.28825,-1.63776 0.62387,-3.90079 -1.32698,-4.51996 -1.85166,-0.5877 -3.89596,1.76687 -3.17666,3.65878 0.55043,1.44775 1.01585,1.7907 2.43016,1.7907 1.02994,0 1.51247,-0.21631 2.07348,-0.92952 z m -106.28904,4.72903 c -2.02546,-0.53621 -4.26581,-2.86506 -4.93333,-5.12819 -0.96402,-3.26838 -0.11439,-6.86191 2.11913,-8.96289 2.45924,-2.31331 6.69342,-2.70475 9.55731,-0.88357 1.73084,1.10067 1.88191,1.87327 0.60151,3.07614 -0.7493,0.70393 -0.9973,0.77128 -1.49931,0.40718 -1.6212,-1.17582 -3.01926,-1.55472 -4.30984,-1.16806 -2.04091,0.61147 -2.92548,1.82616 -3.10145,4.25886 -0.12184,1.68446 -0.008,2.32471 0.58654,3.28598 1.29179,2.09017 3.81124,2.62814 6.01534,1.28444 1.04212,-0.63532 1.31734,-0.67243 2.05578,-0.27723 1.55363,0.83148 1.62469,1.53945 0.27357,2.72575 -1.93363,1.69775 -4.4137,2.16297 -7.36525,1.38159 z m 13.42253,-0.0827 c -2.75373,-0.97109 -4.29326,-3.40813 -4.0449,-6.403 0.29763,-3.58912 2.66521,-5.7805 6.24525,-5.7805 5.39515,0 8.00803,6.49484 4.30769,10.70764 -1.36361,1.55245 -4.3624,2.2325 -6.50804,1.47586 z m 3.83175,-3.52441 c 0.65601,-0.65601 0.86319,-1.23324 0.85469,-2.38125 -0.0122,-1.64378 -0.42461,-2.39716 -1.6778,-3.06476 -1.02373,-0.54537 -1.97856,-0.24373 -2.88789,0.91229 -1.06427,1.353 -0.93661,3.11538 0.31644,4.36843 1.25851,1.25851 2.25292,1.30693 3.39456,0.16529 z m 21.92291,3.53701 c -2.2549,-0.60622 -2.55232,-0.94235 -1.94261,-2.19545 0.37572,-0.77218 0.69031,-0.97668 1.35879,-0.88326 0.47843,0.0669 1.73996,0.14623 2.80338,0.17639 1.56331,0.0443 1.95592,-0.0596 2.05058,-0.54299 0.11534,-0.58899 -0.27387,-0.75212 -3.57349,-1.49782 -3.31787,-0.74982 -3.69638,-5.11587 -0.58308,-6.72582 1.32652,-0.68597 5.01819,-0.68468 6.3465,0.002 0.99375,0.51389 1.00936,0.56291 0.53353,1.67569 -0.34143,0.79849 -0.68414,1.10829 -1.12941,1.02097 -2.1791,-0.42732 -4.10216,-0.44139 -4.35525,-0.0319 -0.50402,0.81552 0.0418,1.31633 1.70663,1.56599 4.24807,0.63704 6.00943,3.59526 3.68507,6.18913 -1.47512,1.64616 -3.83156,2.07193 -6.90064,1.24683 z m 12.90086,0.23653 c -1.14717,-0.19396 -2.85335,-2.04807 -3.09408,-3.36233 -0.11412,-0.62304 -0.15984,-2.87905 -0.1016,-5.01336 l 0.10588,-3.88056 1.45344,-0.10623 c 1.7744,-0.1297 1.88619,0.14353 1.89313,4.62734 0.006,3.75774 0.31255,4.47473 1.91431,4.47473 1.81804,0 2.12534,-0.67168 2.32384,-5.07928 l 0.17639,-3.91656 h 1.5875 1.5875 l 0.0965,6.08542 0.0965,6.08542 h -1.57501 c -0.86626,0 -1.67339,-0.15918 -1.79363,-0.35373 -0.13142,-0.21265 -0.45631,-0.23222 -0.81457,-0.0491 -0.77397,0.39566 -2.84941,0.65843 -3.85615,0.48821 z m 20.44468,-0.13165 c -1.90066,-0.54675 -2.54133,-2.01766 -2.54288,-5.83825 -10e-4,-3.08956 -0.0379,-3.24385 -0.79507,-3.35139 -0.60841,-0.0864 -0.81957,-0.38051 -0.90432,-1.25949 -0.0915,-0.94935 0.0413,-1.20448 0.77143,-1.48209 0.69262,-0.26333 0.90572,-0.62307 0.99251,-1.67546 0.11024,-1.33675 0.11453,-1.34014 1.69802,-1.34014 h 1.5875 l 0.17639,1.41111 c 0.16249,1.29994 0.27367,1.42501 1.41111,1.5875 1.14233,0.16319 1.23472,0.26879 1.23472,1.41111 0,1.17214 -0.067,1.24028 -1.32292,1.34422 l -1.32291,0.10949 v 2.75773 c 0,2.97395 0.42307,3.79809 1.76907,3.4461 0.97726,-0.25556 2.08284,1.71021 1.34947,2.39942 -0.67073,0.63033 -2.73862,0.87237 -4.10212,0.48014 z m 48.60858,0.002 c -1.94642,-0.53946 -2.96404,-1.46881 -2.6994,-2.46527 0.47017,-1.77035 0.76481,-1.9364 2.21168,-1.24643 2.15059,1.02554 4.38427,1.14431 5.42776,0.2886 1.29237,-1.0598 0.62697,-1.82701 -2.50231,-2.88518 -3.40637,-1.15187 -4.07847,-1.55874 -4.76372,-2.88387 -0.65836,-1.27314 -0.4618,-3.35586 0.44774,-4.74399 1.28998,-1.96876 5.24489,-2.85355 8.2638,-1.84878 1.96895,0.65532 2.21964,1.05589 1.59557,2.54952 -0.29524,0.70658 -0.60488,1.2847 -0.68809,1.2847 -0.0832,0 -0.72123,-0.23813 -1.41779,-0.52917 -1.84379,-0.77038 -3.8609,-0.68508 -4.65921,0.19704 -1.01633,1.12303 -0.30474,1.79616 3.04619,2.88152 3.67289,1.18966 4.91067,2.34958 4.90868,4.59992 -0.002,1.78159 -0.9857,3.55248 -2.36433,4.25451 -1.2981,0.66102 -5.24929,0.97849 -6.80657,0.54688 z m 14.85999,0.0375 c -0.65527,-0.1517 -1.60777,-0.57884 -2.11667,-0.94921 -1.27954,-0.93123 -2.51277,-3.49223 -2.51277,-5.2182 0,-1.89245 1.29057,-4.38308 2.7862,-5.37701 0.89346,-0.59375 1.71112,-0.7966 3.21103,-0.7966 3.39967,0 5.54779,2.06019 5.72911,5.49461 l 0.0917,1.73734 -4.23334,0.17639 -4.23333,0.17638 0.9541,0.97014 c 1.12586,1.14478 3.18268,1.32651 4.23498,0.37419 0.62271,-0.56354 0.70847,-0.54602 1.5766,0.32211 0.54291,0.54291 0.83317,1.1393 0.71032,1.45945 -0.47602,1.24047 -3.94294,2.15246 -6.19795,1.63041 z m 3.83723,-7.81532 c 0,-0.80364 -1.18156,-1.70348 -2.2368,-1.70348 -0.99984,0 -2.70209,1.14995 -2.70209,1.82539 0,0.1602 1.11125,0.29128 2.46945,0.29128 1.65182,0 2.46944,-0.1368 2.46944,-0.41319 z m 36.61528,7.83339 c -5.06615,-1.56839 -6.03248,-8.84772 -1.52519,-11.48917 2.57859,-1.51116 6.34292,-1.03985 7.75099,0.97045 0.75836,1.08271 0.71109,1.2474 -0.58416,2.03508 -1.11447,0.67775 -1.14757,0.67812 -1.85208,0.021 -0.39454,-0.36801 -1.14991,-0.77646 -1.6786,-0.90767 -1.31748,-0.32696 -3.09569,1.39889 -3.09569,3.00453 0,2.94213 2.32243,4.40501 4.39948,2.7712 1.07445,-0.84516 2.43463,-0.63887 3.13387,0.47529 1.03921,1.65588 -3.81182,3.96659 -6.54862,3.11933 z m 11.94641,-0.17905 c -2.92327,-1.03068 -4.25297,-3.13821 -4.04461,-6.41057 0.22588,-3.54731 2.39955,-5.76947 5.64359,-5.76947 3.50271,0 6.09436,2.53226 5.86327,5.7289 l -0.10867,1.50305 -3.85365,0.0907 c -2.11951,0.0499 -3.93253,0.16957 -4.02894,0.26597 -0.0964,0.0964 0.19698,0.57153 0.65196,1.05584 0.98904,1.05278 2.9313,1.18746 4.20987,0.29191 0.81157,-0.56844 0.86794,-0.55409 1.64333,0.41834 0.57463,0.72065 0.7129,1.17518 0.4863,1.59858 -0.67725,1.26546 -4.36641,1.96577 -6.46245,1.22675 z m 4.35497,-7.52741 c 0,-0.67815 -1.51376,-1.83041 -2.40469,-1.83041 -1.13944,0 -2.5342,0.88473 -2.5342,1.60751 0,0.39521 0.55269,0.50916 2.46945,0.50916 1.35819,0 2.46944,-0.12881 2.46944,-0.28626 z m 6.82204,7.6456 c -1.86597,-0.42323 -2.36742,-1.01866 -2.05517,-2.44033 0.21788,-0.99199 0.34034,-1.08126 1.17773,-0.85855 0.51401,0.13671 1.84738,0.32501 2.96304,0.41844 1.8626,0.15599 2.02848,0.11098 2.02848,-0.55043 0,-0.53185 -0.34611,-0.81642 -1.32292,-1.0877 -0.72761,-0.20206 -1.51389,-0.36827 -1.74729,-0.36936 -0.9354,-0.004 -2.30214,-0.89858 -2.77709,-1.81701 -1.04186,-2.01475 -0.40077,-4.02226 1.61786,-5.06614 1.227,-0.6345 4.88387,-0.69605 6.18315,-0.10406 0.79216,0.36093 0.89728,0.57958 0.71554,1.48828 -0.28604,1.43017 -0.68157,1.76101 -1.54986,1.29631 -1.00996,-0.54051 -3.42349,-0.48059 -3.90277,0.0969 -0.54389,0.65535 0.0898,1.14619 1.90143,1.47279 1.68065,0.30298 2.54812,0.70558 3.61597,1.67821 1.84351,1.6791 0.38555,5.28697 -2.31432,5.72703 -2.63937,0.4302 -3.09553,0.44184 -4.53378,0.11562 z m 39.63308,-0.11935 c -1.7326,-0.60504 -2.52411,-1.34018 -3.40732,-3.16466 -1.56246,-3.22759 -0.34218,-6.83112 2.88399,-8.51655 2.28215,-1.19224 6.31922,-0.28398 7.35703,1.6552 0.35984,0.67237 0.30233,0.86785 -0.41845,1.42215 -1.07568,0.82722 -1.57925,0.81834 -2.67966,-0.0472 -1.23277,-0.9697 -2.08744,-0.88532 -3.2984,0.32564 -0.76344,0.76344 -1.03119,1.36588 -1.03119,2.32019 0,0.95431 0.26775,1.55674 1.03119,2.32019 1.21096,1.21096 2.06563,1.29534 3.2984,0.32564 1.11558,-0.87751 1.7176,-0.88746 2.7573,-0.0456 0.7881,0.63817 0.79507,0.69052 0.21056,1.58259 -0.33248,0.50742 -0.95948,1.14393 -1.39334,1.41445 -1.19452,0.74482 -3.77726,0.94324 -5.31011,0.40796 z m -215.53667,-0.0502 c -0.3055,-0.3055 -0.3396,-10.78375 -0.0377,-11.57061 0.28588,-0.74499 2.89943,-0.77585 3.18273,-0.0376 0.17603,0.45873 0.31903,0.45873 1.20613,0 0.55353,-0.28625 1.73101,-0.52044 2.61662,-0.52044 1.3411,0 1.83042,0.20166 2.92793,1.20671 l 1.31774,1.20671 0.11522,4.98733 0.11521,4.98733 -1.70271,-0.10862 -1.70272,-0.10863 -0.10088,-3.8668 c -0.11136,-4.26797 -0.47938,-5.12903 -2.19218,-5.12903 -1.77084,0 -2.27357,1.06648 -2.46944,5.23867 l -0.17639,3.75716 -1.42391,0.10479 c -0.78315,0.0576 -1.53721,-0.008 -1.67569,-0.14699 z m 39.34114,-8.15988 0.0946,-8.37847 h 1.41111 1.41111 l 0.22242,8.11388 c 0.12233,4.46264 0.15265,8.23296 0.0674,8.37848 -0.0853,0.14552 -0.86292,0.26458 -1.72811,0.26458 h -1.57307 z m 15.52019,2.31273 0.0966,-6.10509 h 1.5875 1.5875 v 5.99722 5.99722 l -1.6841,0.10787 -1.68411,0.10787 z m 6.15263,5.83055 c -0.44164,-0.44164 -0.26794,-11.23261 0.18815,-11.6887 0.60611,-0.60611 2.73029,-0.53674 2.97352,0.0971 0.17604,0.45874 0.31904,0.45874 1.20613,0 1.2849,-0.66444 3.61397,-0.66769 4.89197,-0.007 1.70663,0.88253 2.14671,2.39731 2.14671,7.389 v 4.4446 h -1.53573 -1.53574 l -0.22815,-2.69906 c -0.12548,-1.48449 -0.22815,-3.28551 -0.22815,-4.00227 0,-2.39991 -2.41886,-3.36707 -3.85495,-1.54138 -0.63289,0.80458 -0.73116,1.42101 -0.73116,4.58612 v 3.65659 h -1.52871 c -0.84079,0 -1.63454,-0.10584 -1.76389,-0.23519 z m 60.52246,-5.85023 0.0965,-6.08541 1.26492,-0.10604 c 0.80692,-0.0676 1.42536,0.0873 1.70804,0.42791 0.39542,0.47644 0.53243,0.47543 1.27233,-0.009 0.45606,-0.29882 1.19556,-0.49138 1.64334,-0.42791 0.67887,0.0962 0.83183,0.35743 0.92054,1.57204 0.10332,1.41457 0.0705,1.46336 -1.13639,1.68978 -1.75331,0.32892 -2.32063,1.32334 -2.32527,4.07583 -0.002,1.26652 -0.10228,2.89807 -0.22255,3.62567 -0.21401,1.29475 -0.25166,1.32292 -1.76834,1.32292 h -1.54967 z m 9.85374,0.35278 c -1.20707,-3.15295 -2.22938,-5.89139 -2.27178,-6.08542 -0.0433,-0.1983 0.69262,-0.35277 1.68071,-0.35277 h 1.7578 l 1.38163,3.81028 c 0.7599,2.09565 1.49848,3.68315 1.64129,3.52777 0.1428,-0.15537 0.78482,-1.71125 1.4267,-3.4575 0.64188,-1.74625 1.31454,-3.37344 1.4948,-3.61597 0.46985,-0.63217 3.06358,-0.58111 3.06358,0.0603 0,0.2757 -0.97208,3.05383 -2.16018,6.17361 l -2.16017,5.67233 h -1.82985 -1.82985 z m 11.6657,-0.35278 0.0965,-6.08541 1.16957,-0.11227 c 2.05533,-0.19729 2.18182,0.1475 2.18182,5.94744 0,2.87079 -0.0964,5.47073 -0.21414,5.77764 -0.15053,0.39229 -0.67688,0.55802 -1.77222,0.55802 h -1.55808 z m 48.68492,-1.76389 0.0949,-7.8493 h 1.5875 1.5875 l 0.0949,7.8493 0.095,7.84931 h -1.77739 -1.77739 z m 6.34833,1.78357 0.0966,-6.10509 1.17953,-0.11301 c 0.71349,-0.0684 1.42014,0.10475 1.78853,0.43814 0.53637,0.4854 0.69023,0.4897 1.28992,0.036 0.3941,-0.29815 1.47589,-0.51984 2.56827,-0.52634 1.67251,-0.01 2.02003,0.12145 3.05276,1.15418 1.35964,1.35964 1.70007,3.15211 1.52068,8.00683 l -0.1108,2.99861 h -1.5875 -1.5875 l -0.10088,-3.8668 c -0.11136,-4.26797 -0.47938,-5.12903 -2.19218,-5.12903 -1.77084,0 -2.27357,1.06648 -2.46944,5.23866 l -0.17639,3.75717 -1.68411,0.10787 -1.68411,0.10786 z m -263.252002,2.75968 c -3.05107,-1.01279 -4.83031,-2.70592 -5.83451,-5.55212 -0.62544,-1.77269 -0.62913,-1.56113 0.0389,-2.22912 0.42409,-0.4241 1.32152,-0.55437 3.81906,-0.55437 3.61723,0 3.78963,-0.092 5.48719,-2.92843 0.44139,-0.73751 1.19054,-1.59516 1.66476,-1.90589 0.80151,-0.52516 0.92597,-0.51736 1.76719,0.11069 2.88972,2.15749 2.96318,9.66882 0.11784,12.04964 -1.70104,1.42333 -4.57569,1.83439 -7.0604,1.0096 z m -12.34138,-0.81427 c -2.18304,-0.95041 -3.07505,-1.79818 -3.45118,-3.28003 -0.19811,-0.7805 -0.23138,-1.41908 -0.0739,-1.41908 0.15745,0 1.07819,0.39775 2.04608,0.88389 0.97246,0.48844 2.73001,0.9853 3.92835,1.11056 2.17103,0.22691 3.89482,1.12636 3.89482,2.03225 0,0.54975 -2.30144,1.27524 -3.92148,1.23618 -0.65659,-0.0158 -1.74679,-0.26952 -2.42267,-0.56377 z m -6.38409,-7.69044 c -2.81931,-1.46888 -4.20509,-3.98817 -4.20509,-7.64465 0,-1.55635 0.1243,-2.06403 0.50539,-2.06403 0.27797,0 0.59819,0.2924 0.71162,0.64976 0.37593,1.18444 1.8385,2.2017 4.47144,3.11002 3.87065,1.3353 5.95321,3.22562 5.95321,5.40366 0,1.62456 -4.70312,1.96938 -7.43657,0.54524 z m 11.47149,-2.57971 c -2.67338,-1.49109 -4.34106,-3.56951 -4.78931,-5.9689 -0.58357,-3.12368 0.49508,-3.99026 3.87617,-3.11413 2.67911,0.69422 3.39273,0.44908 4.33023,-1.487544 1.69654,-3.50457 3.93699,-4.90935 5.34183,-3.34937 1.14495,1.27139 2.02283,4.268354 2.02283,6.905674 0,3.16606 -0.94006,5.2538 -2.99861,6.65943 -1.22943,0.83949 -1.75175,0.96315 -4.05695,0.96048 -1.83353,-0.002 -2.97751,-0.18806 -3.72619,-0.60564 z m 127.401142,-0.0443 c -0.80896,-0.89389 -0.59288,-2.09239 0.52745,-2.92552 1.83196,-1.36234 3.92237,0.78375 2.65198,2.72261 -0.70669,1.07854 -2.29524,1.17992 -3.17943,0.20291 z m 88.22279,0.0313 c -1.72382,-1.9048 0.69039,-4.45351 2.71212,-2.86322 1.069,0.84088 1.17692,1.59825 0.3882,2.72431 -0.67804,0.96804 -2.28482,1.04003 -3.10032,0.13891 z M 57.674868,98.298046 c -2.92212,-1.36075 -4.40543,-3.87813 -4.40543,-7.47659 0,-2.35212 0.3714,-2.85444 1.10164,-1.48998 0.8245,1.54059 1.55078,1.99022 5.09311,3.15309 3.0449,0.99957 5.44692,3.11755 5.44692,4.80283 0,0.97318 -0.15488,1.14523 -1.32292,1.46961 -2.08819,0.57992 -4.00125,0.43144 -5.91332,-0.45896 z m 13.58624,0.24852 c -2.25703,-0.77925 -3.73313,-2.00847 -4.9411,-4.1147 -0.87667,-1.52857 -1.05005,-2.22002 -1.05281,-4.19876 -0.003,-2.03219 0.0999,-2.42407 0.72293,-2.75751 0.81891,-0.43827 2.6134,-0.15236 3.67378,0.58532 1.16588,0.81107 2.44137,0.59429 3.29475,-0.55996 0.42454,-0.57423 0.77189,-1.13408 0.77189,-1.24412 0,-0.4267 2.25056,-2.64567 2.88878,-2.84823 1.01684,-0.32274 2.31644,0.72879 3.19955,2.5888 0.6496,1.36816 0.78935,2.26422 0.78249,5.01704 -0.009,3.72511 -0.42703,4.90913 -2.28299,6.47081 -1.93483,1.62806 -4.35957,1.9927 -7.05727,1.06131 z m 48.330562,0.0813 c 0,-0.45161 4.46749,-11.20624 12.76127,-30.72037 l 2.24903,-5.291665 h 4.36001 4.36001 l 1.38896,3.175005 c 5.02226,11.4803 14.03906,32.66092 14.03906,32.97799 0,0.25764 -1.39054,0.34911 -4.28961,0.28217 l -4.2896,-0.0991 -1.5785,-3.79875 -1.5785,-3.79874 -8.09924,0.0946 -8.09923,0.0946 -1.46669,3.70416 -1.46669,3.70417 -4.14514,0.0994 c -3.47186,0.0832 -4.14514,0.0145 -4.14514,-0.42347 z m 24.34167,-14.39315 c 0,-0.6428 -4.72732,-12.61182 -4.98359,-12.61785 -0.27219,-0.006 -4.50222,10.64675 -4.78104,12.04086 l -0.20134,1.00672 h 4.98298 c 3.68164,0 4.98299,-0.11223 4.98299,-0.42973 z m 18.85895,14.45264 c -0.0929,-0.24253 -0.1276,-8.45784 -0.0771,-18.25625 l 0.0918,-17.815275 9.32477,-0.09418 c 5.28507,-0.05338 10.17567,0.06194 11.28889,0.266175 2.94084,0.539549 7.32302,2.8017 9.31778,4.80998 4.42427,4.45426 6.17019,11.63178 4.45793,18.32665 -1.66792,6.52148 -6.64709,11.27515 -13.28268,12.6811 -3.23632,0.68572 -20.86388,0.75398 -21.12135,0.0818 z m 19.59383,-7.35145 c 2.72438,-1.03416 4.70862,-2.77986 5.88338,-5.17609 0.89158,-1.81862 0.99107,-2.38335 0.97821,-5.55232 -0.012,-2.95526 -0.14302,-3.77368 -0.8074,-5.04298 -1.14875,-2.19469 -2.93066,-4.02776 -4.87952,-5.01959 -1.58404,-0.80616 -2.07589,-0.86735 -6.99551,-0.87033 l -5.29166,-0.003 -0.0935,10.75608 c -0.0514,5.91584 -0.0167,10.95615 0.0771,11.20069 0.12493,0.32556 1.37799,0.44457 4.6796,0.44444 3.71712,-1.5e-4 4.84974,-0.12953 6.44927,-0.73669 z m 21.33285,7.36307 c -0.0953,-0.24892 -0.13206,-8.46946 -0.0816,-18.26787 l 0.0918,-17.815275 h 10.23056 10.23056 l 2.46944,1.166109 c 3.96877,1.874116 6.01643,4.283086 7.10517,8.358896 0.83211,3.11506 0.42949,6.73024 -1.07295,9.63426 -0.81736,1.57986 -2.93505,3.87859 -4.15363,4.50874 -0.54815,0.28347 -0.99645,0.70975 -0.9962,0.94731 2.4e-4,0.23755 1.58754,2.81316 3.52733,5.72358 1.93979,2.91041 3.52709,5.4901 3.52734,5.73263 3.3e-4,0.32903 -1.10703,0.44098 -4.36216,0.44098 h -4.3626 l -3.35448,-5.20348 -3.35447,-5.20347 h -3.48362 -3.48362 l -0.17639,5.11528 -0.17639,5.11528 -3.97536,0.0998 c -2.98359,0.0749 -4.01862,-0.0131 -4.14873,-0.35278 z m 19.11926,-18.14001 c 1.61826,-1.0493 2.94394,-3.38447 2.93181,-5.16438 -0.0125,-1.83145 -1.17002,-3.9334 -2.68463,-4.87493 -1.23535,-0.76794 -1.82391,-0.85982 -6.21526,-0.97029 l -4.8507,-0.12203 v 6.03106 6.03105 h 4.69189 c 4.47204,0 4.75912,-0.0436 6.12689,-0.93048 z m 17.75622,0.22492 V 62.439982 h 4.05695 4.05694 v 18.344444 18.34445 h -4.05694 -4.05695 z m 12.09208,17.7383 c 0.16608,-0.56186 8.40359,-19.99472 13.3513,-31.49663 l 1.8969,-4.409725 h 4.36804 4.36804 l 2.6097,5.997225 c 1.43533,3.29847 3.55753,8.1748 4.71599,10.83629 1.15845,2.66149 2.10628,4.9061 2.10628,4.98804 0,0.0819 1.34938,3.20036 2.99861,6.92984 1.64924,3.72947 2.99862,7.00141 2.99862,7.27098 0,0.39121 -0.85834,0.49013 -4.25318,0.49013 h -4.25317 l -0.62904,-1.49931 c -0.34598,-0.82462 -1.07051,-2.57375 -1.61008,-3.88695 l -0.98102,-2.38765 -8.10731,0.0946 -8.10731,0.0946 -1.48251,3.70417 -1.48251,3.70416 -4.34657,0.0994 c -4.0287,0.0921 -4.33298,0.0534 -4.16078,-0.52916 z m 24.59681,-14.28801 c 0,-0.23665 -1.03187,-3.00946 -2.29305,-6.16179 -1.26118,-3.15233 -2.29306,-5.89558 -2.29306,-6.09612 0,-0.20053 -0.13371,-0.3646 -0.29713,-0.3646 -0.36875,0 -5.33712,12.42315 -5.11436,12.78819 0.0888,0.14552 2.3746,0.26459 5.07953,0.26459 3.63404,0 4.91807,-0.11234 4.91807,-0.43027 z m 18.69722,-3.45029 V 62.439982 l 3.61597,0.01467 3.61598,0.01466 2.6326,3.424914 c 8.17307,10.63286 13.87656,17.68917 14.15749,17.51555 0.17927,-0.1108 0.31963,-4.75827 0.31963,-10.58367 V 62.439981 h 4.05694 4.05695 v 18.344445 18.34445 h -3.4757 -3.4757 l -7.38962,-9.43681 c -4.06428,-5.19024 -7.83601,-10.03057 -8.3816,-10.75629 -0.5456,-0.72571 -1.13308,-1.23228 -1.30552,-1.1257 -0.17244,0.10657 -0.31353,4.9469 -0.31353,10.75628 v 10.56252 h -4.05694 -4.05695 z m 36.33611,17.92328 c 0,-0.37903 2.54075,-6.4797 13.34136,-32.03439 l 1.71466,-4.056945 4.39994,-0.09824 4.39994,-0.09824 4.10765,9.623235 c 2.25921,5.29278 5.70233,13.27449 7.65138,17.73713 1.94905,4.46264 3.63373,8.3917 3.74373,8.73125 0.18323,0.5656 -0.16799,0.61736 -4.18888,0.61736 h -4.38888 l -1.57624,-3.79236 -1.57624,-3.79236 -8.12034,-0.0946 -8.12034,-0.0946 -1.55083,3.79874 -1.55083,3.79874 -4.14304,0.0994 c -3.14481,0.0754 -4.14304,-0.007 -4.14304,-0.34416 z m 24.34827,-14.66008 c 0.008,-0.76377 -4.64702,-12.43542 -4.95982,-12.43542 -0.28692,0 -4.92456,11.78225 -4.92456,12.51119 0,0.46114 0.73361,0.54159 4.93889,0.54159 4.466,0 4.93952,-0.0591 4.94549,-0.61736 z m -291.001232,0.41657 c -2.16138,-0.67881 -3.76553,-2.01115 -4.98815,-4.14291 -0.87143,-1.51944 -1.05006,-2.22466 -1.05281,-4.15649 -0.003,-1.80879 0.14027,-2.45651 0.64183,-2.91041 0.89094,-0.80629 3.47142,-0.74668 5.26878,0.12171 0.80318,0.38805 1.66644,0.69585 1.91835,0.684 0.2519,-0.0119 0.94025,-0.68553 1.52966,-1.49704 1.23293,-1.69754 2.03897,-1.98365 3.03892,-1.07871 1.36663,1.23679 2.06304,3.42169 2.06304,6.47256 0,5.90128 -2.99035,8.21244 -8.41962,6.50729 z m -13.95822,-0.77874 c -2.91824,-1.71457 -4.06258,-3.50377 -4.29977,-6.7228 -0.10827,-1.46934 -0.0234,-2.5504 0.22624,-2.88101 0.35514,-0.47037 0.42178,-0.47037 0.59974,0 0.4798,1.26815 2.86709,3.02231 5.02365,3.69133 2.61986,0.81275 4.71,2.22383 5.46949,3.69253 0.76672,1.48267 0.67606,2.10757 -0.36309,2.50265 -1.505,0.5722 -5.4892,0.40299 -6.65626,-0.2827 z m 9.41049,-14.36788 c -2.26135,-1.0276 -3.76844,-2.61194 -4.48498,-4.714872 -0.92542,-2.715963 -0.60972,-5.98381 0.66,-6.831625 0.79051,-0.527834 3.54643,-0.255703 5.12748,0.506308 1.75823,0.847403 4.90578,3.817842 5.53223,5.220929 0.21658,0.485069 0.59431,1.306759 0.8394,1.82598 0.24509,0.51921 0.46476,1.54592 0.48817,2.28155 0.038,1.19426 -0.0897,1.40307 -1.19217,1.94944 -1.79444,0.88931 -4.70871,0.78992 -6.97013,-0.23771 z m -12.96645,-0.48068 c -1.59604,-0.72505 -2.93728,-2.3264 -3.8126,-4.551969 -0.94728,-2.408542 -0.66263,-5.893768 0.4264,-5.22071 0.21572,0.133323 0.39222,0.459604 0.39222,0.725068 0,0.707045 2.50112,2.650697 3.41095,2.650697 0.42941,0 0.86799,0.141164 0.97462,0.313698 0.10663,0.172533 0.62073,0.420829 1.14243,0.551768 1.30087,0.326498 3.47605,1.936268 4.14764,3.069518 0.71301,1.20315 0.71149,2.63223 -0.003,2.90644 -1.20751,0.46337 -5.27618,0.19256 -6.67856,-0.44451 z m 13.29163,-14.122091 c -2.13886,-0.752104 -4.02337,-2.394725 -5.06336,-4.413447 -0.57329,-1.112803 -0.6848,-1.885391 -0.57784,-4.003484 0.16498,-3.267135 0.64014,-3.760719 3.3639,-3.494355 2.95253,0.288735 6.63369,3.339156 8.01282,6.63987 0.85266,2.040712 1.07502,4.658883 0.44041,5.185567 -0.93111,0.772747 -4.09733,0.816759 -6.17593,0.08585 z m -13.34419,-0.602182 c -1.56466,-0.771699 -3.09272,-2.224793 -3.80527,-3.618585 -0.7813,-1.528272 -1.07625,-4.527188 -0.57279,-5.823756 l 0.39325,-1.012755 1.02594,1.416266 c 1.15263,1.591155 2.36243,2.549522 3.21841,2.549522 0.7616,0 3.81703,1.627808 4.85826,2.588282 1.82412,1.682647 2.35655,3.888032 1.02481,4.244923 -1.51148,0.405061 -5.02262,0.208488 -6.14261,-0.343897 z m 13.17155,-14.223834 c -3.64684,-1.7219 -5.7463,-5.500185 -4.87222,-8.768282 0.24363,-0.91088 0.69622,-1.936 1.00578,-2.27805 1.79519,-1.98367 7.07685,1.07065 9.26359,5.357022 0.58581,1.148269 0.724,1.971598 0.64243,3.827432 l -0.10393,2.36446 -2.29306,0.06731 c -1.59361,0.04678 -2.7047,-0.127056 -3.64259,-0.56989 z m -11.89076,-0.0058 c -2.19575,-0.66712 -3.81426,-2.071487 -4.94758,-4.292979 -0.56248,-1.102546 -0.69386,-1.94256 -0.61268,-3.917308 0.0568,-1.38259 0.26223,-2.56623 0.45644,-2.63032 0.19421,-0.0641 0.67046,0.53128 1.05833,1.32304 0.75509,1.54134 1.00437,1.716914 5.21449,3.672721 2.8055,1.303294 4.83935,3.321474 4.83935,4.802061 0,1.099071 -3.70604,1.742276 -6.00835,1.042785 z m 15.31505,-15.054037 c -3.11098,-1.51501 -4.69715,-4.57829 -4.17469,-8.06235 0.33323,-2.2221 1.30369,-3.13869 3.07204,-2.90151 4.27566,0.57349 7.52913,5.48591 6.80988,10.28225 l -0.2405,1.60374 -1.83046,-0.0214 c -1.19745,-0.014 -2.45496,-0.32548 -3.63627,-0.90076 z m -11.42337,0.15485 c -1.64972,-0.46879 -3.28202,-1.75042 -4.2744,-3.35612 -0.64832,-1.04901 -0.81629,-1.83488 -0.82719,-3.87017 -0.0159,-2.97216 0.53312,-3.96735 1.19632,-2.16842 0.9277,2.51634 2.02584,4.29387 3.37611,5.4648 1.44708,1.25489 4.18495,2.70282 5.90902,3.125 0.53358,0.13066 0.97014,0.35926 0.97014,0.508 0,0.70427 -4.22178,0.90167 -6.35,0.29691 z m 5.86313,-14.83731 c -3.20382,-0.84779 -5.34955,-4.8559 -4.59798,-8.58879 0.36371,-1.80647001 0.9268,-2.08409001 1.23172,-0.60728001 0.35415,1.71528001 1.45151,3.76340001 2.76263,5.15620001 1.27536,1.35483 5.14165,3.41668 6.40678,3.41668 0.37452,0 0.68095,0.23812 0.68095,0.52916 0,0.42507 -0.50317,0.522 -2.55764,0.49271 -1.40671,-0.02 -3.17361,-0.19946 -3.92646,-0.39868 z"
     id="path1" /><path
     style="fill:#13304e;fill-opacity:1;stroke-width:0.107786"
     d="m 119.86757,98.86781 c -0.10374,-0.06043 -0.18862,-0.182309 -0.18862,-0.270852 0,-0.444351 3.86773,-9.776324 11.8342,-28.553301 l 3.10968,-7.329455 h 4.33985 4.33986 l 1.50672,3.449156 c 3.68705,8.440316 11.53755,26.822108 13.2806,31.096293 0.39167,0.96044 0.55723,1.491755 0.48701,1.562899 -0.11964,0.121206 -8.22097,0.155641 -8.34106,0.03546 -0.0398,-0.03978 -0.752,-1.713161 -1.58271,-3.718621 -0.83074,-2.005459 -1.54818,-3.686511 -1.59433,-3.735668 -0.0461,-0.04916 -3.72697,-0.05396 -8.17962,-0.01066 l -8.09572,0.0787 -1.46018,3.686665 -1.46018,3.686664 -0.88543,0.06893 c -1.44238,0.112287 -6.89883,0.07683 -7.11007,-0.0462 z m 21.63807,-14.212919 c 1.12636,-0.04999 2.13823,-0.127611 2.24859,-0.172487 0.15933,-0.0648 0.18984,-0.162082 0.1482,-0.47261 -0.14235,-1.061339 -4.66233,-12.403238 -4.94295,-12.403238 -0.13068,0 -0.53533,0.834287 -1.32861,2.739316 -2.1232,5.098823 -3.7158,9.517131 -3.7234,10.329751 0,0.107413 5.01955,0.09372 7.59817,-0.02074 z"
     id="path3" /><path
     style="fill:#13304e;fill-opacity:1;stroke-width:0.107786"
     d="m 165.27248,98.973352 c -0.8596,-0.04768 -1.75692,-0.127556 -1.99405,-0.177498 l -0.43114,-0.0908 V 80.745527 c 0,-9.877738 0.0258,-17.985298 0.0573,-18.016802 0.0315,-0.0315 3.35402,-0.08978 7.38335,-0.129506 8.80732,-0.08683 12.26264,0.02003 13.87541,0.429149 1.84605,0.468289 4.29481,1.570365 6.16939,2.776561 2.38278,1.5332 4.05477,3.444571 5.4434,6.222754 2.06164,4.124619 2.56354,9.322517 1.34356,13.914427 -1.45343,5.470623 -5.17889,9.696923 -10.36311,11.756316 -1.26406,0.502139 -3.06969,0.926809 -4.50781,1.060201 -3.29869,0.305969 -13.09713,0.429905 -16.97631,0.214725 z m 14.7128,-7.006426 c 3.22636,-0.393732 6.32138,-2.35508 7.89466,-5.002932 1.25432,-2.111023 1.49786,-3.33443 1.39339,-6.999417 -0.0356,-1.247457 -0.11426,-2.510623 -0.17489,-2.807036 -0.15878,-0.776327 -0.98818,-2.393741 -1.73724,-3.387823 -1.20042,-1.59308 -2.90752,-2.953906 -4.57348,-3.645775 -0.92983,-0.386157 -2.00448,-0.457537 -6.88844,-0.457537 h -4.66323 l -0.0716,6.48493 c -0.0906,8.207912 -0.0913,13.728954 -0.002,14.786988 l 0.0697,0.825079 0.38835,0.106 c 0.21359,0.0583 0.5096,0.124259 0.65781,0.14658 0.6486,0.09767 6.8266,0.05835 7.70671,-0.04906 z"
     id="path4" /><path
     style="fill:#13304e;fill-opacity:1;stroke-width:0.107786"
     d="m 222.5583,93.897895 -3.34386,-5.207241 -3.51352,-0.0284 -3.51351,-0.0284 -0.0658,1.05237 c -0.0362,0.578805 -0.12202,2.871261 -0.19076,5.094351 -0.0687,2.223087 -0.14529,4.065042 -0.17012,4.093231 -0.10474,0.118895 -7.18405,0.133254 -7.57751,0.01537 l -0.40289,-0.120711 -0.0796,-2.873669 c -0.0438,-1.580517 -0.0435,-9.704853 5.3e-4,-18.054076 l 0.0802,-15.18041 h 10.1579 c 9.09489,0 10.20137,0.01815 10.57332,0.173577 1.08107,0.451702 3.6512,1.794872 4.41634,2.308019 1.00135,0.67156 2.42342,2.06312 2.98142,2.917446 2.45991,3.766249 2.89002,8.589068 1.14075,12.791014 -0.75671,1.817695 -2.83955,4.304681 -4.47635,5.344914 -0.42701,0.271373 -0.85638,0.615511 -0.95417,0.764754 -0.17148,0.26171 -0.16359,0.297191 0.22198,0.998649 0.43941,0.799412 2.20249,3.58014 3.51614,5.545645 1.02352,1.531417 2.67414,4.183055 2.98876,4.801267 l 0.23059,0.45312 -0.40385,0.125135 c -0.26163,0.08107 -1.78938,0.142065 -4.33805,0.173209 l -3.93419,0.04808 z m -0.95962,-12.623117 c 1.86122,-0.612992 3.68152,-2.839657 4.11336,-5.0316 0.1559,-0.791318 0.1555,-0.938898 -0.005,-1.751933 -0.47007,-2.385976 -2.24998,-4.321654 -4.33222,-4.711348 -0.6299,-0.117885 -3.81301,-0.271815 -7.57197,-0.366168 l -1.85932,-0.04667 v 6.086117 6.086115 l 4.55397,-0.0422 c 3.88682,-0.03602 4.63408,-0.06858 5.10085,-0.222316 z"
     id="path5" /><path
     style="fill:#13304e;fill-opacity:1;stroke-width:0.107786"
     d="M 240.61497,80.768376 V 62.444737 h 4.04198 4.04198 v 18.323639 18.323639 h -4.04198 -4.04198 z"
     id="path6" /><path
     style="fill:#13304e;fill-opacity:1;stroke-width:0.107786"
     d="m 283.11779,97.837319 c -0.29543,-0.703054 -1.01836,-2.460091 -1.6065,-3.904531 l -1.06935,-2.626251 -5.32619,0.06633 c -2.9294,0.03648 -6.59883,0.06633 -8.15429,0.06633 h -2.8281 l -1.4802,3.703515 -1.4802,3.703516 -0.97205,0.069 c -0.53463,0.03795 -2.38953,0.069 -4.12199,0.069 -2.62002,0 -3.17175,-0.0263 -3.27963,-0.156273 -0.10482,-0.126302 0.16317,-0.854962 1.3974,-3.799462 2.36302,-5.637477 6.81504,-16.120578 10.45049,-24.607586 l 3.3012,-7.706706 4.33688,-0.02817 4.33688,-0.02817 0.19991,0.459316 c 6.7195,15.439054 8.62758,19.846803 9.05695,20.92194 0.28779,0.720593 1.47711,3.492839 2.64295,6.160545 2.44069,5.584884 3.54976,8.302078 3.47169,8.505537 -0.098,0.2554 -0.61071,0.295648 -4.502,0.353428 l -3.83671,0.05697 z m -6.69817,-13.254673 c 1.0111,-0.101081 1.02397,-0.132948 0.57477,-1.423455 -0.21209,-0.609309 -1.09352,-2.912251 -1.95874,-5.117643 -0.86523,-2.205392 -1.75993,-4.543345 -1.98825,-5.19545 -0.52123,-1.488763 -0.63209,-1.519413 -1.2092,-0.334299 -0.92057,1.89044 -3.30356,7.834117 -4.2052,10.488647 -0.34309,1.010116 -0.41744,1.345406 -0.31993,1.442913 0.25281,0.252809 6.94687,0.355198 9.10655,0.139287 z"
     id="path7" /><path
     style="fill:#13304e;fill-opacity:1;stroke-width:0.107786"
     d="M 296.01704,80.751665 V 62.411317 l 1.47215,0.0706 c 0.80968,0.03883 2.42487,0.0706 3.5893,0.0706 h 2.11714 l 3.17428,4.11807 c 8.41605,10.918349 13.38042,17.014677 13.64525,16.756605 0.19753,-0.192498 0.25068,-2.084467 0.31918,-11.36255 l 0.071,-9.619911 h 3.97375 3.97376 V 80.76837 99.092009 l -3.42221,-0.0044 -3.42221,-0.0044 -4.47312,-5.724726 c -2.46022,-3.1486 -6.06254,-7.766608 -8.00516,-10.262246 -3.44935,-4.431302 -4.2249,-5.345916 -4.5331,-5.345916 -0.098,0 -0.17748,0.18003 -0.22594,0.511984 -0.10385,0.711378 -0.26712,10.315467 -0.27302,16.060132 l -0.005,4.769535 h -3.98809 -3.98809 z"
     id="path8" /><path
     style="fill:#13304e;fill-opacity:1;stroke-width:0.107786"
     d="m 362.94119,98.58003 c -0.11806,-0.28159 -0.83186,-1.991346 -1.58623,-3.799458 l -1.37158,-3.287477 -8.06213,-0.0895 c -4.43417,-0.04923 -8.1194,-0.06656 -8.18939,-0.03852 -0.07,0.02805 -0.80631,1.72485 -1.63626,3.770683 l -1.50901,3.719695 -1.29343,0.0728 c -1.92553,0.108384 -6.70127,0.02709 -6.84464,-0.116517 -0.18102,-0.181316 1.57486,-4.446553 11.62116,-28.229155 l 3.32378,-7.868385 1.7703,-0.06904 c 0.97366,-0.03797 2.93843,-0.09386 4.36615,-0.124185 l 2.59584,-0.05515 3.32534,7.777001 c 1.82893,4.27735 4.99637,11.633049 7.03876,16.345996 4.91214,11.335144 5.22407,12.084129 5.08889,12.219304 -0.2028,0.202809 -1.31979,0.265616 -4.88694,0.274791 l -3.53596,0.0091 z m -8.31836,-13.921242 c 1.83176,-0.09081 2.07779,-0.161258 2.07779,-0.594955 0,-0.864053 -4.61711,-12.457277 -4.96123,-12.457277 -0.15494,0 -0.3102,0.293442 -0.96948,1.832364 -1.64338,3.836078 -3.874,9.761921 -3.95991,10.519884 -0.0405,0.357536 -0.0118,0.45834 0.15073,0.528124 0.47067,0.202134 5.0015,0.30376 7.6621,0.17186 z"
     id="path9" /><path
     style="fill:#13304e;fill-opacity:1;stroke-width:0.107786"
     d="m 365.21572,124.88622 c -1.13456,-0.18992 -2.43296,-0.85867 -3.11408,-1.60392 -1.38889,-1.51967 -2.08637,-3.8912 -1.69369,-5.75886 0.49922,-2.37441 2.43916,-4.39095 4.67168,-4.85617 0.80497,-0.16774 2.46858,-0.0679 3.31578,0.19905 1.60625,0.50608 2.85633,1.57001 2.85633,2.43099 0,0.30515 -0.52891,0.81323 -1.20636,1.15884 -0.58315,0.2975 -0.98451,0.22742 -1.77936,-0.31071 -1.26364,-0.8555 -1.74396,-0.95973 -2.57306,-0.55837 -0.56748,0.27471 -1.49748,1.24722 -1.77283,1.85386 -0.28682,0.63192 -0.28682,1.90439 0,2.53632 0.27535,0.60664 1.20535,1.57915 1.77283,1.85386 0.83024,0.40191 1.30885,0.29753 2.57917,-0.56253 0.75179,-0.50898 1.28467,-0.6119 1.80337,-0.34829 0.57299,0.29119 1.28403,0.90934 1.28403,1.11628 0,0.53111 -1.43458,2.10615 -2.22226,2.43985 -0.90721,0.38434 -2.85666,0.58806 -3.92155,0.4098 z"
     id="path10" /><path
     style="fill:#13304e;fill-opacity:1;stroke-width:0.107786"
     d="m 346.8395,122.79082 c 0.0302,-1.14823 0.0843,-3.86906 0.12015,-6.04629 l 0.0652,-3.9586 0.36385,-0.0683 c 0.20011,-0.0375 0.7252,-0.05 1.16686,-0.0277 0.69615,0.0352 0.86885,0.087 1.29749,0.38908 0.27195,0.19169 0.58324,0.34853 0.69174,0.34853 0.1085,0 0.48299,-0.14567 0.83219,-0.32371 1.1353,-0.57882 3.26571,-0.69082 4.28928,-0.22549 0.57599,0.26185 1.59475,1.31927 1.94116,2.01482 0.47814,0.96004 0.61876,1.77804 0.67949,3.95274 0.0311,1.11271 0.0212,2.87097 -0.022,3.90725 l -0.0785,1.88414 h -1.55131 -1.55131 l -0.002,-1.32037 c -0.002,-2.22801 -0.19934,-5.37521 -0.37926,-6.06297 -0.30988,-1.18458 -0.7588,-1.56184 -1.8593,-1.5625 -1.51639,-7.9e-4 -2.08138,0.67421 -2.3901,2.85593 -0.0587,0.41498 -0.16527,1.95122 -0.23678,3.41387 l -0.13001,2.65938 -0.60039,0.0599 c -0.33022,0.0329 -1.07324,0.0909 -1.65116,0.12893 l -1.05077,0.0691 z"
     id="path11" /><path
     style="fill:#13304e;fill-opacity:1;stroke-width:0.107786"
     d="m 340.49491,123.04748 c 0.021,-0.99298 0.0682,-4.5095 0.10476,-7.81449 l 0.0666,-6.00908 h 1.5324 1.53241 l 0.0714,5.57793 c 0.0393,3.06786 0.0714,6.58439 0.0715,7.8145 l 1.1e-4,2.23656 h -1.70868 -1.70868 z"
     id="path12" /><path
     style="fill:#13304e;fill-opacity:1;stroke-width:0.107786"
     d="m 324.62514,124.757 c -0.92487,-0.22747 -1.52577,-0.52616 -1.8015,-0.89547 -0.24837,-0.33266 -0.26777,-1.21558 -0.041,-1.86496 0.14183,-0.40612 0.17492,-0.43063 0.56994,-0.4222 0.23065,0.005 0.92117,0.0905 1.5345,0.19029 1.31565,0.21394 3.21496,0.34507 3.59962,0.24852 0.31463,-0.079 0.40829,-0.38805 0.2743,-0.90515 -0.14362,-0.55422 -0.42276,-0.65934 -3.53395,-1.33081 -0.57381,-0.12384 -1.52986,-0.75228 -1.95837,-1.2873 -0.43328,-0.54097 -0.7363,-1.48112 -0.7362,-2.28416 2e-4,-1.57302 1.22184,-2.979 2.91834,-3.35872 2.15935,-0.48333 5.11386,-0.21677 5.80994,0.52417 0.21587,0.22978 0.23567,0.32838 0.17059,0.84926 -0.0799,0.63979 -0.44044,1.44749 -0.72178,1.61711 -0.12749,0.0768 -0.33627,0.0357 -0.75451,-0.14877 -0.6886,-0.30369 -2.53715,-0.42593 -3.30687,-0.21867 -0.8562,0.23055 -1.11926,0.76604 -0.60875,1.23916 0.26319,0.24393 0.56777,0.34211 2.49415,0.80402 1.14767,0.27519 1.98629,0.69323 2.70218,1.34701 0.78756,0.71924 1.0164,1.19835 1.0164,2.128 0,1.30084 -0.80091,2.63094 -1.96605,3.26509 -1.15245,0.62724 -4.09424,0.88893 -5.661,0.50358 z"
     id="path13" /><path
     style="fill:#13304e;fill-opacity:1;stroke-width:0.107786"
     d="m 314.18042,124.83407 c -0.95717,-0.18254 -2.25879,-0.87568 -3.02368,-1.61016 -1.24072,-1.19141 -1.74965,-2.66509 -1.63099,-4.7228 0.11418,-1.98022 0.62276,-3.27421 1.71421,-4.36152 0.78271,-0.77975 1.53963,-1.18299 2.67212,-1.42355 3.10254,-0.65903 6.30181,1.25839 6.90275,4.13703 0.12148,0.58188 0.0796,2.66769 -0.0563,2.80358 -0.0311,0.0311 -1.41296,0.0939 -3.07072,0.13953 -1.65776,0.0456 -3.40431,0.11694 -3.88121,0.15854 -1.01075,0.0882 -1.06329,0.17577 -0.53932,0.8991 0.95815,1.32268 2.83968,1.61895 4.4968,0.70809 0.45727,-0.25135 0.78983,-0.36766 0.94202,-0.32947 0.26529,0.0666 1.14565,1.21492 1.26124,1.64516 0.34805,1.29552 -3.11442,2.46613 -5.78688,1.95647 z m 3.47468,-7.47774 c 0.35976,-0.10919 0.29855,-0.42363 -0.18449,-0.94767 -0.61716,-0.66953 -1.43455,-1.08737 -2.10986,-1.07853 -0.88366,0.0116 -2.05691,0.62282 -2.37458,1.23712 -0.23952,0.46318 -0.11647,0.71071 0.41698,0.83882 0.47922,0.11509 3.83832,0.0758 4.25195,-0.0497 z"
     id="path14" /><path
     style="fill:#13304e;fill-opacity:1;stroke-width:0.107786"
     d="m 302.06032,124.93971 c -0.96105,-0.14887 -2.09453,-0.76507 -2.90661,-1.58012 -1.63753,-1.64352 -2.3085,-4.0806 -1.73781,-6.31198 0.29005,-1.13407 0.67908,-1.81918 1.50992,-2.65901 2.10593,-2.12875 5.84308,-2.43394 8.16221,-0.66655 0.41318,0.31488 1.10884,1.32923 1.10884,1.61682 0,0.24451 -0.39907,0.62541 -1.13176,1.08025 -0.86264,0.53551 -1.01089,0.53828 -1.62389,0.0303 -1.52497,-1.26371 -2.74525,-1.29347 -3.94256,-0.0962 -0.24072,0.24071 -0.55981,0.70444 -0.70908,1.03049 -0.57919,1.26513 -0.0867,3.37156 0.96671,4.13464 0.97363,0.7053 1.96069,0.66223 3.1908,-0.13922 0.65176,-0.42464 0.76233,-0.46048 1.42078,-0.46048 0.61606,0 0.76834,0.0414 1.10994,0.30199 0.86387,0.6589 0.89624,1.31535 0.10289,2.08641 -1.1542,1.12175 -3.78865,1.90087 -5.52038,1.63261 z"
     id="path15" /><path
     style="fill:#13304e;fill-opacity:1;stroke-width:0.107786"
     d="m 291.84963,120.89176 c 0.0392,-2.17863 0.0713,-4.89187 0.0714,-6.02942 l 1.6e-4,-2.06828 0.48582,-0.0729 c 0.26719,-0.0401 0.79563,-0.0794 1.1743,-0.0874 0.78378,-0.0166 1.05784,0.14674 1.33179,0.7938 0.26821,0.6335 0.39174,4.15509 0.26994,7.69551 -0.0988,2.87086 -0.12264,3.11759 -0.32068,3.31564 -0.29336,0.29335 -0.87264,0.40857 -2.06942,0.41161 l -1.0145,0.003 z"
     id="path16" /><path
     style="fill:#13304e;fill-opacity:1;stroke-width:0.107786"
     d="m 292.58096,110.82249 c -0.64635,-0.31993 -1.09094,-1.02611 -1.09094,-1.73282 0,-1.06901 0.83803,-1.91369 1.89862,-1.91369 0.7037,0 1.63806,0.63751 1.98512,1.35443 0.20348,0.42033 0.21454,0.52142 0.0964,0.88058 -0.46044,1.39948 -1.69498,2.00261 -2.88917,1.4115 z"
     id="path17" /><path
     style="fill:#13304e;fill-opacity:1;stroke-width:0.107786"
     d="m 282.28016,124.50259 c -0.21891,-0.52948 -2.62921,-6.84888 -3.54583,-9.29655 -0.7225,-1.92931 -0.78843,-2.16701 -0.6277,-2.26317 0.0988,-0.0591 0.85864,-0.12274 1.6886,-0.14143 l 1.509,-0.034 0.84664,2.35106 c 1.01877,2.82903 1.64637,4.34532 1.96277,4.74213 l 0.23508,0.29482 0.24532,-0.48066 c 0.13493,-0.26436 0.6927,-1.64627 1.23949,-3.0709 1.19907,-3.12412 1.47112,-3.68656 1.85346,-3.83193 0.76526,-0.29095 1.98528,-0.24228 2.40287,0.0959 l 0.22593,0.18295 -0.60452,1.75966 c -0.33248,0.96781 -1.26184,3.4899 -2.06525,5.60465 -0.80341,2.11475 -1.50876,3.97838 -1.56746,4.14141 l -0.10672,0.29641 h -1.77343 -1.77342 z"
     id="path18" /><path
     style="fill:#13304e;fill-opacity:1;stroke-width:0.107786"
     d="m 270.30602,121.22638 c 0.0345,-2.00698 0.0913,-4.72706 0.12616,-6.04464 l 0.0634,-2.39559 0.36284,-0.0681 c 0.19956,-0.0374 0.74956,-0.0505 1.22221,-0.029 0.79901,0.0363 0.88472,0.0636 1.22023,0.38878 0.19847,0.19236 0.44271,0.34975 0.54277,0.34975 0.10005,0 0.47724,-0.1548 0.83818,-0.344 0.87306,-0.45765 1.79981,-0.54526 2.121,-0.2005 0.25401,0.27265 0.34885,0.74741 0.3505,1.75461 0.001,0.84829 -0.10503,0.9638 -1.07808,1.17012 -0.76854,0.16297 -1.30491,0.43998 -1.65306,0.85374 -0.48192,0.57272 -0.6185,1.26711 -0.72076,3.66434 -0.11367,2.66469 -0.27089,3.90425 -0.53689,4.2328 -0.17925,0.22139 -0.30197,0.24333 -1.55792,0.27853 l -1.36335,0.0382 z"
     id="path19" /><path
     style="fill:#13304e;fill-opacity:1;stroke-width:0.107786"
     d="m 260.93265,124.76624 c -1.68701,-0.50408 -2.73878,-1.41702 -3.56341,-3.09303 -1.07867,-2.19235 -1.07366,-3.89944 0.0176,-5.98213 0.76842,-1.46659 1.65597,-2.31708 2.94166,-2.81884 0.50231,-0.19603 0.83133,-0.23681 1.9515,-0.24187 1.98226,-0.009 3.18562,0.41182 4.26518,1.49138 1.02534,1.02534 1.48389,2.26821 1.62,4.39094 l 0.0738,1.15094 -0.36568,0.0578 c -0.20112,0.0318 -2.0148,0.11544 -4.0304,0.18594 -2.0156,0.0705 -3.75332,0.15958 -3.86159,0.19795 -0.16377,0.058 -0.0619,0.19799 0.60625,0.83264 0.91978,0.87371 1.55985,1.15769 2.60862,1.15741 0.78438,-2.1e-4 1.31002,-0.1687 1.83983,-0.58973 0.21968,-0.17459 0.48808,-0.31743 0.59643,-0.31743 0.45132,0 1.60572,1.31839 1.60572,1.83384 0,0.57502 -1.06039,1.27586 -2.53298,1.67412 -1.0005,0.27059 -2.97854,0.30735 -3.77251,0.0701 z m 3.79947,-7.44341 c 0.4036,-0.2169 0.31263,-0.62236 -0.27046,-1.20545 -0.9009,-0.9009 -1.86404,-1.02826 -3.08102,-0.4074 -0.52499,0.26783 -1.32307,0.99797 -1.39611,1.27724 -0.0689,0.26336 0.0603,0.34807 0.67866,0.44493 0.77179,0.12091 3.7915,0.0398 4.06893,-0.10932 z"
     id="path20" /><path
     style="fill:#13304e;fill-opacity:1;stroke-width:0.107786"
     d="m 246.32764,124.7908 c -0.91458,-0.24019 -2.11713,-0.87176 -2.4227,-1.27238 -0.14859,-0.19482 -0.29495,-0.49567 -0.32523,-0.66857 -0.0792,-0.4523 0.367,-1.65269 0.70716,-1.90235 0.31027,-0.22772 0.31944,-0.22566 1.93298,0.43339 1.79414,0.73283 3.47529,0.83797 4.60002,0.28769 1.06538,-0.52124 1.30552,-1.27195 0.60393,-1.88796 -0.49015,-0.43036 -1.25686,-0.7826 -3.15601,-1.44995 -2.77671,-0.97571 -3.7086,-1.55628 -4.26711,-2.65844 -0.63344,-1.25003 -0.49538,-3.15841 0.33043,-4.56755 0.54745,-0.93416 1.67118,-1.66511 3.25771,-2.11904 1.20373,-0.34441 3.38826,-0.34427 4.59261,2.6e-4 1.60357,0.45879 2.27547,0.93212 2.2509,1.58568 -0.0162,0.42991 -0.60482,1.91529 -0.83461,2.106 -0.12109,0.1005 -0.40777,0.0294 -1.3673,-0.33913 -1.18478,-0.45502 -1.24531,-0.46637 -2.50752,-0.47005 -1.18339,-0.003 -1.33435,0.0192 -1.7743,0.2657 -0.52932,0.29662 -0.97425,0.8662 -0.97425,1.24721 0,0.6527 0.83504,1.17432 3.17969,1.98626 3.10433,1.075 4.214,1.76462 4.81975,2.99527 0.3257,0.66172 0.35296,0.79686 0.34109,1.6914 -0.0241,1.81839 -0.91299,3.45288 -2.25061,4.13851 -1.30492,0.66888 -5.16282,1.01135 -6.73663,0.59802 z"
     id="path21" /><path
     style="fill:#13304e;fill-opacity:1;stroke-width:0.107786"
     d="m 226.92613,129.1033 c -1.70962,-0.37016 -2.78664,-1.08432 -2.79862,-1.85574 -0.007,-0.48195 0.78373,-1.74794 1.0924,-1.74794 0.0648,0 0.53838,0.14442 1.05249,0.32094 1.85002,0.63521 3.83877,0.68202 4.64309,0.1093 0.78864,-0.56157 1.39307,-2.03985 0.89824,-2.1969 -0.11211,-0.0356 -0.36556,-0.0183 -0.56322,0.0384 -0.19765,0.0567 -1.05483,0.16216 -1.90483,0.23438 -1.38539,0.11771 -1.61413,0.11222 -2.20848,-0.053 -1.22466,-0.34048 -2.48134,-1.39241 -3.08383,-2.58136 -0.39499,-0.77949 -0.68444,-2.04192 -0.6823,-2.97588 0.007,-3.03942 1.72934,-5.29536 4.38356,-5.74149 0.97901,-0.16456 2.31818,0.0468 3.45351,0.54513 0.42143,0.18496 0.83086,0.31129 0.90983,0.28071 0.079,-0.0306 0.22422,-0.1969 0.32279,-0.3696 0.22827,-0.39996 0.72825,-0.54352 1.89567,-0.54431 l 0.88924,-5.3e-4 -8e-4,5.68572 c -5.3e-4,3.14125 -0.0499,6.11312 -0.1103,6.64077 -0.14326,1.2505 -0.49098,1.96343 -1.40645,2.88371 -0.78576,0.78987 -1.37374,1.07461 -2.77634,1.34447 -0.99438,0.19132 -3.08515,0.18263 -4.00556,-0.0166 z m 3.23965,-8.14207 c 0.97181,-0.20842 1.79781,-1.27551 1.90414,-2.45991 0.096,-1.06878 -0.27118,-1.90176 -1.12535,-2.55325 -1.3078,-0.9975 -3.04292,-0.48605 -3.89314,1.14756 -0.33019,0.63443 -0.35846,0.76127 -0.31363,1.40734 0.0556,0.80153 0.56183,1.90529 1.00787,2.19755 0.53737,0.3521 1.50694,0.45655 2.42011,0.26071 z"
     id="path22" /><path
     style="fill:#13304e;fill-opacity:1;stroke-width:0.107786"
     d="m 210.41244,124.7532 c -0.27909,-0.039 -0.53729,-0.10073 -0.57376,-0.1372 -0.18705,-0.18705 -0.286,-2.68263 -0.2278,-5.74523 0.0687,-3.61652 0.21103,-5.47241 0.44746,-5.83535 0.43183,-0.66292 2.68619,-0.527 2.90912,0.17539 0.0945,0.29785 0.37403,0.27344 1.24478,-0.10874 1.29398,-0.56792 3.05835,-0.62993 4.43533,-0.15587 0.66404,0.22861 1.43109,0.91508 1.77016,1.5842 0.52707,1.04013 0.60177,1.74538 0.65667,6.19968 l 0.0508,4.12282 h -1.46 -1.45999 l -0.0552,-0.35031 c -0.0893,-0.56692 -0.27799,-3.11469 -0.38221,-5.15979 -0.10401,-2.04084 -0.21279,-2.48989 -0.73682,-3.04158 -0.4233,-0.44564 -0.80348,-0.61014 -1.41008,-0.61014 -0.70183,0 -1.05385,0.14153 -1.55745,0.62619 -0.91688,0.88238 -1.03368,1.51813 -1.03845,5.65235 l -0.003,2.88328 -1.05091,-0.0144 c -0.57801,-0.008 -1.27927,-0.0463 -1.55837,-0.0853 z"
     id="path23" /><path
     style="fill:#13304e;fill-opacity:1;stroke-width:0.107786"
     d="m 203.65715,120.95431 c 0.0367,-2.15375 0.0731,-4.87385 0.0808,-6.04468 l 0.0141,-2.12878 h 1.5629 1.5629 v 5.91812 5.91813 l -0.51198,0.0598 c -0.2816,0.0329 -1.02128,0.0898 -1.64374,0.12656 l -1.13175,0.0668 z"
     id="path24" /><path
     style="fill:#13304e;fill-opacity:1;stroke-width:0.107786"
     d="m 204.44022,110.85007 c -0.53081,-0.24105 -0.99883,-0.81813 -1.08271,-1.33501 -0.17557,-1.08192 0.96398,-2.33908 2.12025,-2.33908 1.14243,0 2.01689,1.16602 1.71774,2.29045 -0.34246,1.28717 -1.58912,1.91321 -2.75528,1.38364 z"
     id="path25" /><path
     style="fill:#13304e;fill-opacity:1;stroke-width:0.107786"
     d="m 197.71753,124.79425 c -0.96575,-0.27037 -1.4953,-0.68191 -1.89969,-1.47634 -0.47035,-0.92403 -0.59942,-1.78947 -0.6793,-4.55493 -0.0802,-2.77648 -0.12989,-3.02291 -0.63219,-3.13454 -0.59385,-0.13198 -0.67948,-0.17415 -0.83472,-0.41106 -0.21772,-0.33229 -0.32742,-1.47546 -0.16984,-1.76991 0.0682,-0.1275 0.37744,-0.35207 0.68713,-0.49903 0.30968,-0.14697 0.63018,-0.3758 0.71223,-0.50851 0.082,-0.13272 0.21468,-0.68022 0.29475,-1.21668 0.0999,-0.66904 0.20336,-1.01769 0.32953,-1.1101 0.12355,-0.0905 0.61883,-0.13474 1.50861,-0.13474 1.51992,0 1.33739,-0.15972 1.53969,1.34733 0.17545,1.30695 0.25937,1.37896 2.01811,1.73167 0.46334,0.0929 0.57341,0.32951 0.57341,1.23245 0,1.17768 -0.0388,1.20739 -1.76274,1.35113 l -0.84655,0.0706 0.0511,2.49578 c 0.0543,2.6476 0.13493,3.15426 0.57175,3.59109 0.22579,0.22578 0.34966,0.25689 0.95647,0.24019 0.80311,-0.0221 1.0948,0.1198 1.45955,0.70996 0.55982,0.90582 0.33855,1.6017 -0.61804,1.94363 -0.72489,0.25911 -2.49974,0.31467 -3.2593,0.10203 z"
     id="path26" /><path
     style="fill:#13304e;fill-opacity:1;stroke-width:0.107786"
     d="m 188.12325,121.93121 c 7e-5,-1.62396 0.0323,-5.39136 0.0716,-8.372 l 0.0714,-5.41934 1.35662,0.03 1.35662,0.03 0.0722,2.58687 c 0.1927,6.90598 0.30242,13.02073 0.24057,13.40749 -0.0396,0.24744 -0.14333,0.45987 -0.24462,0.50079 -0.0968,0.0391 -0.79434,0.0976 -1.55019,0.12993 l -1.37428,0.0589 z"
     id="path27" /><path
     style="fill:#13304e;fill-opacity:1;stroke-width:0.107786"
     d="m 176.69781,124.72478 c -0.62916,-0.30578 -1.80129,-1.49638 -2.19627,-2.23087 -0.44765,-0.83244 -0.54787,-2.26419 -0.4471,-6.38758 l 0.0807,-3.30338 0.32471,-0.0649 c 0.1786,-0.0357 0.74674,-0.0649 1.26254,-0.0649 1.52684,0 1.56695,0.10428 1.66801,4.33722 0.1026,4.29776 0.29005,4.71681 2.10996,4.71681 1.15539,0 1.68603,-0.49317 1.93325,-1.79675 0.12444,-0.65616 0.2963,-3.00222 0.39542,-5.39797 l 0.0725,-1.75153 h 1.53523 1.53523 l 0.0658,4.50007 c 0.0362,2.47504 0.0875,5.1981 0.11403,6.05125 l 0.0482,1.55118 -1.39133,-0.0564 c -1.15777,-0.047 -1.45627,-0.0948 -1.77821,-0.2847 -0.46471,-0.27419 -0.65006,-0.28245 -1.19673,-0.0534 -0.59414,0.24897 -1.89831,0.46368 -2.84255,0.46798 -0.61717,0.003 -0.92313,-0.0521 -1.29343,-0.23206 z"
     id="path28" /><path
     style="fill:#13304e;fill-opacity:1;stroke-width:0.107786"
     d="m 165.81141,124.99727 c -0.84428,-0.1311 -2.29853,-0.53253 -2.87905,-0.79473 -0.51746,-0.23372 -0.68582,-0.36768 -0.74164,-0.59009 -0.0962,-0.3834 0.15086,-1.0998 0.52713,-1.52835 l 0.30428,-0.34655 2.56366,0.0653 c 2.52412,0.0643 2.56724,0.0617 2.79586,-0.1669 0.34491,-0.34491 0.30118,-0.73235 -0.11094,-0.98298 -0.18873,-0.11477 -1.07393,-0.38604 -1.9671,-0.60281 -1.91059,-0.46371 -2.21578,-0.57924 -2.80441,-1.06157 -0.68451,-0.56091 -1.05774,-1.34296 -1.11528,-2.33695 -0.1088,-1.8795 1.038,-3.37166 2.94245,-3.82857 0.93337,-0.22394 3.37867,-0.25217 4.31145,-0.0498 1.03717,0.22504 1.88625,0.71464 1.88625,1.08767 0,0.3286 -0.75485,1.70793 -0.97247,1.77701 -0.11489,0.0365 -0.85164,-0.0155 -1.63723,-0.11551 -2.3845,-0.3035 -3.31853,-0.11416 -3.31853,0.6727 0,0.62463 0.409,0.86976 1.93384,1.15902 2.26166,0.42903 3.6437,1.24996 4.34665,2.58192 0.35895,0.68014 0.3288,1.77006 -0.0702,2.53651 -0.62339,1.19759 -1.82249,2.10455 -3.21719,2.43338 -0.61634,0.14531 -2.11291,0.19451 -2.77756,0.0913 z"
     id="path29" /><path
     style="fill:#13304e;fill-opacity:1;stroke-width:0.107786"
     d="m 158.07327,124.74261 c -0.61011,-0.0431 -1.12807,-0.0971 -1.15103,-0.12007 -0.023,-0.023 -0.0938,-1.47201 -0.15744,-3.22011 -0.18739,-5.14787 -0.44638,-5.76737 -2.37872,-5.68988 -1.75034,0.0702 -2.14793,0.96413 -2.37185,5.33284 -0.18751,3.65818 -0.17184,3.55635 -0.55914,3.63381 -0.49316,0.0986 -2.38284,0.0763 -2.55085,-0.0302 -0.23897,-0.15141 -0.36608,-3.31918 -0.29673,-7.39505 0.0343,-2.0156 0.0934,-3.79998 0.13139,-3.96528 0.10417,-0.45362 0.59061,-0.66256 1.55131,-0.66634 0.92628,-0.004 1.42914,0.16697 1.60049,0.54303 0.15007,0.32933 0.39275,0.33132 1.12117,0.009 0.89485,-0.39575 1.66627,-0.54931 2.77543,-0.55247 1.35397,-0.004 1.88424,0.2495 3.21361,1.53551 l 0.97237,0.94064 0.0664,4.47313 c 0.0365,2.46022 0.0933,4.65501 0.1261,4.87732 l 0.0597,0.4042 -0.52146,-0.016 c -0.2868,-0.009 -1.02064,-0.0512 -1.63075,-0.0943 z"
     id="path30" /><path
     style="fill:#13304e;fill-opacity:1;stroke-width:0.107786"
     d="m 138.98602,124.79064 c -1.62031,-0.4358 -3.15061,-1.6693 -3.81966,-3.07884 -0.4676,-0.9851 -0.61293,-1.66872 -0.61293,-2.88299 0,-3.19085 1.88155,-5.58304 4.80033,-6.10306 1.09622,-0.19531 1.64645,-0.19495 2.58302,0.002 1.21105,0.25426 2.17525,0.7927 3.0166,1.68456 1.56662,1.66072 2.13323,3.98223 1.49881,6.14101 -0.45964,1.56398 -1.66169,3.10528 -2.87631,3.68811 -1.40293,0.67318 -3.29007,0.89912 -4.58986,0.54952 z m 2.90454,-3.12275 c 1.03349,-0.71621 1.47966,-1.76347 1.35999,-3.19231 -0.12126,-1.44795 -0.56717,-2.20409 -1.60465,-2.7211 -0.78378,-0.39057 -1.50027,-0.38087 -2.14667,0.029 -0.55959,0.35488 -1.2102,1.18862 -1.44346,1.84971 -0.51181,1.45064 0.23437,3.24043 1.71109,4.10426 0.72236,0.42256 1.44782,0.39878 2.1237,-0.0696 z"
     id="path31" /><path
     style="fill:#13304e;fill-opacity:1;stroke-width:0.107786"
     d="m 125.76886,124.89906 c -2.61591,-0.51715 -5.11336,-3.12479 -5.72555,-5.97819 -0.25366,-1.18223 -0.22948,-2.95373 0.0565,-4.14162 0.9004,-3.73971 3.77155,-6.00353 7.60918,-5.99957 1.9092,0.002 3.64328,0.58989 4.83573,1.63952 0.60841,0.53553 0.77777,0.92938 0.6136,1.42682 -0.15447,0.46804 -1.30225,1.58155 -1.63023,1.58155 -0.13139,0 -0.53515,-0.18672 -0.89723,-0.41493 -1.74808,-1.10169 -2.96529,-1.30981 -4.43799,-0.7588 -1.3153,0.49211 -2.01993,1.24932 -2.44493,2.62737 -0.18871,0.6118 -0.23405,1.0337 -0.23789,2.21225 -0.005,1.43615 2.1e-4,1.46635 0.35391,2.18586 0.72223,1.4693 1.96736,2.33426 3.4913,2.42536 1.03691,0.062 1.60396,-0.0767 2.80308,-0.68569 0.54845,-0.27851 1.08754,-0.47712 1.29344,-0.47653 0.69075,0.002 1.91596,0.9101 1.91596,1.4201 0,0.93071 -2.09799,2.51927 -3.8803,2.93809 -0.86392,0.20301 -2.68759,0.20223 -3.71862,-0.002 z"
     id="path32" /><path
     style="fill:#13304e;fill-opacity:1;stroke-width:0.107786"
     d="m 98.498975,156.86204 c -5.267352,-0.0739 -6.173603,-0.13181 -6.277081,-0.40152 -0.07665,-0.19971 0.296465,-0.96455 1.132549,-2.32159 0.357769,-0.58067 0.713898,-1.27058 0.791421,-1.53313 0.07752,-0.26255 0.215636,-0.50797 0.306891,-0.54536 0.444209,-0.18201 4.858781,-0.26956 18.812935,-0.37311 8.35879,-0.062 15.42822,-0.13982 15.70982,-0.17287 0.3076,-0.0361 0.51197,-0.11422 0.51197,-0.19569 0,-0.20592 -2.20298,-2.30511 -6.79051,-6.47059 -2.28237,-2.07238 -5.09693,-4.64228 -6.25456,-5.71087 -1.15764,-1.0686 -3.19479,-2.91222 -4.52702,-4.09694 -1.33223,-1.18473 -3.51357,-3.14763 -4.84741,-4.362 -1.33387,-1.21438 -3.22635,-2.93701 -4.20558,-3.82809 -0.97922,-0.89107 -2.82837,-2.55351 -4.109214,-3.6943 -1.347999,-1.20062 -2.493301,-2.31302 -2.719387,-2.64128 -0.603938,-0.87691 -0.647833,-1.44436 -0.65241,-8.43446 -0.0042,-6.33002 0.06493,-7.60904 0.459105,-8.50013 0.468868,-1.05996 1.609143,-1.89797 2.585588,-1.90017 1.4165,-0.003 3.841138,-1.37666 5.108758,-2.893886 1.87865,-2.248602 2.47814,-5.910705 1.38504,-8.460812 -0.7026,-1.639128 -2.6267,-3.639296 -4.31834,-4.489106 -1.230684,-0.61823 -2.548812,-0.717023 -10.991745,-0.823812 l -5.931403,-0.07502 v -2.407822 -2.40782 h 8.308711 8.308707 l 2.11961,1.076206 c 2.44604,1.241973 3.80338,2.214631 4.92995,3.532804 1.30096,1.522246 2.48219,3.755461 2.79207,5.278631 0.35311,1.73565 0.29059,5.890254 -0.1115,7.412029 -0.23616,0.893792 -1.10984,2.696308 -1.76924,3.650128 -1.48267,2.14479 -3.60815,3.7167 -6.50272,4.80918 l -0.9376,0.35388 v 4.34175 4.34175 l 1.53921,1.43744 c 0.84656,0.7906 3.16259,2.91567 5.14678,4.72239 1.98417,1.80672 4.84442,4.42773 6.35614,5.82446 1.5117,1.39674 4.03389,3.69996 5.60488,5.11829 1.57097,1.41832 3.75365,3.40827 4.85037,4.42211 1.09672,1.01384 3.69168,3.37228 5.76654,5.24099 4.12964,3.71928 4.4563,4.0435 5.03452,4.99692 1.19285,1.96698 1.38882,4.79657 0.47104,6.80129 -0.35203,0.76893 -1.26273,1.72014 -2.58509,2.70008 l -1.06764,0.79117 -14.18411,-0.0201 c -7.80123,-0.011 -16.46377,-0.052 -19.250045,-0.0911 z"
     id="path33" /><path
     style="fill:#13304e;fill-opacity:1;stroke-width:0.107786"
     d="m 48.522147,156.76658 -2.012024,-0.0629 -0.464053,-0.32636 c -0.255217,-0.17951 -0.610923,-0.53534 -0.790416,-0.79074 -0.295169,-0.41997 -0.326364,-0.54409 -0.326364,-1.29829 0,-0.72433 0.03802,-0.89139 0.289296,-1.27109 0.386635,-0.58425 0.993854,-0.86088 2.189771,-0.99758 0.533559,-0.061 3.395265,-0.1837 6.359392,-0.27269 8.470239,-0.2543 9.513941,-0.35518 11.355679,-1.09767 2.840937,-1.14531 4.745037,-2.59471 5.631074,-4.28639 0.494215,-0.94354 0.806582,-1.24619 1.286272,-1.24619 0.784251,0 2.731241,0.8337 4.147132,1.77581 2.556166,1.70081 3.505332,3.94754 2.848901,6.74357 -0.378354,1.61153 -1.22637,2.757 -2.240227,3.02602 -0.382773,0.10157 -3.551582,0.13714 -13.38199,0.15023 -7.084219,0.009 -13.78585,-0.0111 -14.892443,-0.0457 z"
     id="path34" /><path
     style="fill:#e0a525;fill-opacity:1;stroke-width:0.107786"
     d="m 75.70221,164.57817 c 0,-0.1719 0.644181,-1.01013 1.741885,-2.26655 1.838351,-2.10418 3.513666,-5.30103 4.237011,-8.08499 0.146685,-0.56451 0.365627,-1.81448 0.486542,-2.77771 0.242993,-1.9354 0.591158,-4.00555 0.781314,-4.64542 0.174864,-0.58849 0.48522,-0.75905 1.254337,-0.68931 0.832141,0.0755 1.140195,0.25164 2.222368,1.27098 0.503105,0.47389 1.039759,0.90916 1.192583,0.96725 0.407696,0.15501 0.947287,0.13059 2.265944,-0.10258 1.784853,-0.31559 2.362756,-0.36738 2.611887,-0.23405 0.663893,0.35531 0.443521,2.94163 -0.411268,4.82686 -0.901912,1.98914 -4.109138,4.98253 -8.406421,7.84597 -1.096724,0.73078 -2.244778,1.45369 -2.551218,1.60646 -0.306441,0.15278 -1.146096,0.61517 -1.865868,1.02754 -2.09251,1.19882 -3.559096,1.7162 -3.559096,1.25555 z"
     id="path35" /><path
     style="fill:#e0a525;fill-opacity:1;stroke-width:0.107786"
     d="m 88.415651,145.22268 c -1.940613,-0.30119 -3.389074,-1.54127 -4.485693,-3.84033 -0.25863,-0.54219 -0.566526,-1.36238 -0.684239,-1.82266 -0.582057,-2.27582 0.08406,-5.78293 1.208855,-6.36459 0.495882,-0.25641 0.985599,-0.0657 1.990249,0.77491 1.182052,0.9891 2.194242,1.57524 2.824876,1.63584 0.657093,0.0631 1.842638,-0.41491 2.762118,-1.11378 0.997691,-0.75832 1.423908,-0.95008 2.122011,-0.95472 0.734854,-0.005 1.09855,0.26484 1.28823,0.95538 0.153591,0.5591 0.03678,4.19448 -0.172667,5.37338 -0.335968,1.89136 -1.888622,4.14331 -3.345365,4.85215 -0.966735,0.47041 -2.399877,0.67646 -3.508375,0.50442 z"
     id="path36" /><path
     style="fill:#e0a525;fill-opacity:1;stroke-width:0.107786"
     d="m 88.895658,132.49716 c -1.135221,-0.11026 -1.858777,-0.35869 -2.748518,-0.94365 -1.466691,-0.96428 -2.682267,-2.41929 -3.346768,-4.00596 -0.26789,-0.63964 -0.34917,-1.01091 -0.38936,-1.77847 -0.06173,-1.1788 0.0817,-1.77178 0.553005,-2.28604 0.526256,-0.57426 1.035156,-0.58772 3.041703,-0.0804 1.753711,0.44336 2.991035,0.53471 3.743563,0.27638 0.226695,-0.0778 0.799386,-0.43329 1.272699,-0.78993 1.023884,-0.77153 1.707039,-1.05423 2.546932,-1.05401 1.576017,5.3e-4 2.049066,0.96328 1.932781,3.93403 -0.129275,3.3034 -0.89617,4.90392 -2.986325,6.23247 -0.634392,0.40323 -2.267956,0.6269 -3.619712,0.49561 z"
     id="path37" /><path
     style="fill:#e0a525;fill-opacity:1;stroke-width:0.107786"
     d="m 84.648461,121.78887 c -1.469496,-0.31135 -3.175556,-1.10826 -4.272148,-1.99557 -1.183772,-0.95783 -2.04388,-2.31611 -2.727378,-4.30704 -0.345281,-1.00579 -0.34634,-1.01527 -0.144648,-1.29343 0.111734,-0.15412 0.438944,-0.3983 0.727102,-0.54263 0.496887,-0.24886 0.663416,-0.26661 3.227969,-0.344 1.48725,-0.0449 2.85242,-0.12689 3.033713,-0.18224 0.938397,-0.28648 1.323049,-0.66248 2.446126,-2.39104 0.905642,-1.39394 1.582287,-2.14544 2.228638,-2.47518 0.435848,-0.22236 0.44151,-0.22247 0.845635,-0.0163 0.447728,0.22841 1.24788,1.03881 1.611656,1.63233 0.128244,0.20922 0.378751,0.81552 0.556683,1.34733 0.806794,2.41136 0.657384,5.52209 -0.367453,7.64967 -0.470165,0.97609 -0.912336,1.49667 -1.708229,2.01108 -1.363345,0.88117 -3.726233,1.27386 -5.457666,0.90702 z"
     id="path38" /><path
     style="fill:#e0a525;fill-opacity:1;stroke-width:0.107786"
     d="m 72.630318,121.12735 c -0.414972,-0.0904 -1.299474,-0.42937 -1.965536,-0.7532 -1.486906,-0.72289 -2.25089,-1.41934 -2.615142,-2.38399 -0.243284,-0.64426 -0.419894,-1.86794 -0.26961,-1.86794 0.04617,0 0.719825,0.28814 1.497039,0.6403 1.658196,0.75137 2.823659,1.10751 4.381791,1.33899 2.001916,0.29741 3.359785,0.87577 3.765073,1.60367 0.208466,0.37435 0.08623,0.59899 -0.478657,0.87975 -1.147181,0.57014 -3.075491,0.81255 -4.314958,0.54242 z"
     id="path39" /><path
     style="fill:#e0a525;fill-opacity:1;stroke-width:0.107786"
     d="m 66.809856,113.6801 c -0.94533,-0.20176 -2.275576,-0.82407 -3.148595,-1.47293 -1.22719,-0.91212 -2.176224,-2.39672 -2.63054,-4.11501 -0.180552,-0.68296 -0.230982,-1.20974 -0.242438,-2.53298 -0.01455,-1.68854 0.07247,-2.15572 0.401717,-2.15572 0.196744,0 0.546602,0.41061 0.780626,0.91618 0.267759,0.57844 0.992294,1.26501 1.828351,1.73256 0.377666,0.21121 1.578954,0.73858 2.669487,1.17192 2.180828,0.86658 2.680123,1.12279 3.773461,1.93621 1.218618,0.90663 2.011124,2.18294 2.011124,3.23885 0,0.62565 -0.472652,1.02285 -1.562894,1.31337 -0.715777,0.19073 -2.921026,0.1723 -3.880299,-0.0324 z"
     id="path40" /><path
     style="fill:#e0a525;fill-opacity:1;stroke-width:0.107786"
     d="m 78.558546,110.99232 c -1.556914,-0.21731 -2.061025,-0.41196 -3.280278,-1.26658 -2.335794,-1.63724 -3.645482,-3.82749 -3.748299,-6.26838 -0.05575,-1.32402 0.0953,-1.70276 0.830871,-2.08329 0.420423,-0.21748 0.592773,-0.24362 1.293442,-0.19616 0.444606,0.0301 1.366176,0.18352 2.047928,0.34089 0.881751,0.20353 1.4478,0.27478 1.961039,0.24687 1.024731,-0.0558 1.33096,-0.33335 2.289836,-2.075757 1.483255,-2.6953 3.021965,-4.000839 4.273471,-3.625877 1.681533,0.503801 3.153966,5.032344 2.792307,8.587884 -0.260059,2.55655 -1.208776,4.28916 -2.996486,5.47233 -1.116727,0.73908 -1.541701,0.84718 -3.469772,0.88255 -0.918898,0.0169 -1.816206,0.0104 -1.994059,-0.0145 z"
     id="path41" /><path
     style="fill:#e0a525;fill-opacity:1;stroke-width:0.107786"
     d="m 60.201807,98.976419 c -2.08227,-0.270336 -4.227512,-1.472616 -5.345747,-2.995954 -1.171205,-1.595512 -1.749293,-4.056997 -1.480397,-6.303672 0.155073,-1.295886 0.354066,-1.334217 1.006502,-0.193886 0.753401,1.316802 1.585039,1.847064 4.505431,2.872668 2.429219,0.853118 3.656091,1.560547 4.82547,2.782422 0.822405,0.85934 1.097201,1.422794 1.100376,2.256388 0.0026,0.472035 -0.04752,0.66966 -0.206931,0.829074 -0.277204,0.277196 -1.412901,0.619911 -2.51026,0.75751 -0.969804,0.121603 -0.921888,0.121717 -1.894444,-0.0045 z"
     id="path42" /><path
     style="fill:#e0a525;fill-opacity:1;stroke-width:0.107786"
     d="m 72.416429,98.811842 c -1.738392,-0.387424 -3.251491,-1.174138 -4.404069,-2.289817 -1.143529,-1.106943 -2.318411,-3.096927 -2.548175,-4.316087 -0.170762,-0.905968 -0.140229,-3.610161 0.04575,-4.055314 0.452702,-1.083416 2.199905,-1.093885 4.148191,-0.02487 1.02108,0.560274 1.749398,0.60338 2.524072,0.149386 0.522208,-0.306022 1.313656,-1.305507 1.621419,-2.047546 0.224631,-0.541642 2.030704,-2.329405 2.661999,-2.63501 0.396267,-0.191828 0.552477,-0.215873 0.849287,-0.130743 0.90035,0.258212 1.807262,1.228105 2.48023,2.652471 0.622618,1.317768 0.699532,1.855748 0.692018,4.839841 -0.0061,2.400321 -0.0318,2.785938 -0.235823,3.530398 -0.294561,1.074836 -0.639419,1.652456 -1.481667,2.481877 -0.79076,0.7787 -1.588982,1.28896 -2.610247,1.66861 -0.93591,0.347914 -2.618555,0.427387 -3.742981,0.176792 z"
     id="path43" /><path
     style="fill:#e0a525;fill-opacity:1;stroke-width:0.107786"
     d="m 67.257742,84.799922 c -3.127904,-0.565126 -5.251635,-2.107832 -6.737006,-4.893834 -0.698817,-1.31073 -0.81362,-1.849908 -0.814705,-3.826409 0,-1.53982 0.02408,-1.779855 0.232728,-2.240558 0.200527,-0.442793 0.318955,-0.555027 0.834945,-0.79125 0.506625,-0.231941 0.757529,-0.275174 1.594115,-0.274682 1.225735,7.94e-4 2.119921,0.20225 3.403441,0.76708 0.544936,0.239805 1.177502,0.465862 1.405678,0.502351 0.37264,0.05959 0.46109,0.02461 0.868628,-0.343596 0.249581,-0.225467 0.742632,-0.783341 1.095666,-1.239724 0.755755,-0.976926 1.299977,-1.391673 1.826127,-1.391673 0.988907,0 2.149555,1.530405 2.705603,3.567538 0.221615,0.8119 0.247359,1.14532 0.248973,3.222985 0.0026,2.102987 -0.02117,2.396834 -0.246724,3.175907 -0.340519,1.176163 -0.803143,1.99862 -1.489234,2.64749 -1.227217,1.160658 -2.76397,1.509398 -4.928235,1.118375 z"
     id="path44" /><path
     style="fill:#e0a525;fill-opacity:1;stroke-width:0.107786"
     d="m 53.659958,84.150074 c -1.155012,-0.227444 -1.467776,-0.315257 -1.900317,-0.533533 -0.791659,-0.399512 -2.194692,-1.509122 -2.684938,-2.123426 -0.58727,-0.735897 -1.01473,-1.594022 -1.311381,-2.632642 -0.205079,-0.717888 -0.240639,-1.108514 -0.243655,-2.675061 -0.0032,-1.72842 0.01005,-1.85184 0.233177,-2.135905 l 0.236697,-0.301485 0.229049,0.448988 c 0.707655,1.387125 2.785851,2.85252 5.27259,3.717859 3.159231,1.099351 5.012823,2.630318 5.608135,4.631978 0.243179,0.817697 -0.196321,1.276786 -1.483519,1.549619 -0.526626,0.11162 -3.459427,0.151363 -3.955838,0.05361 z"
     id="path45" /><path
     style="fill:#e0a525;fill-opacity:1;stroke-width:0.107786"
     d="m 50.653683,69.336315 c -2.098728,-0.24352 -3.169682,-0.72681 -4.325673,-1.95204 -1.646396,-1.744993 -2.659089,-4.466056 -2.491793,-6.695297 0.06377,-0.849678 0.292365,-1.524135 0.550095,-1.623036 0.2422,-0.09294 0.585735,0.242527 0.706094,0.689504 0.138271,0.513463 0.57568,1.033261 1.3902,1.652061 0.948902,0.72087 1.32543,0.914865 2.084679,1.074017 0.389863,0.08172 0.837009,0.249399 0.993642,0.372618 0.15666,0.123222 0.536708,0.306531 0.844603,0.407356 0.841137,0.275455 1.770645,0.764656 2.563786,1.349322 1.545458,1.139229 2.296187,2.282536 2.303489,3.508028 0.0048,0.816306 -0.178461,1.056762 -0.928237,1.217562 -0.603277,0.129381 -2.575481,0.129331 -3.690885,-9.5e-5 z"
     id="path46" /><path
     style="fill:#e0a525;fill-opacity:1;stroke-width:0.107786"
     d="m 63.278118,69.933794 c -2.229432,-0.42151 -4.368139,-1.716254 -5.53421,-3.35036 -0.980678,-1.374307 -1.427586,-2.760197 -1.520667,-4.715793 -0.09903,-2.080149 0.291518,-3.454646 1.144323,-4.027334 0.318691,-0.214003 0.500671,-0.245703 1.401234,-0.244073 2.790587,0.0051 4.370519,0.790035 7.139437,3.547208 l 1.577446,1.57076 0.647726,1.349975 c 0.356235,0.742485 0.727737,1.615554 0.825553,1.94015 0.231696,0.768914 0.333031,2.22585 0.181689,2.612065 -0.148695,0.379431 -0.948266,0.887404 -1.845759,1.172601 -0.926809,0.294529 -2.856839,0.364104 -4.016772,0.144801 z"
     id="path47" /><path
     style="fill:#e0a525;fill-opacity:1;stroke-width:0.107786"
     d="m 63.576277,55.118199 c -2.841757,-0.32884 -5.301986,-1.866585 -6.779816,-4.23768 -0.781394,-1.253699 -0.927047,-1.839399 -0.926068,-3.724068 0,-2.592248 0.303451,-3.753541 1.07704,-4.139994 0.523927,-0.261731 1.979797,-0.252534 3.042337,0.01921 3.324437,0.850244 6.690546,4.326337 7.578276,7.825875 0.500803,1.97427 0.458972,3.40484 -0.11049,3.777961 -0.659951,0.432419 -2.412868,0.64861 -3.881279,0.47869 z"
     id="path48" /><path
     style="fill:#e0a525;fill-opacity:1;stroke-width:0.107786"
     d="M 49.371856,54.405354 C 48.006765,54.158593 46.859743,53.447851 45.50849,52.011457 44.538157,50.979987 44.073892,50.094154 43.7851,48.723183 43.422462,47.00155 43.49001,45.314554 43.967345,44.172125 l 0.166396,-0.398229 0.45167,0.639881 c 1.293839,1.832999 2.445941,2.928977 3.316182,3.154601 0.232622,0.06031 0.628782,0.163652 0.880348,0.229639 0.638149,0.167392 2.452793,1.094174 3.420639,1.746994 1.562444,1.053901 2.557965,2.40293 2.665519,3.611991 0.07162,0.805275 -0.168487,1.136317 -0.944933,1.302837 -0.754433,0.161793 -3.539279,0.128456 -4.55131,-0.05448 z"
     id="path49" /><path
     style="fill:#e0a525;fill-opacity:1;stroke-width:0.107786"
     d="m 50.181984,40.01324 c -1.420336,-0.236579 -3.213762,-1.213469 -4.203859,-2.28986 -0.636773,-0.692277 -1.476481,-2.005796 -1.752785,-2.741763 -0.127,-0.338339 -0.27051,-1.003194 -0.318876,-1.477452 -0.144304,-1.414304 0.136499,-4.365339 0.41537,-4.365339 0.154225,0 0.524113,0.475647 0.88011,1.131755 0.921358,1.698048 1.149058,1.86095 5.414009,3.873622 2.488565,1.174371 4.709002,3.343627 4.713632,4.604953 0.0034,0.95888 -2.818897,1.651971 -5.147601,1.264084 z"
     id="path50" /><path
     style="fill:#e0a525;fill-opacity:1;stroke-width:0.107786"
     d="m 63.306825,40.35609 c -1.30048,-0.154244 -2.129896,-0.480137 -3.380846,-1.328378 -1.238488,-0.839787 -2.462106,-2.283436 -3.036755,-3.582791 -0.664369,-1.502294 -0.7815,-3.214944 -0.318452,-4.656791 0.679608,-2.116228 1.427744,-2.70719 3.071309,-2.4261 0.849313,0.145254 2.359078,0.87938 3.344784,1.626394 1.540642,1.167569 3.060594,3.013755 3.770841,4.580173 0.474821,1.047197 0.567849,1.806654 0.480245,3.920675 l -0.07705,1.859312 h -0.779039 c -0.428467,0 -1.138,0.02037 -1.576732,0.0453 -0.438732,0.02492 -1.112996,0.0079 -1.498309,-0.0378 z"
     id="path51" /><path
     style="fill:#e0a525;fill-opacity:1;stroke-width:0.107786"
     d="m 67.025438,25.527644 c -2.671868,-0.50488 -4.744376,-2.026938 -5.822103,-4.275791 -0.550519,-1.148725 -0.735912,-2.135954 -0.671513,-3.575822 0.145018,-3.242554 1.479603,-4.366951 4.165468,-3.509407 1.32625,0.42345 2.988045,1.710947 3.938667,3.051561 1.442349,2.034014 2.025941,4.491948 1.684946,7.096297 -0.197829,1.510713 -0.06144,1.376683 -1.389539,1.365462 -0.63328,-0.0053 -1.490953,-0.07389 -1.905926,-0.1523 z"
     id="path52" /><path
     style="fill:#e0a525;fill-opacity:1;stroke-width:0.107786"
     d="m 54.089615,25.107494 c -1.606867,-0.304353 -2.792201,-0.978842 -4.069265,-2.315533 -1.041479,-1.090099 -1.540193,-2.067658 -1.711034,-3.353885 -0.159359,-1.199853 -0.06488,-3.69553 0.160337,-4.234539 0.292656,-0.700405 0.449395,-0.535893 1.183614,1.242274 0.82132,1.989114 1.818772,3.51871 2.982727,4.573979 1.210998,1.097926 3.629316,2.443636 5.473092,3.045568 1.592738,0.519975 1.72929,0.659945 0.934111,0.957472 -0.594281,0.222353 -3.925993,0.279297 -4.953582,0.08466 z"
     id="path53" /><path
     style="fill:#e0a525;fill-opacity:1;stroke-width:0.107786"
     d="M 60.935524,10.374158 C 59.092304,10.176906 58.24016,9.8800462 57.188759,9.0688919 56.071529,8.2069694 54.998909,6.4143935 54.641404,4.8117805 54.30615,3.3088943 54.544884,0.82265233 55.081353,0.22985338 c 0.2658,-0.29369279 0.402669,-0.0939694 0.72382,1.05609502 0.518584,1.8571024 1.558767,3.7114029 2.750423,4.9030598 1.352498,1.3524865 4.373404,3.0003273 6.157992,3.3590573 0.778166,0.1564191 1.02153,0.3939091 0.716518,0.6992225 -0.164359,0.164541 -0.422407,0.192995 -1.884415,0.20778 -0.931704,0.0094 -2.106269,-0.02699 -2.610167,-0.08091 z"
     id="path54" /><path
     style="fill:#adc972;fill-opacity:1;stroke-width:0.215572"
     d="m 80.324349,139.40402 c -0.991897,-3.02833 -2.489544,-4.95349 -5.235258,-6.72969 -1.897115,-1.22724 -3.430428,-1.91839 -7.14748,-3.22178 -3.381137,-1.18562 -7.990787,-3.34897 -9.951032,-4.67014 -3.391376,-2.28573 -6.227366,-5.77144 -8.070612,-9.9196 -1.325219,-2.9823 -1.948471,-5.53086 -2.139712,-8.7493 -0.14306,-2.40777 0.02117,-6.484801 0.251804,-6.254087 0.05358,0.05357 0.374756,1.151797 0.71374,2.440487 0.695907,2.64562 1.402609,4.61276 2.277269,6.33881 2.333545,4.60509 6.232419,8.48961 11.106996,11.06607 2.422287,1.28031 3.986477,1.7177 9.344316,2.6129 6.310498,1.05437 7.34523,1.61292 9.111774,4.91865 l 0.828728,1.55075 v 5.06595 c 0,4.91276 -0.140732,6.68274 -0.531363,6.68274 -0.103664,0 -0.355309,-0.50929 -0.55917,-1.13176 z m -0.960544,-7.67994 c -1.709261,-3.20691 -3.917923,-4.72307 -8.67029,-5.95183 -3.561291,-0.92079 -6.795505,-2.02788 -9.195011,-3.1475 -0.994569,-0.46407 -1.891903,-0.84376 -1.994032,-0.84376 -0.438256,0 -0.116999,0.36803 0.810074,0.928 1.55874,0.94151 4.629283,2.1485 9.166199,3.60309 4.383008,1.40526 6.541294,2.35983 7.629842,3.37451 0.799412,0.74517 1.941433,2.38209 2.419668,3.46822 0.308213,0.69997 0.365257,0.74267 0.433678,0.32452 0.04334,-0.26482 -0.226721,-1.05469 -0.600128,-1.75525 z"
     id="path55" /><path
     style="fill:#adc972;fill-opacity:1;stroke-width:0.053893"
     d="m 80.514981,148.49748 c -0.09305,-0.16989 -0.364649,-0.75427 -0.603541,-1.29862 -0.491649,-1.12028 -0.688605,-1.49017 -1.177872,-2.21196 -0.518134,-0.76434 -0.930831,-1.25363 -1.708838,-2.02594 -1.370542,-1.36046 -2.835143,-2.35672 -4.632642,-3.15117 -2.509282,-1.10905 -7.63905,-2.96714 -9.739075,-3.52764 -0.842962,-0.225 -1.945613,-0.71394 -3.711548,-1.64576 -3.413548,-1.80124 -4.839732,-2.85337 -6.630908,-4.8918 -3.104965,-3.53358 -5.081826,-7.79546 -5.893753,-12.70619 -0.313319,-1.89501 -0.429074,-3.15518 -0.433149,-4.71564 -0.0037,-1.43879 0.05368,-1.89781 0.268764,-2.14787 0.107553,-0.12503 0.129302,-0.13109 0.215397,-0.06 0.15793,0.13041 0.281781,0.4791 0.372692,1.04916 0.296968,1.86224 1.616737,5.7495 2.744629,8.08396 2.028296,4.19813 6.400562,8.21876 11.754008,10.80869 1.428697,0.69118 2.267188,1.04063 2.886261,1.20289 0.280273,0.0734 0.814043,0.27871 1.186206,0.45613 0.372136,0.17741 1.063307,0.48465 1.535933,0.68276 4.529243,1.89839 7.246249,3.49333 9.514469,5.58518 1.781096,1.64258 3.102372,3.72559 3.711866,5.85179 0.329671,1.15001 0.452041,1.97117 0.54782,3.67658 0.07387,1.3154 0.04622,1.44725 -0.206719,0.98544 z"
     id="path56" /><path
     style="fill:#adc972;fill-opacity:1;stroke-width:0.053893"
     d="m 77.364628,145.3286 c -0.19267,-0.074 -0.87172,-0.38506 -1.509,-0.69117 -1.2487,-0.59979 -1.29267,-0.61824 -1.85931,-0.78015 -1.1291,-0.32264 -2.72097,-0.54176 -9.24266,-1.27227 -4.90619,-0.54955 -7.02662,-0.84804 -9.24266,-1.30107 -2.84025,-0.58064 -6.59194,-1.64955 -8.68146,-2.47347 -5.45981,-2.15288 -10.42977,-5.692 -13.6466,-9.71779 -0.58314,-0.72978 -1.57874,-2.20207 -2.06361,-3.05164 -0.46705,-0.81832 -1.21733,-2.38545 -1.57438,-3.28849 -0.84651,-2.1408 -1.66524,-5.15046 -1.81057,-6.65579 -0.18161,-1.88096 -0.37441,-6.55756 -0.5166,-12.53013 -0.16552,-6.952214 -0.32822,-10.919504 -0.54113,-13.193874 -0.0901,-0.96281 -0.14882,-1.27979 -0.49069,-2.65069 -1.17843,-4.72547 -2.59297,-7.96238 -4.4336,-10.14537 l -0.32946,-0.39073 h 6.67488 6.67486 l 0.0335,0.58497 c 0.0365,0.63816 -0.0378,3.8225 -0.12539,5.37022 -0.20933,3.69996 -0.40933,6.02685 -0.88942,10.34746 -0.78491,7.063894 -0.94202,9.087334 -0.94149,12.125944 0,3.36616 0.27109,7.33459 0.64659,9.48518 0.19227,1.10111 1.04851,3.84043 1.73511,5.55098 1.75757,4.37868 4.22976,7.52239 8.80028,11.19067 2.08113,1.67033 5.15606,3.87244 5.40729,3.87244 0.11403,0 0.066,-0.0819 -0.19315,-0.32926 -0.35224,-0.33626 -0.55044,-0.49264 -2.51949,-1.98794 -2.37879,-1.80645 -3.31907,-2.58074 -4.69755,-3.86828 -2.07044,-1.93388 -3.7043,-4.18126 -5.0827,-6.99137 -1.7753,-3.61918 -2.69713,-7.49034 -2.97016,-12.47261 -0.12253,-2.23641 -0.0217,-6.55765 0.2218,-9.51576 0.16772,-2.036444 0.62873,-6.342284 0.81071,-7.571974 0.28663,-1.93653 0.55642,-4.76022 1.00164,-10.4822 0.12083,-1.5531 0.12155,-3.53891 0.003,-4.47312 -0.0495,-0.38534 -0.0901,-0.73093 -0.0904,-0.76798 0,-0.0523 0.32985,-0.0674 1.47288,-0.0674 h 1.47338 l 0.11909,0.44462 c 0.94454,3.52651 1.74189,8.69046 2.0034,12.97476 0.0896,1.4683 0.0772,4.25152 -0.0243,5.44319 -0.35814,4.203874 -0.37462,14.774674 -0.0298,19.132044 0.0867,1.0956 0.25296,2.32502 0.40782,3.01553 0.21485,0.95795 0.25818,1.07344 1.58803,4.23309 1.08466,2.57709 3.13516,5.44679 5.75726,8.05734 1.50995,1.50332 2.56474,2.37151 4.15425,3.4194 2.00763,1.32351 4.12424,2.51024 5.57794,3.12738 0.53353,0.22651 1.21259,0.54081 1.509,0.69845 1.31702,0.7004 6.315,2.30451 7.90295,2.53647 0.45847,0.067 0.9775,0.20919 2.06726,0.56647 0.80032,0.26238 1.87953,0.61226 2.39824,0.7775 1.50418,0.47919 2.78638,1.09231 4.08945,1.95546 1.21542,0.80508 2.07397,1.90867 1.47672,1.89817 -0.0824,-0.001 -0.30755,-0.0632 -0.50022,-0.13724 z"
     id="path57" /><path
     style="fill:#adc972;fill-opacity:1;stroke-width:0.0190541"
     d="M 0.07207095,79.33856 C -0.01659093,79.25933 -0.01087593,79.217804 0.12445845,78.957785 0.29818386,78.623976 0.70275823,77.922616 1.1308541,77.213141 2.4369432,75.04859 2.7885215,74.431158 2.8418615,74.208252 2.9871178,73.601247 5.3658013,70.614755 7.8424071,67.929933 8.2999246,67.433958 9.4607046,66.27366 9.8648292,65.90835 c 1.5038918,-1.359416 2.8911018,-2.365537 4.4892648,-3.255979 1.12395,-0.626226 3.117823,-1.52554 3.716999,-1.6765 0.749035,-0.18872 1.829831,-0.274508 3.463607,-0.274926 2.063036,-5.29e-4 3.850772,0.160599 4.926065,0.443973 0.439315,0.115779 1.097122,0.380916 1.685714,0.679471 0.934746,0.474144 1.685713,1.008624 2.353918,1.675361 0.548931,0.547737 0.886381,1.003868 1.247616,1.686398 0.201904,0.381476 0.229024,0.428109 0.386901,0.665086 0.159517,0.239477 0.394493,0.489389 0.531548,0.565317 0.09144,0.05065 0.117157,0.05575 0.281649,0.05575 h 0.181001 l 0.133879,0.08913 c 0.897996,0.597881 2.957751,3.600397 3.892894,5.674728 0.57105,1.266647 1.134772,2.885381 1.622081,4.657777 0.06326,0.230034 0.115014,0.425101 0.115014,0.433481 0,0.0084 -0.589491,0.01577 -1.309978,0.01643 -1.362895,0.0013 -1.615149,0.01058 -1.652085,0.06109 -0.01667,0.02268 -0.03339,-0.05932 -0.07467,-0.364244 -0.238416,-1.761408 -0.735886,-4.20111 -1.214755,-5.957308 -0.363141,-1.331844 -0.675878,-2.236129 -1.077436,-3.115339 -0.357955,-0.783754 -0.577983,-1.079662 -0.577798,-0.777052 1.59e-4,0.234055 0.110729,0.700611 0.42762,1.80399 0.935276,3.256613 1.285531,5.259826 1.401233,8.014218 0.01058,0.251513 0.01773,0.573051 0.01614,0.714529 l -0.0032,0.25723 -0.01349,-0.20007 c -0.0074,-0.110035 -0.01455,-0.25368 -0.01588,-0.319206 l -0.0026,-0.119142 -6.698615,1.58e-4 -6.698614,1.62e-4 -0.289481,-0.291317 c -0.889079,-0.894736 -1.857058,-1.575665 -2.995136,-2.106933 -1.518074,-0.708649 -2.359978,-0.864097 -4.687306,-0.865475 -1.588902,-0.0011 -2.990162,0.09995 -3.9441961,0.283979 C 8.5948821,74.534375 6.4681877,75.48774 4.6525111,76.528439 3.4893763,77.195117 2.7331972,77.70145 2.0192984,78.291648 1.4976195,78.722938 1.0658459,79.026309 0.72736448,79.199421 0.36829844,79.383068 0.1689349,79.425375 0.0717799,79.338557 Z M 29.49932,76.275179 c 0,-0.439311 -0.313002,-1.655066 -0.667041,-2.590916 -1.310111,-3.463068 -3.833284,-5.639366 -7.620503,-6.572832 -0.593302,-0.146238 -0.929217,-0.189322 -1.591998,-0.204195 -0.298556,-0.0067 -0.624125,-0.0024 -0.819335,0.01074 -3.6508,0.246391 -8.210682,2.216785 -11.0524128,4.775928 -0.4289689,0.386315 -0.8992923,0.830106 -0.9607285,0.906552 -0.1453621,0.180901 0.0082,0.102706 0.5902325,-0.300492 1.2054946,-0.835144 1.9939,-1.321369 2.8866828,-1.780299 1.336755,-0.687142 2.800747,-1.224577 4.925484,-1.808155 1.122865,-0.308404 1.791335,-0.460407 2.362702,-0.537255 0.457915,-0.06158 1.243251,-0.06133 1.705346,5.29e-4 0.997029,0.133522 2.395379,0.510426 3.420216,0.921869 1.930664,0.775116 3.60463,1.979949 4.772183,3.434808 0.399865,0.498284 0.697759,0.955498 0.962105,1.476692 0.203041,0.400307 0.293819,0.628645 0.51517,1.295676 0.229235,0.69084 0.355362,0.998667 0.450559,1.0996 0.09208,0.09763 0.121338,0.06672 0.121338,-0.128281 z"
     id="path59" /><path
     style="fill:#adc972;fill-opacity:1;stroke-width:0.0190541"
     d="m 0.17464776,79.379506 c -0.0638,-0.018 -0.11994,-0.0796 -0.11994,-0.13173 0,-0.10768 0.38976,-0.79427 1.56250004,-2.75245 0.92935,-1.55179 1.17097,-1.982 1.25765,-2.23931 0.0761,-0.22596 0.21246,-0.46263 0.52107,-0.90461 0.88082,-1.26149 2.60373,-3.33916 4.33374,-5.22609 0.49461,-0.5395 1.78287,-1.83333 2.20525,-2.21481 2.2205102,-2.005465 4.2565402,-3.293076 7.1549702,-4.524947 0.81372,-0.345837 1.15273,-0.442163 1.87597,-0.533024 0.69879,-0.08779 1.28987,-0.113355 2.61996,-0.113329 1.62324,3.4e-5 2.65274,0.05953 3.77293,0.218038 0.75232,0.10645 1.22891,0.2232 1.78131,0.436348 1.42555,0.550066 2.69721,1.379942 3.58,2.336273 0.46609,0.504937 0.72524,0.87466 1.08791,1.552141 0.35824,0.66924 0.6863,1.08065 0.94932,1.19054 0.0437,0.0183 0.1297,0.0289 0.23342,0.0289 h 0.16423 l 0.14602,0.0996 c 0.0803,0.0548 0.2576,0.21127 0.39396,0.34773 0.85927,0.85979 2.13932,2.72321 3.06311,4.45907 0.67199,1.26271 1.33689,3.0323 1.95451,5.20176 0.15192,0.53371 0.19957,0.71473 0.1905,0.72379 -0.004,0.004 -0.6504,0.0149 -1.43614,0.0238 -1.04658,0.0119 -1.43965,0.0224 -1.46997,0.0391 -0.051,0.0281 -0.0429,0.0617 -0.12925,-0.53903 -0.36031,-2.50857 -1.02973,-5.46088 -1.66671,-7.35059 -0.40696,-1.20727 -0.98216,-2.43231 -1.13208,-2.41096 -0.0361,0.005 -0.0419,0.0199 -0.0473,0.12019 -0.0124,0.22641 0.0621,0.5492 0.42177,1.82919 0.36703,1.30613 0.51478,1.87135 0.68728,2.62946 0.40405,1.77574 0.59926,3.21274 0.69758,5.13507 0.0106,0.20436 0.019,0.41443 0.019,0.46683 l 1.3e-4,0.0953 -6.70092,-0.005 -6.70094,-0.005 -0.36338,-0.3579 c -0.97269,-0.95804 -1.92556,-1.60538 -3.18381,-2.16296 -0.83704,-0.37093 -1.4515,-0.55011 -2.22888,-0.64996 -0.38404,-0.0493 -0.65471,-0.0662 -1.44399,-0.09 -1.70576,-0.0515 -3.72935,0.0685 -4.7485802,0.2815 -1.10307,0.23052 -3.72549,1.46938 -5.69717,2.6914 -0.68177,0.42256 -1.13413,0.74435 -1.8103,1.28782 -0.45564,0.36621 -0.71797,0.55569 -1.00970004,0.72934 -0.37921,0.2257 -0.65162,0.32567 -0.78513,0.28809 z M 29.527338,76.297926 c 0.007,-0.22963 -0.0449,-0.54096 -0.17701,-1.06017 -0.48577,-1.90895 -1.22179,-3.40986 -2.31727,-4.72541 -0.22709,-0.2727 -0.86177,-0.9038 -1.14104,-1.13459 -1.25106,-1.03387 -2.67862,-1.74048 -4.46064,-2.20792 -0.73594,-0.19305 -1.01394,-0.22988 -1.83674,-0.24337 -0.68384,-0.0112 -0.99438,0.006 -1.62729,0.0909 -3.2676,0.43765 -7.0821,2.11301 -9.6908102,4.25629 -0.47062,0.38665 -1.44659,1.29039 -1.49871,1.38781 -0.0243,0.0454 -0.0106,0.0592 0.0449,0.0451 0.0474,-0.012 0.19839,-0.11082 1.12983,-0.73941 1.15953,-0.78252 1.86446,-1.19234 2.9057602,-1.6893 1.30056,-0.62071 3.20537,-1.26045 5.3095,-1.78323 1.14747,-0.28509 1.6297,-0.34959 2.46454,-0.32962 0.50009,0.012 0.76268,0.042 1.29569,0.14813 1.09675,0.2184 2.27356,0.58183 3.17251,0.97975 2.46753,1.09225 4.41042,2.84702 5.40073,4.87781 0.14499,0.29735 0.2491,0.56731 0.47548,1.23292 0.2408,0.70799 0.3197,0.897 0.42402,1.0158 0.0963,0.10972 0.12004,0.0869 0.1265,-0.12152 z"
     id="path60" /><path
     style="fill:#adc972;fill-opacity:1;stroke-width:0.00146163"
     d="m 35.948115,77.392552 c 0.004,-0.0029 0.02857,-0.01053 0.04501,-0.01389 0.04329,-0.0088 0.131339,-0.01688 0.197855,-0.01815 0.03493,-7.94e-4 0.03416,-5.29e-4 -0.02117,0.0028 -0.110754,0.0067 -0.183012,0.01624 -0.215423,0.02856 -0.0087,0.0033 -0.0098,0.0035 -0.0063,7.93e-4 z"
     id="path61" /><path
     style="fill:#adc972;fill-opacity:1;stroke-width:0.00146163"
     d="m 35.922451,77.405273 c -0.0061,-0.007 -0.01191,-0.02532 -0.01931,-0.06248 -0.01138,-0.05571 -0.02196,-0.126166 -0.05048,-0.333251 -0.05263,-0.381611 -0.106441,-0.732403 -0.173222,-1.129109 -0.0085,-0.05024 -0.01535,-0.09217 -0.01535,-0.09318 0,-0.0016 0.280194,-0.0019 1.396206,-0.0019 h 1.396233 l 0.0032,0.01061 c 0.0026,0.0058 0.01931,0.06453 0.03919,0.13045 0.08694,0.289081 0.170603,0.578816 0.253656,0.87844 0.05016,0.180901 0.108055,0.395391 0.128667,0.476491 l 0.01138,0.04531 -0.0037,0.0011 c -0.0098,0.0027 -0.118559,0.0061 -0.269584,0.0085 -0.794279,-0.471985 -1.315455,-0.327086 -2.09669,0.01389 -0.334169,0.0068 -0.425768,0.01093 -0.50501,0.02286 -0.04622,0.007 -0.07048,0.01511 -0.08475,0.02845 -0.0037,0.0035 -0.0071,0.0065 -0.0077,0.0065 0,0 -0.0026,-0.0011 -0.0029,-0.0026 z"
     id="path62" /><path
     style="fill:#adc972;fill-opacity:1;stroke-width:0.264583"
     d="m 36.190258,77.339866 0.0935,0.0658"
     id="path66" /><path
     style="fill:#adc972;fill-opacity:1;stroke-width:0.264583"
     d="m 36.228258,77.364716 0.0746,0.0511"
     id="path67" /><path
     style="fill:#adc972;fill-opacity:1;stroke-width:0.264583"
     d="m 36.127398,77.325246 c 0.0156,0.0125 0.013,0.0109 0.0292,0.0219 0.0387,0.0262 0.0145,0.0109 0.0599,0.0336 0.003,0.002 0.006,0.005 0.009,0.006 0,2.7e-4 0.003,-5.3e-4 0.003,0 0,2.2e-4 0,0.001 0,0.002 0.007,0.006 0.0145,0.009 0.0233,0.0117 0.0145,0.005 0.0291,0.009 0.0438,0.0132 0.004,0.001 0.008,0.001 0.0116,0.002 0,1e-4 0.003,-5.3e-4 0.003,0 0,5.3e-4 0,0.002 0.003,0.003"
     id="path68" /><path
     style="fill:#adc972;fill-opacity:1;stroke-width:0.264583"
     d="m 36.150368,77.364976 c 0.003,-2.7e-4 0.004,2.6e-4 0.004,-0.001 0,-10e-4 -0.006,0.001 -0.004,0.001 0.009,-0.002 0.0116,-0.004 0.0206,-0.001 0.003,7.9e-4 0.005,0.003 0.007,0.004 0.003,0.001 0.006,0.002 0.008,0.004 0,1.9e-4 -2.4e-4,8e-4 0,10e-4 2.4e-4,2.4e-4 0,-1.9e-4 0,0 0.003,0.001 0.003,0.003 0.005,0.004 0.01,0.006 0.022,0.007 0.032,0.0124"
     id="path69" /><path
     style="fill:#adc972;fill-opacity:1;stroke-width:0.264583"
     d="m 36.123478,77.349466 c 0.019,0.0138 0.044,0.0163 0.0661,0.0217 0.004,0.001 0.0167,0.005 0.0217,0.005"
     id="path70" /><path
     style="fill:#adc972;fill-opacity:1;stroke-width:0.264583"
     d="m 36.104878,77.358766 c 0.006,0.008 0.014,0.0129 0.0217,0.0186 0.003,0.003 0.007,0.006 0.0103,0.008 0.006,0.004 0.0106,0.005 0.0156,0.0103"
     id="path71" /><path
     style="fill:#adc972;fill-opacity:1;stroke-width:0.264583"
     d="m 36.214448,77.320526 c 0,0.002 -2.7e-4,0.005 0,0.007 -0.008,0.0244 -0.0389,0.056 -0.0569,0.0734 -0.006,0.006 -0.0127,0.0101 -0.0164,0.0176"
     id="path72" /><path
     style="fill:#adc972;fill-opacity:1;stroke-width:0.264583"
     d="m 36.268178,77.324666 c -0.003,0.004 -0.003,0.009 -0.004,0.0134 -0.003,0.005 -0.007,0.01 -0.0103,0.0145 -0.0225,0.0295 -0.0145,0.0175 -0.0455,0.0506 -0.0296,0.0318 -0.006,0.008 -0.0156,0.0176"
     id="path73" /><use
     id="use73"
     xlink:href="#path73"
     transform="translate(-0.05271344,-0.03423117)" /><use
     id="use74"
     xlink:href="#path73"
     transform="translate(-0.09992344,-0.02284317)" /><use
     id="use75"
     xlink:href="#path73"
     transform="translate(-0.08357344,-0.01273517)" /><use
     id="use76"
     xlink:href="#path73"
     transform="translate(-0.15516344,0.03392083)" /><use
     id="use77"
     xlink:href="#path73"
     transform="translate(-0.17183344,0.06738983)" /><use
     id="use78"
     xlink:href="#path73"
     transform="translate(-0.18679344,0.04392983)" /><use
     id="use79"
     xlink:href="#path73"
     transform="translate(-0.10061344,-0.01761117)" /><use
     id="use80"
     xlink:href="#path73"
     transform="translate(-0.11745344,-0.02319817)" /><use
     id="use81"
     xlink:href="#path73"
     transform="translate(-0.05003344,0.00348783)" /><use
     id="use82"
     xlink:href="#path73"
     transform="translate(-0.06467344,0.01014983)" /><use
     id="use83"
     xlink:href="#path73"
     transform="translate(-0.06166344,-0.01698617)" /><use
     id="use84"
     xlink:href="#path73"
     transform="translate(-0.05285344,0.01658383)" /><use
     id="use85"
     xlink:href="#path73"
     transform="translate(-0.04540344,-0.00920917)" /><use
     id="use86"
     xlink:href="#path73"
     transform="translate(-0.05163344,0.02777083)" /><use
     id="use87"
     xlink:href="#path73"
     transform="translate(-0.08116344,0.01315483)" /><use
     id="use88"
     xlink:href="#path73"
     transform="translate(0.03231656,-0.02552317)" /><use
     id="use89"
     xlink:href="#path73"
     transform="translate(0.11631656,-0.01025817)" /><use
     id="use90"
     xlink:href="#path73"
     transform="translate(0.09284656,-0.00107317)" /><use
     id="use91"
     xlink:href="#path73"
     transform="translate(0.13059656,0.01461683)" /><use
     id="use92"
     xlink:href="#path73"
     transform="translate(0.18595656,-0.01600317)" /></svg>
