<svg xmlns="http://www.w3.org/2000/svg" width="278.717" height="56"><g id="Group_3" data-name="Group 3" transform="translate(-349.561 362.393)"><path id="Path_1" data-name="Path 1" d="M137.659 56.5c76.97 0 139.359-12.516 139.359-28S214.629.5 137.659.5-1.7 13.016-1.7 28.5s62.389 28 139.359 28" transform="translate(351.261 -362.893)" fill="#eb0029"/><path id="Path_2" data-name="Path 2" d="M396.2 74.51a2.71 2.71 0 0 1 5.419 0 2.71 2.71 0 0 1-5.419 0zm5.1 0a2.342 2.342 0 0 0-2.387-2.387 2.382 2.382 0 0 0-2.387 2.387 2.382 2.382 0 0 0 2.384 2.39 2.3 2.3 0 0 0 2.39-2.39zm-3.419-1.419h1.219c.581 0 1.032.323 1.032.839a.909.909 0 0 1-.645.839l.774 1.032h-.516l-.71-.968h-.645v.967h-.452v-2.71zm1.161 1.355c.387 0 .581-.194.581-.516s-.258-.452-.581-.452h-.71v.968z" transform="translate(210.078 -388.193)" fill="#eb0029"/><g id="Group_2" data-name="Group 2" transform="translate(368.401 -341.103)" fill="#fff"><path id="Path_3" data-name="Path 3" d="M39.049 38.223h-7.742V33.9H27.5v12.065h3.807v-4.388h7.742v4.387h3.871V33.9h-3.871z" transform="translate(-27.5 -33.642)"/><path id="Path_4" data-name="Path 4" d="M57.913 41.126h9.42v-2.645h-9.42v-1.742h9.871V33.9H54.3v12.065h13.549v-2.9h-9.936z" transform="translate(-37.009 -33.642)"/><path id="Path_5" data-name="Path 5" d="M86.852 33.9h-3.936L76.4 45.965h4.194l1.032-2.065h8l1.032 2.065h4.194L88.336 33.9zm-3.871 7.355l2.645-5.032 2.645 5.032z" transform="translate(-44.851 -33.642)"/><path id="Path_6" data-name="Path 6" d="M100.4 37h5.355v8.968h3.807V37h5.355v-3.1H100.4z" transform="translate(-53.366 -33.642)"/><path id="Path_7" data-name="Path 7" d="M170.623 42.868l-6.258-8.968H158.3v12.065h3.742l-.065-9.032 6.323 9.032h6V33.9h-3.742z" transform="translate(-73.911 -33.642)"/><path id="Path_8" data-name="Path 8" d="M291.423 42.868l-6.258-8.968H279.1v12.065h3.742l-.065-9.032 6.323 9.032h6V33.9h-3.742z" transform="translate(-116.773 -33.642)"/><path id="Path_9" data-name="Path 9" d="M199.162 34.158a19.471 19.471 0 0 0-4.516-.258H186v12h8.645c4.065 0 5.1-.194 6.065-1.032.9-.839 1.161-2.065 1.161-5.161a11.349 11.349 0 0 0-.323-3.548 2.941 2.941 0 0 0-2.386-2.001zm-4.452 8.71h-5.1v-5.936h5.1c2.258 0 2.9.065 3.226.387s.387 1.161.387 2.645c-.065 2.968-.065 2.904-3.613 2.904z" transform="translate(-83.739 -33.642)"/><path id="Path_10" data-name="Path 10" d="M265.955 34.4c-.9-.71-2.065-.9-7.1-.9s-6.129.194-7.1.9c-.9.71-1.161 1.935-1.161 5.29 0 3.548.258 4.71 1.161 5.419s2.065.9 7.1.9c4.968 0 6.129-.194 7.032-.9s1.161-1.935 1.161-5.355c.133-3.415-.19-4.641-1.093-5.354zm-2.839 8.129c-.323.258-1.226.387-4.194.387-3.032 0-3.936-.129-4.258-.387s-.387-.968-.387-2.452a11.1 11.1 0 0 1 .194-2.839c.258-.516.774-.581 4.387-.581 3.355 0 4 .129 4.323.452a7.574 7.574 0 0 1 .323 3.032c-.004 1.424-.129 2.198-.388 2.391z" transform="translate(-106.661 -33.5)"/><path id="Path_11" data-name="Path 11" d="M370.955 34.4c-.9-.71-2.065-.9-7.1-.9s-6.129.194-7.1.9c-.9.71-1.161 1.935-1.161 5.29 0 3.548.258 4.71 1.161 5.419s2.065.9 7.1.9c4.968 0 6.129-.194 7.032-.9s1.161-1.935 1.161-5.355c.133-3.415-.189-4.641-1.093-5.354zm-2.839 8.129c-.323.258-1.226.387-4.194.387-3.032 0-3.936-.129-4.258-.387s-.387-.968-.387-2.452a11.1 11.1 0 0 1 .194-2.839c.258-.516.774-.581 4.387-.581 3.355 0 4 .129 4.323.452a7.573 7.573 0 0 1 .323 3.032c-.004 1.424-.129 2.198-.388 2.391z" transform="translate(-143.917 -33.5)"/><path id="Path_12" data-name="Path 12" d="M235.213 42.532c-.323.258-.839.387-3.742.387-3.032 0-3.484-.129-3.871-.387-.323-.258-.387-.968-.387-2.452a11.1 11.1 0 0 1 .194-2.839c.258-.516.387-.581 4-.581 3.355 0 3.613.129 3.871.452a1.95 1.95 0 0 1 .258.968h3.678c-.065-2.194-.387-3.1-1.161-3.677-.9-.71-1.613-.9-6.645-.9s-5.742.194-6.645.9-1.161 1.935-1.161 5.29c0 3.548.258 4.71 1.161 5.419s1.613.9 6.71.9c4.968 0 5.678-.194 6.645-.9.774-.581 1.1-1.548 1.161-4H235.6c-.064.84-.193 1.288-.387 1.42z" transform="translate(-97.08 -33.5)"/><path id="Path_13" data-name="Path 13" d="M305.8 37h5.355v8.968h3.871V37h5.355v-3.1H305.8z" transform="translate(-126.247 -33.642)"/><path id="Path_14" data-name="Path 14" d="M345.3 37.871c0-2.065-.258-2.9-1.161-3.419-.774-.452-.774-.452-4.9-.452H330.4v12h3.678v-3.032h5.161c1.484 0 1.807.065 2.065.323.258.323.387.71.387 2.065V46h3.609v-2.581a2.372 2.372 0 0 0-1.419-2.194 1.538 1.538 0 0 0 .71-.387c.519-.515.709-1.161.709-2.967zm-4.065 1.806c-.258.194-.258.194-2.065.194h-5.161V36.9h5.161c1.677 0 1.742 0 1.936.129.387.194.516.516.516 1.29.004.842-.06 1.229-.383 1.358z" transform="translate(-134.975 -33.677)"/><path id="Path_15" data-name="Path 15" d="M387.507 42.868V33.9H383.7v12.065h13.226v-3.1z" transform="translate(-153.887 -33.642)"/><path id="Path_16" data-name="Path 16" d="M134.816 33.9l-6.516 12h4.194l1.032-2.065h8l1.032 2.065h4.194l-6.516-12zm.129 7.355l2.645-5.032 2.645 5.032z" transform="translate(-63.266 -33.642)"/></g></g></svg>